<?xml version="1.0" standalone="no"?>
<!DOCTYPE svg PUBLIC "-//W3C//DTD SVG 1.1//EN" "http://www.w3.org/Graphics/SVG/1.1/DTD/svg11.dtd" >
<svg xmlns="http://www.w3.org/2000/svg" xmlns:xlink="http://www.w3.org/1999/xlink" version="1.1">
<metadata>
Created by FontForge 20170731 at Tue Jul 25 00:40:38 2017
 By Aleksey,,,
Copyright (c) 2017 by Hyun S. Choi. All rights reserved.
</metadata>
<defs>
<font id="a98" horiz-adv-x="940" >
  <font-face 
    font-family="HSYeolumMulbit"
    font-weight="700"
    font-stretch="squinchy"
    units-per-em="1000"
    panose-1="0 0 5 3 3 0 0 2 0 4"
    ascent="800"
    descent="-200"
    x-height="556"
    cap-height="673"
    bbox="-97 -816 1356 977"
    underline-thickness="58"
    underline-position="-347"
    unicode-range="U+0001-FFE6"
  />
<missing-glyph 
d="M137 -115v772h666v-772h-666zM191 -84h558l-279 330zM448 272l-278 329v-659zM747 626h-555l277 -330zM492 271l278 -329v660z" />
    <glyph glyph-name=".notdef" 
d="M137 -115v772h666v-772h-666zM191 -84h558l-279 330zM448 272l-278 329v-659zM747 626h-555l277 -330zM492 271l278 -329v660z" />
    <glyph glyph-name=".null" horiz-adv-x="0" 
 />
    <glyph glyph-name="nonmarkingreturn" horiz-adv-x="333" 
 />
    <glyph glyph-name="NULL" horiz-adv-x="280" 
 />
    <glyph glyph-name="NULL" unicode="&#xa0;" horiz-adv-x="280" 
 />
    <glyph glyph-name="NULL" unicode=" " horiz-adv-x="280" 
 />
    <glyph glyph-name="NULL" horiz-adv-x="280" 
 />
    <glyph glyph-name="NULL" horiz-adv-x="280" 
 />
    <glyph glyph-name="NULL" horiz-adv-x="280" 
 />
    <glyph glyph-name="NULL" horiz-adv-x="280" 
 />
    <glyph glyph-name="NULL" horiz-adv-x="280" 
 />
    <glyph glyph-name="NULL" horiz-adv-x="280" 
 />
    <glyph glyph-name="NULL" horiz-adv-x="280" 
 />
    <glyph glyph-name="NULL" horiz-adv-x="280" 
 />
    <glyph glyph-name="NULL" horiz-adv-x="280" 
 />
    <glyph glyph-name="NULL" horiz-adv-x="280" 
 />
    <glyph glyph-name="NULL" horiz-adv-x="280" 
 />
    <glyph glyph-name="NULL" horiz-adv-x="280" 
 />
    <glyph glyph-name="NULL" horiz-adv-x="280" 
 />
    <glyph glyph-name="NULL" horiz-adv-x="280" 
 />
    <glyph glyph-name="NULL" horiz-adv-x="280" 
 />
    <glyph glyph-name="NULL" horiz-adv-x="280" 
 />
    <glyph glyph-name="NULL" horiz-adv-x="280" 
 />
    <glyph glyph-name="NULL" horiz-adv-x="280" 
 />
    <glyph glyph-name="NULL" unicode="&#xd;" horiz-adv-x="280" 
 />
    <glyph glyph-name="NULL" horiz-adv-x="280" 
 />
    <glyph glyph-name="NULL" horiz-adv-x="280" 
 />
    <glyph glyph-name="NULL" unicode="&#xa;" horiz-adv-x="280" 
 />
    <glyph glyph-name="NULL" unicode="&#x9;" horiz-adv-x="280" 
 />
    <glyph glyph-name="NULL" horiz-adv-x="280" 
 />
    <glyph glyph-name="NULL" horiz-adv-x="280" 
 />
    <glyph glyph-name="NULL" horiz-adv-x="280" 
 />
    <glyph glyph-name="NULL" horiz-adv-x="280" 
 />
    <glyph glyph-name="NULL" horiz-adv-x="280" 
 />
    <glyph glyph-name="NULL" horiz-adv-x="280" 
 />
    <glyph glyph-name="NULL" horiz-adv-x="280" 
 />
    <glyph glyph-name="NULL" horiz-adv-x="280" 
 />
    <glyph glyph-name="exclam" unicode="!" horiz-adv-x="406" 
d="M117 282v333q0 33 22 54q23 23 54 23h77v-410h-153zM275 130q0 -18 -6.5 -33.5t-18.5 -27t-27.5 -18.5t-33.5 -7t-33.5 7t-27 18.5t-18 27t-6.5 33.5q0 35 25 60t60 25q36 0 61 -25t25 -60z" />
    <glyph glyph-name="quotedbl" unicode="&#x22;" horiz-adv-x="375" 
d="M332 702v-123q0 -33 -22 -54q-23 -23 -54 -23h-47v200h123zM172 702v-200h-62q-14 0 -23.5 6t-19.5 17q-18 21 -18 54v123h123z" />
    <glyph glyph-name="numbersign" unicode="#" horiz-adv-x="791" 
d="M187 62v109h-32q-33 0 -54 22q-23 23 -23 54v77h109v117h-32q-33 0 -54 22q-23 23 -23 54v77h109v31q0 33 22 54q23 23 54 23h77v-108h117v31q0 33 22 54q23 23 54 23h77v-108h108v-153h-108v-117h108v-153h-108v-109h-153v109h-117v-109h-153zM340 324h117v117h-117
v-117z" />
    <glyph glyph-name="dollar" unicode="$" horiz-adv-x="606" 
d="M367 469h156v-282q0 -32 -23 -55t-55 -23h-78v-101h-120v101h-156v155h156v50h-156v352h156v98h120v-98h78q32 0 55 -23t23 -55v-77h-156v-42zM367 314v-50h31v50h-31zM247 511h-31v-42h31v42z" />
    <glyph glyph-name="percent" unicode="%" horiz-adv-x="765" 
d="M137 72l267 560q8 17 17.5 32t16.5 22q23 23 54 23h107l-309 -637h-153zM462 236v9t1 9q2 10 4 17q2 4 3.5 7.5t3.5 7.5q4 9 11 18l6 7q11 13 30 23l16 6l8 3q3 0 5 1q5 1 10.5 1.5t11.5 0.5h4q16 -1 31 -6l15 -6q8 -4 11 -7q4 -2 7.5 -4.5t6.5 -5.5l6 -6t5 -7
q8 -9 15 -25q2 -5 3.5 -10.5t3.5 -10.5v-4q1 -5 1.5 -9t0.5 -9q0 -6 -0.5 -11.5t-1.5 -10.5q-1 -2 -1 -5q-3 -12 -9 -24q-3 -5 -5.5 -9t-6.5 -9q-18 -23 -43 -33l-8 -3q-17 -5 -31 -5h-4h-5q-7 0 -17 2q-3 0 -5 1q-4 0 -8 2l-8 3q-15 7 -26 15q-10 8 -18 18l-5 7l-6 11
q-7 12 -10 29q-2 5 -2 10.5v11.5zM72 566v9t1 9q0 2 1 4q0 3 1 4q3 13 9 24l6 11q19 28 49 40l8 3q13 4 30 6h5h4l22 -3l9 -3l8 -3l7 -3q22 -11 36 -30q4 -4 6.5 -8.5t5.5 -9.5l3 -7l3 -8l3 -9l3 -22v-4v-5l-3 -22q-7 -25 -21 -42q-15 -19 -37.5 -30t-48.5 -11q-40 0 -69 23
q-18 14 -29 35.5t-12 46.5v5z" />
    <glyph glyph-name="ampersand" unicode="&#x26;" horiz-adv-x="623" 
d="M470 0l-51 52l-110 109v-159q-8 -1 -15 -1.5t-15 -0.5q-44 0 -83 16t-70 47t-47 70t-16 83q0 80 51 140l-1 1v1l-2 2l-3 3l-2 3q0 1 -1 1q-35 47 -41 107v1q-1 1 -1 4v34q3 36 17 69t39 60l3 3q1 2 2 2.5t2 1.5l7 7q27 25 60 39t69 17h34q74 -6 128 -56l4 -3q1 -3 4 -4
l3 -4l3 -3h1q49 -55 55 -129q0 -3 1 -5v-24q-1 -1 -1 -4v-6q-1 -2 -1 -5q-8 -63 -47 -110q-1 0 -1 -1q-25 -31 -62 -51l197 -197zM279 559q-26 0 -44.5 -18.5t-18.5 -44.5q0 -8 1.5 -15.5t5.5 -13.5l26 -26q14 -8 30 -8q26 0 44.5 18.5t18.5 44.5t-18.5 44.5t-44.5 18.5z
M279 153q16 0 30 8l-86 86q-7 -13 -7 -31q0 -26 18.5 -44.5t44.5 -18.5z" />
    <glyph glyph-name="quotesingle" unicode="'" horiz-adv-x="303" 
d="M89 563q0 2 -0.5 3.5t0.5 3.5q-1 2 -0.5 4.5t0.5 4.5v123h123v-139q0 -26 -18 -43.5t-44 -17.5h-5q-24 2 -40 19t-16 42z" />
    <glyph glyph-name="parenleft" unicode="(" horiz-adv-x="363" 
d="M204 90q-61 61 -93 140q-32 78 -32 160t32 160q16 39 39 74.5t54 65.5l108 -108q-39 -38 -59.5 -88t-20.5 -104t20.5 -104t59.5 -88z" />
    <glyph glyph-name="parenright" unicode=")" horiz-adv-x="351" 
d="M59 198q39 38 59.5 88t20.5 104t-20.5 104t-59.5 88l108 108q31 -30 54 -65.5t39 -74.5q32 -78 32 -160t-32 -160q-32 -79 -93 -140z" />
    <glyph glyph-name="asterisk" unicode="*" horiz-adv-x="606" 
d="M66 296v151h115l-74 112h155l47 -69l45 69h157l-75 -112h115v-151h-114l74 -111h-157l-45 70l-47 -70h-155l73 111h-114z" />
    <glyph glyph-name="plus" unicode="+" horiz-adv-x="654" 
d="M599 452v-160h-189v-189h-156v189h-191v160h191v189h156v-189h189z" />
    <glyph glyph-name="comma" unicode="," horiz-adv-x="319" 
d="M250 69v-3q-1 -46 -14 -73.5t-30 -42.5q-19 -18 -43 -25v57q-35 0 -59.5 25t-24.5 60t25 60t61 25q35 0 59.5 -24t25.5 -59z" />
    <glyph glyph-name="hyphen" unicode="-" horiz-adv-x="607" 
d="M542 284h-476v169h476v-169z" />
    <glyph glyph-name="period" unicode="." horiz-adv-x="303" 
d="M265 70q0 -18 -6.5 -33.5t-18.5 -27t-27.5 -18.5t-33.5 -7t-33.5 7t-27 18.5t-18 27t-6.5 33.5q0 35 25 60t60 25q36 0 61 -25t25 -60z" />
    <glyph glyph-name="slash" unicode="/" horiz-adv-x="485" 
d="M312 706h158l-297 -807h-158z" />
    <glyph glyph-name="zero" unicode="0" horiz-adv-x="555" 
d="M481 127q0 -32 -22 -54t-54 -22h-318v612q0 32 22 54t54 22h318v-612zM328 204v383h-88v-345q0 -38 38 -38h50z" />
    <glyph glyph-name="one" unicode="1" horiz-adv-x="305" 
d="M101 716q23 23 54 23h77v-688h-153v611q0 33 22 54z" />
    <glyph glyph-name="two" unicode="2" horiz-adv-x="535" 
d="M223 339v-97q0 -38 38 -38h198v-77q0 -32 -22 -54t-54 -22h-313v364q0 33 22 54q23 23 54 23h160v56q0 39 -38 39h-178v152h369v-400h-236z" />
    <glyph glyph-name="three" unicode="3" horiz-adv-x="496" 
d="M82 717q22 22 54 22h313v-688h-313q-32 0 -54 22t-22 54v77h198q38 0 38 38v97h-196v153h196v56q0 39 -38 39h-198v76q0 32 22 54z" />
    <glyph glyph-name="four" unicode="4" horiz-adv-x="535" 
d="M464 126q0 -31 -23 -54q-21 -22 -54 -22h-76v189h-242v423q0 31 23 54q21 22 54 22h76v-308q0 -38 38 -38h51v346h153v-612v0z" />
    <glyph glyph-name="five" unicode="5" horiz-adv-x="539" 
d="M468 46h-313q-32 0 -54 22t-22 54v77h198q38 0 38 38v97h-236v400h369v-152h-178q-38 0 -38 -39v-56h160q31 0 54 -23q22 -21 22 -54v-364z" />
    <glyph glyph-name="six" unicode="6" horiz-adv-x="496" 
d="M444 45h-313q-33 0 -54 22q-23 23 -23 54v612h370v-152h-179q-38 0 -38 -39v-56h160q32 0 55 -23q22 -22 22 -54v-364zM253 198q38 0 38 38v97h-84v-135h46z" />
    <glyph glyph-name="seven" unicode="7" horiz-adv-x="515" 
d="M82 709q21 22 54 22h313v-688h-153v497q0 39 -38 39h-199v76q0 31 23 54z" />
    <glyph glyph-name="eight" unicode="8" horiz-adv-x="558" 
d="M107 707q22 22 55 22h312v-688h-312q-33 0 -55 22t-22 54v536q0 32 22 54zM283 194q39 0 39 38v77h-84v-115h45zM322 538q0 39 -39 39h-45v-115h84v76z" />
    <glyph glyph-name="nine" unicode="9" horiz-adv-x="547" 
d="M467 41h-369v153h178q38 0 38 38v57h-160q-32 0 -54 22t-22 54v364h313q32 0 54 -22t22 -54v-612zM314 577h-45q-38 0 -38 -39v-96h83v135z" />
    <glyph glyph-name="colon" unicode=":" horiz-adv-x="303" 
d="M250 541q0 -18 -6.5 -33.5t-18 -27t-27 -18.5t-33.5 -7t-33.5 7t-27 18.5t-18.5 27t-7 33.5t7 33.5t18.5 27t27 18t33.5 6.5q35 0 60 -25t25 -60zM250 210q0 -18 -6.5 -33.5t-18 -27t-27 -18.5t-33.5 -7t-33.5 7t-27 18.5t-18.5 27t-7 33.5t7 33.5t18.5 27t27 18
t33.5 6.5q35 0 60 -25t25 -60z" />
    <glyph glyph-name="semicolon" unicode=";" horiz-adv-x="303" 
d="M249 211q-1 -46 -14 -73t-30 -42q-19 -18 -43 -25v56q-17 0 -32.5 7t-27 18.5t-18 27t-6.5 33.5t7 33.5t18.5 27t27 18t33.5 6.5q35 0 59.5 -24.5t25.5 -59.5v-3zM249 544q0 -18 -6.5 -33.5t-18 -27t-27 -18.5t-33.5 -7t-33.5 7t-27 18.5t-18.5 27t-7 33.5t7 33.5
t18.5 27t27 18t33.5 6.5q35 0 60 -25t25 -60z" />
    <glyph glyph-name="less" unicode="&#x3c;" horiz-adv-x="400" 
d="M397 771l-184 -384l184 -385h-150l-184 385l184 384h150z" />
    <glyph glyph-name="equal" unicode="=" horiz-adv-x="654" 
d="M542 424h-476v169h476v-169zM542 144h-476v169h476v-169z" />
    <glyph glyph-name="greater" unicode="&#x3e;" horiz-adv-x="354" 
d="M165 771l184 -384l-184 -385h-150l184 385l-184 384h150z" />
    <glyph glyph-name="question" unicode="?" horiz-adv-x="580" 
d="M361 768q23 -23 23 -55v-254q0 -32 -23 -55t-55 -23h-69v-102h-155v257h147v100h-147v155h224q32 0 55 -23zM245 130q0 -18 -6.5 -33.5t-18.5 -27t-27.5 -18.5t-33.5 -7t-33.5 7t-27 18.5t-18 27t-6.5 33.5q0 35 25 60t60 25q36 0 61 -25t25 -60z" />
    <glyph glyph-name="at" unicode="@" horiz-adv-x="872" 
d="M718 742q24 -24 24 -55v-394q0 -31 -24 -55q-21 -23 -55 -23h-314v351h238v44h-282v-441h437v-155h-515q-31 0 -54 23t-23 55v595q0 32 23 55t55 23h435q34 0 55 -23zM587 411h-81v-41h81v41z" />
    <glyph glyph-name="A" unicode="A" horiz-adv-x="545" 
d="M425 699q34 0 55 -23q24 -24 24 -55v-534q0 -31 -24 -55q-21 -23 -55 -23h-77v269h-150v-269h-157v690h384zM348 544h-150v-111h150v111z" />
    <glyph glyph-name="B" unicode="B" horiz-adv-x="565" 
d="M510 420q0 -12 -6.5 -23t-15.5 -20q-21 -21 -49 -23q28 -3 49 -23q9 -9 15.5 -19.5t6.5 -22.5v-202q0 -32 -23 -55t-55 -23h-77v1h-150v-1h-157v690h462v-279zM355 165v113h-150v-113h150zM205 433h150v111h-150v-111z" />
    <glyph glyph-name="C" unicode="C" horiz-adv-x="552" 
d="M510 699v-155h-307v-380h307v-155h-384q-32 0 -55 23t-23 55v534q0 32 23 55t55 23h384z" />
    <glyph glyph-name="D" unicode="D" horiz-adv-x="545" 
d="M425 699q32 0 55 -23t23 -55v-534q0 -32 -23 -55t-55 -23h-384v690h384zM348 544h-152v-380h152v380z" />
    <glyph glyph-name="E" unicode="E" horiz-adv-x="539" 
d="M500 699v-155h-307v-113h257v-155h-257v-112h307v-155h-384q-32 0 -55 23t-23 55v534q0 32 23 55t55 23h384z" />
    <glyph glyph-name="F" unicode="F" horiz-adv-x="519" 
d="M497 699v-156h-307v-154h257v-155h-257v-226h-76q-33 0 -56 23q-11 11 -17 25t-6 30v534q0 16 6 30t17 25q24 24 56 24h383z" />
    <glyph glyph-name="G" unicode="G" horiz-adv-x="532" 
d="M339 341h155v-321h-1v-11h-384q-32 0 -55 23t-23 55v534q0 32 23 55t55 23h384v-155h-307v-380h153v177z" />
    <glyph glyph-name="H" unicode="H" horiz-adv-x="535" 
d="M346 699h155v-697h-155v271h-152v-271h-155v697h155v-271h152v271z" />
    <glyph glyph-name="I" unicode="I" horiz-adv-x="242" 
d="M196 80q0 -32 -23 -55t-55 -23h-77v697h155v-619z" />
    <glyph glyph-name="J" unicode="J" horiz-adv-x="363" 
d="M329 80q0 -16 -6 -30t-17 -25q-25 -23 -56 -23h-225v155h148v542h156v-619z" />
    <glyph glyph-name="K" unicode="K" horiz-adv-x="506" 
d="M166 25q-23 -23 -55 -23h-77v697h155v-251l166 251h165l-210 -349l230 -348h-185l-166 250v-172q0 -32 -23 -55z" />
    <glyph glyph-name="L" unicode="L" horiz-adv-x="484" 
d="M119 3q-32 0 -55 23t-23 55v541q0 32 23 55t55 23h77v-542h247v-155h-324v0z" />
    <glyph glyph-name="M" unicode="M" horiz-adv-x="797" 
d="M669 700q32 0 55 -23t23 -55v-619h-155v542h-112v-542h-155v542h-113v-542h-155v697h612z" />
    <glyph glyph-name="N" unicode="N" horiz-adv-x="587" 
d="M468 700q30 0 55 -23q22 -22 22 -55v-619h-155v542h-192v-542h-155v697h425z" />
    <glyph glyph-name="O" unicode="O" horiz-adv-x="606" 
d="M113 -1q-31 0 -54 23t-23 55v544q0 32 23 55t55 23h384q31 0 54 -23t23 -55v-544q0 -32 -23 -55t-54 -23h-385zM191 154h229v390h-229v-390z" />
    <glyph glyph-name="P" unicode="P" horiz-adv-x="545" 
d="M506 302q0 -32 -23 -55q-23 -22 -53 -23h-246v-225h-77q-32 0 -55 23t-23 55v544q0 32 23 55t55 23h399v-397zM351 544h-167v-165h167v165z" />
    <glyph glyph-name="Q" unicode="Q" horiz-adv-x="632" 
d="M545 154h65v-77q0 -32 -23 -55t-55 -23h-419q-33 0 -54 23q-23 23 -23 55v544q0 32 23 55t55 23h354q31 0 54 -23t23 -55v-467zM390 154v390h-199v-390h199z" />
    <glyph glyph-name="R" unicode="R" horiz-adv-x="568" 
d="M547 -1h-165l-149 225h-45v-225h-77q-32 0 -55 23t-23 55v544q0 32 23 55t55 23h399v-397q0 -32 -23 -55t-55 -23h-34zM188 379h167v165h-167v-165z" />
    <glyph glyph-name="S" unicode="S" horiz-adv-x="500" 
d="M389 699q15 0 29 -6t25 -17q23 -22 23 -55v-77h-277v-113h277v-354q0 -33 -23 -55q-11 -11 -25 -17t-29 -6h-354v155h277v122h-277v423h354v0z" />
    <glyph glyph-name="T" unicode="T" horiz-adv-x="561" 
d="M507 544h-140v-467q0 -32 -23 -55t-55 -23h-77v545h-141v155h436v-155z" />
    <glyph glyph-name="U" unicode="U" horiz-adv-x="558" 
d="M118 2q-32 0 -55 23t-23 55v619h155v-542h163v542h155v-697h-395z" />
    <glyph glyph-name="V" unicode="V" horiz-adv-x="610" 
d="M437 80q-4 -15 -8 -29.5t-15 -25.5q-23 -23 -55 -23h-167l-13 58l-2 10t-3 10l-131 612h158l105 -513l104 513h158z" />
    <glyph glyph-name="W" unicode="W" horiz-adv-x="930" 
d="M776 80q-4 -15 -8 -29.5t-15 -25.5q-23 -23 -55 -23h-167l-13 58l-2 10t-3 10l-52 245l-52 -245q-4 -15 -8 -29.5t-15 -25.5q-23 -23 -55 -23h-167l-13 58l-2 10t-3 10l-131 612h158l105 -513l104 513h158l105 -513l104 513h158z" />
    <glyph glyph-name="X" unicode="X" horiz-adv-x="666" 
d="M433 342l197 -340h-149q-32 0 -55 23q-11 11 -21 27t-18 28l-51 90l-51 -90q-8 -12 -18 -28t-21 -27q-23 -23 -55 -23h-149l197 340l-197 350h188l106 -182l106 182h188z" />
    <glyph glyph-name="Y" unicode="Y" horiz-adv-x="584" 
d="M387 310l-20 -51v-179q0 -16 -6 -30t-17 -25q-25 -23 -56 -23h-77v262l-19 46l-159 382h168l89 -198l89 198h168z" />
    <glyph glyph-name="Z" unicode="Z" horiz-adv-x="510" 
d="M395 692q32 0 55 -23t23 -55v-77l-245 -380h245v-77q0 -32 -23 -55t-55 -23h-354v155l244 380h-244v155h354v0z" />
    <glyph glyph-name="bracketleft" unicode="[" horiz-adv-x="324" 
d="M279 106v-159h-231v857h231v-159h-75v-539h75z" />
    <glyph glyph-name="backslash" unicode="\" horiz-adv-x="1065" 
d="M939 496h82v-163h-127l-52 -192l-2 -7q-3 -14 -6.5 -25t-13.5 -21q-21 -21 -51 -21h-163l-13 54l-5 20l-51 192h-10l-53 -192l-2 -7q-3 -14 -7 -25t-13 -21q-21 -21 -51 -21h-162l-12 54l-6 20l-52 192h-126v163h82l-33 119h168l28 -119h126l32 119h171l31 -119h127
l29 119h167zM736 333h-45l24 -90zM371 333h-45l21 -90z" />
    <glyph glyph-name="bracketright" unicode="]" horiz-adv-x="363" 
d="M139 106v539h-75v159h231v-857h-231v159h75z" />
    <glyph glyph-name="asciicircum" unicode="^" horiz-adv-x="688" 
d="M661 492h-186l-134 275l-134 -275h-186l206 420h227z" />
    <glyph glyph-name="underscore" unicode="_" horiz-adv-x="545" 
d="M509 -6h-476v169h476v-169z" />
    <glyph glyph-name="grave" unicode="`" horiz-adv-x="242" 
d="M32 621v3q1 35 25.5 59.5t59.5 24.5q18 0 33.5 -7t27 -18.5t18.5 -27t7 -33.5q0 -35 -25 -59.5t-59 -25.5v-57q-24 7 -43 25q-17 15 -30.5 42.5t-13.5 73.5z" />
    <glyph glyph-name="a" unicode="a" horiz-adv-x="455" 
d="M348 549q32 0 55 -23t23 -55v-394q0 -32 -23 -55t-55 -23h-314v351h237v44h-237v155h314zM271 195h-80v-41h80v41z" />
    <glyph glyph-name="b" unicode="b" horiz-adv-x="519" 
d="M476 549v-550h-344q-32 0 -55 23t-23 55v564q0 32 23 55t55 23h77v-170h267zM319 394h-110v-240h110v240z" />
    <glyph glyph-name="c" unicode="c" horiz-adv-x="474" 
d="M431 549v-155h-237v-240h237v-155h-314q-32 0 -55 23t-23 55v394q0 32 23 55t55 23h314z" />
    <glyph glyph-name="d" unicode="d" horiz-adv-x="519" 
d="M321 719h77q32 0 55 -23t23 -55v-564q0 -32 -23 -55t-55 -23h-344v550h267v170zM211 154h110v240h-110v-240z" />
    <glyph glyph-name="e" unicode="e" horiz-adv-x="458" 
d="M52 526q23 23 55 23h314v-351h-237v-44h237v-155h-314q-32 0 -55 23t-23 55v394q0 32 23 55zM184 353h80v41h-80v-41z" />
    <glyph glyph-name="f" unicode="f" horiz-adv-x="363" 
d="M340 654h-101v-93h101v-155h-101v-407h-78q-31 0 -54 23t-23 55v329h-61v155h61v170q0 32 23 55t54 23h179v-155z" />
    <glyph glyph-name="g" unicode="g" horiz-adv-x="510" 
d="M394 549q32 0 55 -23t23 -55v-605q0 -32 -23 -55t-55 -23h-344v155h267v56h-267v550h344zM317 154v240h-110v-240h110z" />
    <glyph glyph-name="h" unicode="h" horiz-adv-x="487" 
d="M453 549v-550h-158v395h-110v-395h-77q-15 0 -29 6t-25 17q-24 22 -24 55v564q0 32 24 55q11 11 25 17t29 6h77v-170h268z" />
    <glyph glyph-name="i" unicode="i" horiz-adv-x="242" 
d="M198 76q0 -32 -23 -55t-55 -23h-77v552h155v-474zM43 747h155v-155h-155v155z" />
    <glyph glyph-name="j" unicode="j" horiz-adv-x="269" 
d="M213 -114q0 -31 -22 -55q-25 -23 -56 -23h-232v155h155v587h155v-664zM58 747h155v-155h-155v155z" />
    <glyph glyph-name="k" unicode="k" horiz-adv-x="539" 
d="M332 275l183 -277h-165l-108 163l-58 -57v-106h-155v697h155v-395l166 251h165z" />
    <glyph glyph-name="l" unicode="l" horiz-adv-x="306" 
d="M192 153h88v-155h-165q-32 0 -55 23t-23 55v666h155v-589z" />
    <glyph glyph-name="m" unicode="m" horiz-adv-x="784" 
d="M655 556q31 0 56 -23q11 -11 17 -25t6 -30v-479h-156v402h-112v-402h-155v402h-113v-402h-154v557h611v0z" />
    <glyph glyph-name="n" unicode="n" horiz-adv-x="584" 
d="M462 556q32 0 55 -23t23 -55v-479h-155v402h-193v-402h-155v557h425v0z" />
    <glyph glyph-name="o" unicode="o" horiz-adv-x="548" 
d="M433 556q32 0 55 -23t23 -55v-401q0 -32 -23 -55t-55 -23h-314q-33 0 -54 23q-24 24 -24 55v401q0 31 24 55q11 11 25 17t29 6h314zM356 401h-160v-247h160v247z" />
    <glyph glyph-name="p" unicode="p" horiz-adv-x="552" 
d="M514 77q0 -32 -23 -55q-21 -23 -53 -23h-246v-133h-77q-32 0 -55 23t-23 55v534q0 32 23 55t55 23h399v-479zM359 401h-167v-247h167v247z" />
    <glyph glyph-name="q" unicode="q" horiz-adv-x="542" 
d="M436 556q32 0 55 -23t23 -55v-534q0 -32 -23 -55t-55 -23h-77v133h-246q-32 0 -53 23q-23 23 -23 55v479h399zM192 154h167v247h-167v-247z" />
    <glyph glyph-name="r" unicode="r" horiz-adv-x="423" 
d="M313 556q32 0 55 -23t23 -55v-77h-197v-402h-155v557h274v0z" />
    <glyph glyph-name="s" unicode="s" horiz-adv-x="490" 
d="M384 556q32 0 55 -23t23 -55v-77h-277v-43h277v-281q0 -32 -23 -55t-55 -23h-354v155h277v49h-277v353h354v0z" />
    <glyph glyph-name="t" unicode="t" horiz-adv-x="377" 
d="M269 556h81v-155h-81v-402h-77q-32 0 -55 23t-23 55v324h-81v155h81v85q0 32 23 55t55 23h77v-163z" />
    <glyph glyph-name="u" unicode="u" horiz-adv-x="503" 
d="M116 -1q-32 0 -55 23t-23 55v479h155v-402h122v402h155v-557h-354z" />
    <glyph glyph-name="v" unicode="v" horiz-adv-x="590" 
d="M429 76q-4 -16 -8 -30t-15 -25q-23 -23 -55 -23h-166l-13 58l-5 20l-131 480h158l104 -416l104 416h158z" />
    <glyph glyph-name="w" unicode="w" horiz-adv-x="881" 
d="M755 76q-4 -16 -8 -30t-15 -25q-23 -23 -55 -23h-167l-13 58l-5 20l-52 192l-53 -192q-4 -16 -8 -30t-15 -25q-23 -23 -55 -23h-166l-13 58l-5 20l-131 480h178l84 -356l94 356h179l94 -356l85 356h178z" />
    <glyph glyph-name="x" unicode="x" horiz-adv-x="540" 
d="M346 274l159 -274h-130q-25 0 -44 19q-9 9 -17 21.5t-15 22.5l-31 63l-31 -63q-7 -10 -14.5 -22.5t-16.5 -21.5q-19 -19 -45 -19h-130l159 274l-159 282h163l74 -137l76 137h161z" />
    <glyph glyph-name="y" unicode="y" horiz-adv-x="477" 
d="M271 -56l-12 -26q-5 -9 -9 -16.5t-8 -12.5q-23 -23 -55 -23h-120l67 222l-114 468h148l65 -273l107 273h148z" />
    <glyph glyph-name="z" unicode="z" horiz-adv-x="500" 
d="M461 401l-245 -247h245v-77q0 -32 -23 -55t-55 -23h-354v155l244 247h-244v155h354q32 0 55 -23t23 -55v-77z" />
    <glyph glyph-name="braceleft" unicode="{" horiz-adv-x="360" 
d="M235 516q0 -26 -2.5 -47t-10 -37t-21.5 -28t-37 -20q23 -8 37 -20t21.5 -28.5t10 -37t2.5 -46.5v-154q0 -15 3 -32.5t11 -32t22.5 -24.5t36.5 -10h52v-33h-175q-36 0 -57 13t-32.5 32.5t-15.5 41t-4 38.5v146q0 18 -2.5 37.5t-9.5 36t-19 29.5t-31 19v50q19 6 31 19
t19 29.5t9.5 36t2.5 38.5v145q0 17 4 38.5t15.5 41t32.5 32.5t57 13h175v-33h-52q-22 0 -36.5 -10t-22.5 -24.5t-11 -32t-3 -32.5v-154z" />
    <glyph glyph-name="bar" unicode="|" horiz-adv-x="274" 
d="M45 761h183v-919h-183v919z" />
    <glyph glyph-name="braceright" unicode="}" horiz-adv-x="368" 
d="M129 670q0 15 -3 32.5t-11 32t-22.5 24.5t-36.5 10h-52v33h175q36 0 57 -13t32.5 -32.5t15.5 -41t4 -38.5v-145q0 -19 2.5 -38.5t9.5 -36t19 -29.5t31 -19v-50q-19 -6 -31 -19t-19 -29.5t-9.5 -36t-2.5 -37.5v-146q0 -17 -4 -38.5t-15.5 -41t-32.5 -32.5t-57 -13h-175v33
h52q22 0 36.5 10t22.5 24.5t11 32t3 32.5v154q0 26 2.5 46.5t10 37t21.5 28.5t37 20q-23 8 -37 20t-21.5 28t-10 37t-2.5 47v154z" />
    <glyph glyph-name="asciitilde" unicode="~" horiz-adv-x="787" 
d="M507 258q-44 0 -85 12.5t-77 38.5q-23 16 -48.5 21t-50.5 0.5t-47.5 -18.5t-38.5 -36l-125 87q32 48 79.5 78t104.5 40q57 11 111 -1.5t102 -44.5q22 -16 48 -21t51 -0.5t47 18t38 36.5l126 -88q-33 -47 -80 -77t-104 -41q-23 -4 -51 -4z" />
    <glyph glyph-name="exclamdown" unicode="&#xa1;" horiz-adv-x="302" 
d="M117 635q0 14 10 24t24 10t24.5 -10t10.5 -24t-10.5 -24.5t-24.5 -10.5t-24 10.5t-10 24.5zM181 -53q0 -14 -14 -14h-31q-14 0 -14 14l10 537q0 14 14 14h11q14 0 14 -14z" />
    <glyph glyph-name="cent" unicode="&#xa2;" 
d="M354 27q-36 21 -62.5 52t-44.5 69.5t-27 82.5t-9 91q0 64 16.5 123.5t50 104.5t85 72t120.5 27q39 0 74 -10.5t64 -28.5l43 94l26 -10l-46 -99q35 -28 56 -64t24 -74h-36q-3 32 -18 60t-39 49l-241 -523q41 -19 93 -19q45 0 80 17t60.5 45.5t41 66t20.5 77.5h38
q-5 -50 -23 -93.5t-48.5 -75t-73 -49.5t-94.5 -18q-30 0 -57 5.5t-50 15.5l-47 -103l-23 11zM248 322q0 -34 6 -72t20 -74.5t37 -68t56 -52.5l242 528q-26 17 -58 27t-67 10q-69 0 -114.5 -29.5t-72.5 -73.5t-38 -96.5t-11 -98.5z" />
    <glyph glyph-name="cent" unicode="&#xffe0;" 
d="M354 27q-36 21 -62.5 52t-44.5 69.5t-27 82.5t-9 91q0 64 16.5 123.5t50 104.5t85 72t120.5 27q39 0 74 -10.5t64 -28.5l43 94l26 -10l-46 -99q35 -28 56 -64t24 -74h-36q-3 32 -18 60t-39 49l-241 -523q41 -19 93 -19q45 0 80 17t60.5 45.5t41 66t20.5 77.5h38
q-5 -50 -23 -93.5t-48.5 -75t-73 -49.5t-94.5 -18q-30 0 -57 5.5t-50 15.5l-47 -103l-23 11zM248 322q0 -34 6 -72t20 -74.5t37 -68t56 -52.5l242 528q-26 17 -58 27t-67 10q-69 0 -114.5 -29.5t-72.5 -73.5t-38 -96.5t-11 -98.5z" />
    <glyph glyph-name="sterling" unicode="&#xa3;" 
d="M743 109q-8 -35 -19 -62.5t-27.5 -46.5t-39.5 -28.5t-56 -9.5t-79.5 31t-98.5 73q-3 -20 -13 -40t-26.5 -36t-38.5 -25.5t-49 -9.5q-45 0 -72 25.5t-27 71.5q0 45 31.5 71t79.5 26q21 0 40 -5t39 -16q0 16 -1.5 36t-4.5 41t-7 40.5t-8 35.5h-151v36h140l-13 39
q-7 21 -12.5 43.5t-9 45t-3.5 42.5q0 85 53 132.5t144 47.5q37 0 69 -12.5t55.5 -36.5t37 -59.5t13.5 -82.5h-38q0 33 -8.5 62t-25.5 50.5t-44 34t-64 12.5q-29 0 -56.5 -8.5t-49 -26.5t-35 -47t-13.5 -69q0 -37 12.5 -78t28.5 -89h307v-36h-296q11 -48 16.5 -93.5
t2.5 -81.5q20 -15 43 -34t46.5 -36.5t45.5 -29t40 -11.5q17 0 33.5 3t31 15.5t26 37.5t19.5 68zM387 85q-19 14 -38.5 23.5t-47.5 9.5q-26 0 -48.5 -19t-22.5 -48t18 -46.5t48 -17.5q18 0 34.5 4.5t29 16t20 30t7.5 47.5z" />
    <glyph glyph-name="sterling" unicode="&#xffe1;" 
d="M743 109q-8 -35 -19 -62.5t-27.5 -46.5t-39.5 -28.5t-56 -9.5t-79.5 31t-98.5 73q-3 -20 -13 -40t-26.5 -36t-38.5 -25.5t-49 -9.5q-45 0 -72 25.5t-27 71.5q0 45 31.5 71t79.5 26q21 0 40 -5t39 -16q0 16 -1.5 36t-4.5 41t-7 40.5t-8 35.5h-151v36h140l-13 39
q-7 21 -12.5 43.5t-9 45t-3.5 42.5q0 85 53 132.5t144 47.5q37 0 69 -12.5t55.5 -36.5t37 -59.5t13.5 -82.5h-38q0 33 -8.5 62t-25.5 50.5t-44 34t-64 12.5q-29 0 -56.5 -8.5t-49 -26.5t-35 -47t-13.5 -69q0 -37 12.5 -78t28.5 -89h307v-36h-296q11 -48 16.5 -93.5
t2.5 -81.5q20 -15 43 -34t46.5 -36.5t45.5 -29t40 -11.5q17 0 33.5 3t31 15.5t26 37.5t19.5 68zM387 85q-19 14 -38.5 23.5t-47.5 9.5q-26 0 -48.5 -19t-22.5 -48t18 -46.5t48 -17.5q18 0 34.5 4.5t29 16t20 30t7.5 47.5z" />
    <glyph glyph-name="currency" unicode="&#xa4;" horiz-adv-x="838" 
d="M42 -16l120 106q-37 42 -55 96t-18 114q0 57 16.5 108.5t50.5 94.5l-109 96l20 19l106 -97q47 51 108 75.5t130 24.5q72 0 135 -29t109 -79l118 103l20 -18l-120 -106q31 -41 45.5 -89.5t14.5 -103.5q0 -56 -16 -107t-50 -93l118 -107l-16 -18l-120 104
q-45 -46 -106 -73.5t-132 -27.5q-69 0 -127.5 25.5t-103.5 68.5l-121 -108zM411 592q-61 0 -114.5 -22.5t-93 -61.5t-62 -92.5t-22.5 -115.5q0 -59 22 -112.5t61 -94t92.5 -64t116.5 -23.5q62 0 115.5 23.5t93 64t62 93.5t22.5 112q0 61 -23 114.5t-63 93.5t-93 62.5
t-114 22.5z" />
    <glyph glyph-name="yen" unicode="&#xa5;" 
d="M739 219h-247v-258h-44v258h-247v28h245l-77 131h-168v28h151l-154 257h46l152 -257h147l153 257h46l-154 -257h151v-28h-168l-77 -131h245v-28zM414 378l56 -96l56 96h-112z" />
    <glyph glyph-name="yen" unicode="&#xffe5;" 
d="M739 219h-247v-258h-44v258h-247v28h245l-77 131h-168v28h151l-154 257h46l152 -257h147l153 257h46l-154 -257h151v-28h-168l-77 -131h245v-28zM414 378l56 -96l56 96h-112z" />
    <glyph glyph-name="section" unicode="&#xa7;" horiz-adv-x="346" 
d="M243 318q-38 50 -68 71t-62 21q-23 0 -32.5 -14t-9.5 -34.5t9 -43t24 -40.5q36 -47 67 -68t51 -21q28 0 39.5 14.5t11.5 34.5t-9 42.5t-21 37.5zM311 254q0 -42 -20 -64t-58 -21q29 -32 42 -65.5t13 -72.5q0 -63 -33.5 -99.5t-88.5 -36.5q-52 0 -86.5 28.5t-34.5 76.5h46
q0 -18 6.5 -32t17 -23t24 -13.5t26.5 -4.5q29 0 49 20t20 63q0 35 -12 72.5t-42 64.5q-24 22 -49.5 45.5t-47 47.5t-35 49.5t-13.5 51.5q0 49 23.5 72t69.5 16q-32 29 -51.5 69.5t-19.5 83.5q0 66 31.5 96.5t85.5 30.5t84 -29t30 -71h-45q0 32 -19.5 53t-53.5 21
q-30 0 -49.5 -20t-19.5 -58q0 -42 15.5 -78.5t53.5 -72.5q23 -22 48 -46t45.5 -49t34 -51.5t13.5 -53.5z" />
    <glyph glyph-name="dieresis" unicode="&#xa8;" horiz-adv-x="540" 
d="M88 657q0 19 13.5 33t31.5 14q19 0 33 -14t14 -33t-14 -32t-33 -13q-18 0 -31.5 13t-13.5 32zM356 657q0 19 13.5 33t31.5 14q19 0 33 -14t14 -33t-14 -32t-33 -13q-18 0 -31.5 13t-13.5 32z" />
    <glyph glyph-name="copyright" unicode="&#xa9;" horiz-adv-x="855" 
d="M635 216q-5 -40 -23 -76t-45.5 -63t-63.5 -43t-76 -16q-58 0 -101.5 22.5t-72.5 60t-43.5 87.5t-14.5 106q0 55 14 105t43 88t72.5 60.5t102.5 22.5q39 0 74.5 -12t63 -34.5t45 -53.5t21.5 -70h-40q-14 61 -55 98.5t-109 37.5q-49 0 -85 -21t-59 -55.5t-34.5 -78
t-11.5 -87.5q0 -43 11.5 -86t34.5 -77.5t59 -56t85 -21.5q29 0 58 13.5t52.5 36t39.5 52t19 61.5h39zM786 298q0 77 -26.5 142.5t-74 113t-113 74t-143.5 26.5q-77 0 -142 -26.5t-112 -74t-74 -113t-27 -142.5t27 -142.5t74 -113t112 -74t142 -26.5q78 0 143.5 26.5t113 74
t74 113t26.5 142.5zM826 298q0 -86 -30 -158.5t-83 -125t-126 -82t-158 -29.5t-157.5 29.5t-125.5 82t-83 125t-30 158.5t30 158.5t83 125t125.5 82t157.5 29.5t158 -29.5t126 -82t83 -125t30 -158.5z" />
    <glyph glyph-name="ordfeminine" unicode="&#xaa;" horiz-adv-x="541" 
d="M420 394q-3 0 -8 -0.5t-10 -0.5q-32 0 -42 19q-10 18 -6 50q-7 -33 -39 -55q-32 -23 -93 -23q-47 0 -77 20t-30 66q0 31 14 50t38.5 30t57 17.5t70.5 14.5q31 5 45 15.5t14 32.5q0 40 -27 56.5t-72 16.5q-39 0 -66 -21t-29 -59h-31q4 49 40 74t93 25q25 0 47 -4t38.5 -15
t26 -29.5t9.5 -47.5v-184q0 -31 31 -31h6v-17zM354 592q-5 -11 -19 -18.5t-29 -9.5q-40 -8 -70 -14.5t-50 -16.5t-30 -24.5t-10 -37.5q0 -68 83 -68q28 0 51.5 9t39.5 25t25 38t9 47v70zM100 295v30h341v-30h-341z" />
    <glyph glyph-name="guillemotleft" unicode="&#xab;" 
d="M606 -11q-8 -13 -15 -25l-480 317v43l473 328q5 -6 9 -13t9 -13l-466 -324zM827 -12q-4 -6 -8 -12.5t-7 -11.5l-480 317v43l473 328q5 -6 9 -13t9 -13l-466 -324z" />
    <glyph glyph-name="guillemotleft" unicode="&#x226a;" 
d="M606 -11q-8 -13 -15 -25l-480 317v43l473 328q5 -6 9 -13t9 -13l-466 -324zM827 -12q-4 -6 -8 -12.5t-7 -11.5l-480 317v43l473 328q5 -6 9 -13t9 -13l-466 -324z" />
    <glyph glyph-name="logicalnot" unicode="&#xac;" 
d="M901 -160h-28v271h-834v28h862v-299z" />
    <glyph glyph-name="logicalnot" unicode="&#xffe2;" 
d="M901 -160h-28v271h-834v28h862v-299z" />
    <glyph glyph-name="uni00AD" unicode="&#xad;" horiz-adv-x="410" 
d="M59 294v36h292v-36h-292z" />
    <glyph glyph-name="uni00AD" unicode="&#x2013;" horiz-adv-x="410" 
d="M59 294v36h292v-36h-292z" />
    <glyph glyph-name="degree" unicode="&#xb0;" horiz-adv-x="446" 
d="M223 507q-22 0 -41.5 8.5t-34 23t-23 34t-8.5 41.5t8.5 41.5t23 34t34 23t41.5 8.5t41.5 -8.5t34 -23t23 -34t8.5 -41.5t-8.5 -41.5t-23 -34t-34 -23t-41.5 -8.5zM304 614q0 35 -23 58.5t-58 23.5t-58 -23.5t-23 -58.5t23 -58.5t58 -23.5t58 23.5t23 58.5z" />
    <glyph glyph-name="plusminus" unicode="&#xb1;" horiz-adv-x="567" 
d="M53 367q-14 0 -14 14v14q0 14 14 14h209v216q0 14 14 14h14q14 0 14 -14v-216h208q14 0 14 -14v-14q0 -14 -14 -14h-208v-217q0 -14 -14 -14h-14q-14 0 -14 14v217h-209zM53 10q-14 0 -14 14v14q0 14 14 14h459q14 0 14 -14v-14q0 -14 -14 -14h-459z" />
    <glyph glyph-name="uni00B2" unicode="&#xb2;" horiz-adv-x="410" 
d="M281 667q0 -30 -16.5 -49.5t-41.5 -36.5q-26 -18 -40.5 -30.5t-19.5 -28.5h115v-28h-150q5 41 28 64.5t57 46.5q21 14 30.5 28t9.5 34q0 41 -44 41q-23 0 -35 -16.5t-12 -41.5h-29q0 35 21.5 59t56.5 24q32 0 51 -17.5t19 -48.5z" />
    <glyph glyph-name="uni00B3" unicode="&#xb3;" horiz-adv-x="428" 
d="M295 563q0 -32 -23 -51.5t-58 -19.5q-33 0 -57 20.5t-23 58.5h29q-1 -29 15 -41.5t36 -12.5q23 0 38 13t15 33q0 23 -13.5 33t-35.5 10h-17v27h17q17 0 29 10.5t12 29.5q0 17 -12 26t-32 9q-45 0 -48 -52h-28q0 32 21.5 54.5t53.5 22.5t52.5 -16t20.5 -44
q0 -20 -10.5 -35t-30.5 -18q20 -4 34 -19q15 -15 15 -38z" />
    <glyph glyph-name="acute" unicode="&#xb4;" horiz-adv-x="324" 
d="M232 729l-136 -215h-12l90 215h58z" />
    <glyph glyph-name="paragraph" unicode="&#xb6;" horiz-adv-x="605" 
d="M322 338h-50q-36 0 -70.5 10t-61.5 32t-43.5 56.5t-16.5 82.5q0 36 9.5 70.5t32.5 62.5t61.5 45t97.5 17h243v-824h-22v803h-156v-803h-24v448z" />
    <glyph glyph-name="periodcentered" unicode="&#xb7;" horiz-adv-x="290" 
d="M105 331q0 17 11.5 29t27.5 12q17 0 29 -12t12 -29t-12 -28t-29 -11q-16 0 -27.5 11t-11.5 28z" />
    <glyph glyph-name="periodcentered" unicode="&#x30fb;" horiz-adv-x="290" 
d="M105 331q0 17 11.5 29t27.5 12q17 0 29 -12t12 -29t-12 -28t-29 -11q-16 0 -27.5 11t-11.5 28z" />
    <glyph glyph-name="cedilla" unicode="&#xb8;" horiz-adv-x="317" 
d="M256 -121q0 -39 -30.5 -58t-82.5 -19q-23 0 -46 8.5t-36 17.5l12 25q14 -9 31 -14t42 -5q13 0 26.5 1.5t24 6t17.5 12.5t7 22q0 15 -7 23.5t-18 12.5t-25 3.5t-28 -2.5t-22.5 -3.5t-15.5 -4.5l-7 4l40 103h32l-30 -77q11 5 22 8.5t28 3.5q29 0 47.5 -20.5t18.5 -47.5z
" />
    <glyph glyph-name="uni00B9" unicode="&#xb9;" horiz-adv-x="405" 
d="M213 496v172h-49v21q24 2 37 11t16 30h24v-234h-28z" />
    <glyph glyph-name="ordmasculine" unicode="&#xba;" horiz-adv-x="541" 
d="M391 540q0 32 -9 59t-25.5 47t-39 31.5t-50.5 11.5q-27 0 -50 -11.5t-39 -31.5t-25 -47t-9 -59t9 -59t25 -47t39 -31.5t50 -11.5q28 0 50.5 11.5t39 31.5t25.5 47t9 59zM100 295v30h341v-30h-341zM415 540q0 -35 -10.5 -66t-29.5 -54t-46.5 -36.5t-61.5 -13.5t-61 13.5
t-46.5 36.5t-30 54t-10.5 66t10.5 66t30 54t46.5 36.5t61 13.5t61.5 -13.5t46.5 -36.5t29.5 -54t10.5 -66z" />
    <glyph glyph-name="guillemotright" unicode="&#xbb;" 
d="M806 302l-466 324l18 26l473 -328v-43l-480 -317l-14 25zM585 302l-466 324l18 26l473 -328v-43l-480 -317l-14 25z" />
    <glyph glyph-name="guillemotright" unicode="&#x226b;" 
d="M806 302l-466 324l18 26l473 -328v-43l-480 -317l-14 25zM585 302l-466 324l18 26l473 -328v-43l-480 -317l-14 25z" />
    <glyph glyph-name="onequarter" unicode="&#xbc;" horiz-adv-x="737" 
d="M549 184l-110 -155h110v155zM593 -13v-90h-44v90h-162v42l165 229h41v-229h59v-42h-59zM111 9l-26 24l538 562l27 -24zM180 347v248h-71v34q19 1 32.5 4.5t22.5 12t14.5 23.5t8.5 38h36v-360h-43z" />
    <glyph glyph-name="onehalf" unicode="&#xbd;" horiz-adv-x="705" 
d="M396 -106q1 33 11 55.5t26.5 40.5t38 32.5t44.5 30.5q14 9 25.5 18.5t22.5 20.5q14 14 21 27.5t7 33.5q0 30 -20.5 46.5t-49.5 16.5q-39 0 -56 -26.5t-17 -68.5h-43q-2 60 27 97t89 37q48 0 80.5 -25.5t32.5 -76.5q0 -28 -11 -49.5t-28 -39t-38 -31.5t-41 -28
q-20 -13 -41 -30t-29 -40h191v-41h-242zM94 9l-27 24l538 562l28 -24zM168 347v248h-72v34q19 1 32.5 4.5t22.5 12t14.5 23.5t8.5 38h37v-360h-43z" />
    <glyph glyph-name="threequarters" unicode="&#xbe;" horiz-adv-x="746" 
d="M554 182l-110 -155h110v155zM598 -15v-90h-44v90h-162v42l165 229h41v-229h59v-42h-59zM129 9l-26 24l538 562l27 -24zM321 454q0 -27 -10 -47.5t-27 -34.5t-39 -21.5t-46 -7.5q-55 0 -90.5 32.5t-30.5 95.5h43q-2 -42 18.5 -66.5t58.5 -24.5q32 0 56 19t24 52
q0 32 -21 49t-53 17h-32v40h32q22 0 42 13.5t20 42.5t-19.5 43.5t-48.5 14.5q-35 0 -53.5 -22.5t-16.5 -64.5h-42q0 57 29 91.5t83 34.5q21 0 40.5 -5.5t35 -17.5t25 -29.5t9.5 -41.5q0 -25 -10.5 -45t-31.5 -31q26 -11 40.5 -33.5t14.5 -52.5z" />
    <glyph glyph-name="questiondown" unicode="&#xbf;" horiz-adv-x="540" 
d="M92 118q0 60 28 107q16 28 64 79q23 24 40 44.5t27 37.5q14 23 19.5 56t5.5 60q0 11 1.5 13t11.5 2h21q10 0 11.5 -1.5t1.5 -12.5q0 -32 -7 -68.5t-21 -61.5q-9 -16 -24 -36t-38 -43q-23 -24 -41 -44t-28 -37q-23 -40 -23 -95q0 -30 10 -57.5t30 -47.5t50 -32t70 -10
q26 1 59.5 6t75.5 19q16 4 16 -9l1 -21q0 -14 -13 -17q-40 -10 -75.5 -15.5t-67.5 -5.5q-45 0 -82.5 12t-64.5 36t-42.5 59.5t-15.5 82.5zM334 635q0 -14 -10 -24.5t-24 -10.5t-24.5 10.5t-10.5 24.5t10.5 24t24.5 10t24 -10t10 -24z" />
    <glyph glyph-name="Eth" unicode="&#xd0;" horiz-adv-x="794" 
d="M686 317q0 172 -78.5 250t-240.5 78h-147v-278h137v-30h-137v-348h147q81 0 141 19t99.5 59t59 102t19.5 148zM722 317q0 -87 -22 -153.5t-63 -111.5t-100 -68t-133 -23h-219v376h-113v30h113v306h219q74 0 133 -22.5t100 -67.5t63 -111.5t22 -154.5z" />
    <glyph glyph-name="multiply" unicode="&#xd7;" horiz-adv-x="592" 
d="M494 532q9 9 19 0l10 -10q9 -9 0 -20l-195 -195l195 -195q10 -10 0 -20l-10 -9q-10 -11 -19 0l-196 194l-195 -194q-10 -11 -19 0l-10 9q-10 10 0 20l195 195l-195 195q-9 11 0 20l10 10q9 9 19 0l195 -196z" />
    <glyph glyph-name="Oslash" unicode="&#xd8;" horiz-adv-x="780" 
d="M552 601q-33 29 -74.5 44t-87.5 15q-62 0 -114 -26t-90 -71.5t-59 -108.5t-21 -137q0 -92 30 -165.5t85 -119.5zM674 317q0 87 -28 157.5t-78 117.5l-331 -570q32 -23 69.5 -35.5t83.5 -12.5q60 0 112 26t90.5 72t60 108.5t21.5 136.5zM709 317q0 -91 -25 -160t-68 -116
t-101.5 -71t-124.5 -24q-49 0 -91.5 12.5t-78.5 34.5l-76 -128l-13 11l74 128q-64 47 -99 124.5t-35 188.5q0 90 24 159t67 116.5t101.5 71.5t126.5 24q104 0 180 -56l61 104l16 -9l-62 -104q57 -48 90.5 -124t33.5 -182z" />
    <glyph glyph-name="Thorn" unicode="&#xde;" horiz-adv-x="530" 
d="M399 316q0 59 -24.5 101.5t-62.5 70.5t-86 41t-94 13v-452q45 -1 92 12.5t86 41t63.5 70.5t24.5 102h1zM433 316q0 -63 -25.5 -110.5t-67.5 -79t-96 -47.5t-111 -15v-103h-36v712h35v-105q57 0 111 -15.5t96 -47.5t68 -79t26 -110z" />
    <glyph glyph-name="germandbls" unicode="&#xdf;" horiz-adv-x="683" 
d="M535 494q0 80 -41.5 115.5t-130.5 35.5h-260v-300h260q45 0 77.5 13t53.5 34.5t31 48t10 53.5zM615 132q0 -70 -22 -113.5t-57.5 -68t-79.5 -33t-88 -8.5q-46 0 -85 9t-67.5 29t-45 52t-17.5 78h38q1 -40 17 -65.5t41 -40.5t57 -20.5t66 -5.5q37 0 73.5 6.5t66 26.5
t48 58.5t18.5 101.5q0 35 -15.5 67.5t-44 57.5t-68 40t-87.5 15h-261v-356h-35v710h296q43 0 80.5 -7.5t65.5 -27t44.5 -53t16.5 -85.5q0 -60 -34.5 -105t-99.5 -55q39 -2 71.5 -21.5t56.5 -48.5t37.5 -65t13.5 -72z" />
    <glyph glyph-name="eth" unicode="&#xf0;" horiz-adv-x="592" 
d="M530 223q0 -59 -15 -109.5t-44.5 -87.5t-73 -58t-101.5 -21t-102 22t-73.5 59.5t-44.5 87t-15 105.5q0 55 15 105t44.5 87.5t73.5 59.5t102 22q46 0 84.5 -14t69.5 -37q-17 48 -43.5 83t-55.5 67q-16 -15 -33 -33t-33 -33l-14 14q7 6 13 12t13 12l-2 -1q9 9 19.5 20
t20.5 20q-15 14 -34.5 26t-39.5 26q3 5 6 12t6 12q23 -13 44 -26t41 -29l55 55l7 -7q4 -4 6 -7l-53 -53q81 -80 119 -173t38 -218zM501 221q0 52 -15 98t-42.5 80t-65 53.5t-82.5 19.5q-46 0 -83.5 -19.5t-64.5 -53.5t-42 -80t-15 -98q0 -53 14.5 -98.5t41.5 -79.5t65 -53.5
t84 -19.5q45 0 83 19.5t65 53.5t42 79.5t15 98.5z" />
    <glyph glyph-name="divide" unicode="&#xf7;" horiz-adv-x="650" 
d="M610 306q0 -11 -1.5 -12.5t-12.5 -1.5h-543q-11 0 -12.5 1.5t-1.5 12.5v8q0 11 1.5 12.5t12.5 1.5h543q11 0 12.5 -1.5t1.5 -12.5v-8zM323 557q17 0 29 -11.5t12 -27.5q0 -17 -12 -29t-29 -12t-28 12t-11 29q0 16 11 27.5t28 11.5zM323 145q17 0 29 -11.5t12 -27.5
q0 -17 -12 -29t-29 -12t-28 12t-11 29q0 16 11 27.5t28 11.5z" />
    <glyph glyph-name="oslash" unicode="&#xf8;" horiz-adv-x="612" 
d="M395 445q-23 11 -43 16.5t-46 5.5q-46 0 -83.5 -19t-64.5 -53t-42 -79.5t-15 -97.5q0 -68 23 -122.5t66 -88.5zM511 218q0 71 -24 125t-67 88l-205 -440q44 -22 91 -22q45 0 83 19t65 53t42 79t15 98zM541 218q0 -56 -16 -105t-46 -86.5t-73.5 -59t-99.5 -21.5
q-27 0 -52.5 5.5t-48.5 16.5l-37 -79l-28 12l39 82q-54 37 -81 98.5t-27 136.5q0 55 16 104.5t46 87t73.5 59t99.5 21.5q59 0 99 -22l32 69l28 -12l-34 -71q54 -36 82 -97.5t28 -138.5z" />
    <glyph glyph-name="thorn" unicode="&#xfe;" horiz-adv-x="599" 
d="M477 218q0 52 -15 97.5t-42.5 79t-65 52.5t-82.5 19q-90 0 -150 -71v-353q28 -38 64.5 -55t83.5 -17q46 0 83.5 19t65 52.5t42.5 78.5t16 98zM507 218q0 -56 -16 -105t-46 -86t-73.5 -58.5t-99.5 -21.5q-42 0 -80.5 11t-67.5 43v-138h-32v809h30v-235q26 26 66 39t82 13
q56 0 100 -21.5t74.5 -58.5t46.5 -86.5t16 -104.5z" />
    <glyph glyph-name="dcroat" unicode="&#x111;" horiz-adv-x="663" 
d="M483 220q0 40 -11.5 84.5t-36.5 81t-65 60.5t-97 24q-52 0 -88 -24t-58.5 -60.5t-33 -81t-10.5 -84.5q0 -41 10.5 -85t33 -81t58.5 -61t88 -24q61 0 101.5 24t64.5 61t34 81t10 85zM513 557v-596h-30v137q-9 -37 -28.5 -65t-47.5 -47.5t-61 -29.5t-69 -10q-59 0 -101 23
t-69.5 61t-40.5 87.5t-13 102.5q0 48 13 96.5t40 87.5t69.5 64t102.5 25q32 0 63.5 -10t58.5 -29.5t48.5 -47t34.5 -61.5v212h-101v27h101v89h30v-89h97v-27h-97z" />
    <glyph glyph-name="Hbar" unicode="&#x126;" horiz-adv-x="783" 
d="M626 508h-469v-157h469v157zM662 508v-547h-36v363h-469v-363h-36v547h-45v30h45v135h36v-135h469v135h36v-135h45v-30h-45z" />
    <glyph glyph-name="hbar" unicode="&#x127;" horiz-adv-x="653" 
d="M509 -39v334q0 36 -8.5 68t-27.5 55.5t-48 37.5t-71 14q-39 0 -73.5 -15.5t-60 -42.5t-40.5 -62.5t-15 -75.5v-313h-31v595h-90v26h89v91h30v-91h197v-26h-197v-200q8 30 28 55t46.5 43.5t56.5 28.5t59 10q51 0 86.5 -14.5t57.5 -40t32 -60.5t10 -76v-341h-30z" />
    <glyph glyph-name="dotlessi" unicode="&#x131;" horiz-adv-x="280" 
d="M124 -39v515h32v-515h-32z" />
    <glyph glyph-name="IJ" unicode="&#x132;" horiz-adv-x="685" 
d="M92 -39v712h35v-712h-35zM593 175q0 -121 -48.5 -175.5t-145.5 -54.5q-107 0 -152.5 62.5t-42.5 171.5h37q-4 -103 39 -154t130 -51q71 0 109.5 49t38.5 149v501h35v-498z" />
    <glyph glyph-name="ij" unicode="&#x133;" horiz-adv-x="493" 
d="M142 -39v515h30v-515h-30zM351 -87q0 -50 -18 -81t-67 -31q-11 0 -17.5 0.5t-7.5 -0.5v20q-2 2 3 2.5t11 -0.5q38 -1 52 18t14 64v571h30v-563zM141 593v80h32v-80h-32zM320 593v80h32v-80h-32z" />
    <glyph glyph-name="kgreenlandic" unicode="&#x138;" horiz-adv-x="568" 
d="M455 -39l-224 307l-131 -116v-191h-30v514h30v-285l322 285h51l-216 -187l241 -327h-43z" />
    <glyph glyph-name="Ldot" unicode="&#x13f;" horiz-adv-x="576" 
d="M66 -39v712h36v-684h408v-28h-444zM316 314v80h81v-80h-81z" />
    <glyph glyph-name="ldot" unicode="&#x140;" horiz-adv-x="412" 
d="M91 -39v712h30v-712h-30zM246 318v75h75v-75h-75z" />
    <glyph glyph-name="Lslash" unicode="&#x141;" horiz-adv-x="770" 
d="M245 -39v308l-135 -137l-29 29l164 166v346h36v-311l172 174l28 -29l-200 -202v-316h408v-28h-444z" />
    <glyph glyph-name="lslash" unicode="&#x142;" horiz-adv-x="455" 
d="M244 345v-384h-30v354l-94 -95l-22 21l115 115v317h30v-287l93 92l21 -20z" />
    <glyph glyph-name="napostrophe" unicode="&#x149;" horiz-adv-x="727" 
d="M182 510q0 -21 -7 -41.5t-19.5 -37t-28.5 -27.5t-34 -15v28q29 11 46 35.5t17 62.5h-63v95h88v-100h1zM604 -39v332q0 81 -37.5 127.5t-118.5 46.5q-39 0 -73.5 -16t-60 -43t-40 -63.5t-14.5 -77.5v-306h-32v514h31v-120q7 30 27 54.5t46 42.5t57 28t61 10q51 0 86 -14.5
t57 -39.5t31.5 -59t9.5 -74v-342h-30z" />
    <glyph glyph-name="Eng" unicode="&#x14a;" horiz-adv-x="705" 
d="M624 -29q0 -34 -7.5 -64.5t-26 -54t-48.5 -37.5t-75 -14q-82 0 -119 40.5t-37 116.5h43q0 -34 8.5 -57t23.5 -37.5t36 -20.5t45 -6q53 0 83 33.5t30 84.5l-463 666v-660h-36v712h50l457 -661v661h36v-702z" />
    <glyph glyph-name="eng" unicode="&#x14b;" horiz-adv-x="619" 
d="M500 -70q0 -51 -38 -84t-109 -33q-20 0 -43.5 6t-43.5 21.5t-35 41.5t-19 67h35q3 -60 34 -83.5t79 -23.5q19 0 38 3.5t35 13.5t26 27t10 44v363q0 81 -31.5 127.5t-112.5 46.5q-39 0 -71 -16t-55.5 -43t-36 -63.5t-12.5 -77.5v-306h-31v514h31v-120q7 30 25 54.5
t42 42.5t53 28t59 10q51 0 84 -14.5t52.5 -39.5t27 -59t7.5 -74v-373z" />
    <glyph glyph-name="Tbar" unicode="&#x166;" horiz-adv-x="649" 
d="M341 645v-320h150v-30h-150v-334h-35v334h-156v30h156v320h-245v28h527v-28h-247z" />
    <glyph glyph-name="tbar" unicode="&#x167;" horiz-adv-x="440" 
d="M339 -46q-8 1 -19 0t-25 -1q-57 0 -76 22.5t-19 79.5v241h-84v27h84v105h-86v34h85v168h33v-168h94v-34h-94v-105h91v-27h-91v-242q0 -44 14 -61t52 -16q14 2 25 2t16 -1v-24z" />
    <glyph glyph-name="caron" unicode="&#x2c7;" horiz-adv-x="514" 
d="M257 590l-204 103l17 29l187 -92l187 92l17 -29z" />
    <glyph glyph-name="uni02D0" unicode="&#x2d0;" 
d="M395 103l74 75l75 -75h-149zM469 423l-75 76h150z" />
    <glyph glyph-name="uni02D0" unicode="&#x2236;" 
d="M395 103l74 75l75 -75h-149zM469 423l-75 76h150z" />
    <glyph glyph-name="breve" unicode="&#x2d8;" horiz-adv-x="516" 
d="M466 700q-39 -60 -89 -85t-119 -25t-119 26t-89 84l30 19q34 -49 76 -71.5t102 -22.5t102.5 22.5t75.5 71.5z" />
    <glyph glyph-name="dotaccent" unicode="&#x2d9;" horiz-adv-x="254" 
d="M186 617q0 -26 -16.5 -42t-42.5 -16t-42.5 16t-16.5 42t16.5 42.5t42.5 16.5t42.5 -16.5t16.5 -42.5z" />
    <glyph glyph-name="ring" unicode="&#x2da;" horiz-adv-x="320" 
d="M160 512q-22 0 -41.5 8.5t-34 23t-23 34t-8.5 41.5t8.5 41.5t23 34t34 23t41.5 8.5t41.5 -8.5t34 -23t23 -34t8.5 -41.5t-8.5 -41.5t-23 -34t-34 -23t-41.5 -8.5zM241 619q0 35 -23 58.5t-58 23.5t-58 -23.5t-23 -58.5t23 -58.5t58 -23.5t58 23.5t23 58.5z" />
    <glyph glyph-name="ogonek" unicode="&#x2db;" horiz-adv-x="298" 
d="M233 -122q-21 -29 -44.5 -48.5t-54.5 -19.5q-35 0 -52 21t-17 49q0 23 18 49t53 51l16 -16q-22 -21 -39 -41.5t-17 -46.5q0 -14 9.5 -25t23.5 -11q31 0 51.5 18t34.5 34z" />
    <glyph glyph-name="tilde" unicode="&#x2dc;" horiz-adv-x="900" 
d="M698 672q-35 -31 -71.5 -46t-81.5 -15q-29 0 -53.5 8.5t-52.5 27.5q-23 14 -42 20.5t-45 6.5q-42 0 -73 -9.5t-63 -35.5l-14 14q33 31 72.5 49t76.5 18q29 0 53.5 -8.5t46.5 -22.5q23 -14 46 -23t47 -9q38 0 71.5 8t66.5 31z" />
    <glyph glyph-name="hungarumlaut" unicode="&#x2dd;" horiz-adv-x="468" 
d="M222 729l-136 -215h-12l90 215h58zM393 729l-136 -215h-12l90 215h58z" />
    <glyph glyph-name="Alpha" unicode="&#x391;" horiz-adv-x="714" 
d="M200 220l-103 -263h-28l277 717h25l273 -717h-28l-103 263h-313zM505 248l-99 258q-14 34 -26 67.5t-22 55.5q-10 -23 -22 -57.5t-25 -66.5l-98 -257h292z" />
    <glyph glyph-name="Beta" unicode="&#x392;" horiz-adv-x="680" 
d="M609 161q0 -52 -18 -89.5t-50 -62t-76.5 -36.5t-97.5 -12h-296v712h296q43 0 82 -7.5t69 -27t47.5 -53t17.5 -85.5q0 -30 -10 -57t-29 -48.5t-45 -36t-58 -19.5q38 -3 69 -17t53 -38t34 -55.5t12 -67.5zM573 153q0 84 -54.5 125t-151.5 41h-260v-330h260q40 0 77.5 8.5
t66 28t45.5 51t17 76.5zM547 495q0 75 -45.5 112.5t-134.5 37.5h-260v-300h260q45 0 78.5 13.5t56 34.5t34 48t11.5 54z" />
    <glyph glyph-name="Gamma" unicode="&#x393;" horiz-adv-x="620" 
d="M110 645v-684h-35v712h470v-28h-435z" />
    <glyph glyph-name="uni0394" unicode="&#x394;" horiz-adv-x="734" 
d="M367 635l-241 -645h482zM80 -39l268 712h38l268 -712h-574z" />
    <glyph glyph-name="Epsilon" unicode="&#x395;" horiz-adv-x="593" 
d="M61 -39v712h464v-28h-428v-300h404v-27h-404v-329h435v-28h-471z" />
    <glyph glyph-name="Zeta" unicode="&#x396;" horiz-adv-x="655" 
d="M61 -39v40l495 644h-464v28h496v-41l-501 -643h507v-28h-533z" />
    <glyph glyph-name="Eta" unicode="&#x397;" horiz-adv-x="663" 
d="M566 -39v363h-469v-363h-36v712h36v-322h469v322h36v-712h-36z" />
    <glyph glyph-name="Theta" unicode="&#x398;" horiz-adv-x="760" 
d="M176 302v36h402v-36h-402zM662 317q0 74 -21.5 136.5t-59 108t-89.5 71t-112 25.5q-62 0 -113.5 -25.5t-89 -71t-58.5 -108t-21 -136.5t20.5 -136.5t58 -108t89 -71t114.5 -25.5q60 0 112 25.5t89.5 71.5t59 108t21.5 136zM699 317q0 -91 -25 -160t-68 -116t-101.5 -71
t-124.5 -24q-68 0 -126.5 24.5t-101.5 71.5t-67 116.5t-24 158.5q0 90 24 159t67 116.5t101.5 71.5t126.5 24q66 0 124.5 -24t101.5 -71.5t68 -116.5t25 -159z" />
    <glyph glyph-name="Iota" unicode="&#x399;" horiz-adv-x="245" 
d="M104 -39v712h37v-712h-37z" />
    <glyph glyph-name="Kappa" unicode="&#x39a;" horiz-adv-x="669" 
d="M557 -39l-305 398l-153 -150v-248h-34v712h35v-418l432 418h49l-299 -287l322 -425h-47z" />
    <glyph glyph-name="Lambda" unicode="&#x39b;" horiz-adv-x="714" 
d="M625 -39l-268 704l-268 -704h-38l280 712h52l280 -712h-38z" />
    <glyph glyph-name="Mu" unicode="&#x39c;" horiz-adv-x="812" 
d="M704 -39v686l-275 -686h-46l-275 686v-686h-37v712h66l269 -672l269 672h66v-712h-37z" />
    <glyph glyph-name="Nu" unicode="&#x39d;" horiz-adv-x="685" 
d="M564 -39l-457 660v-660h-36v712h50l457 -661v661h36v-712h-50z" />
    <glyph glyph-name="Xi" unicode="&#x39e;" horiz-adv-x="680" 
d="M52 -39v28h576v-28h-576zM162 316v28h356v-28h-356zM57 645v28h566v-28h-566z" />
    <glyph glyph-name="Omicron" unicode="&#x39f;" horiz-adv-x="760" 
d="M664 317q0 74 -21.5 137t-60 108.5t-90.5 71.5t-112 26q-62 0 -114 -26t-90 -71.5t-59 -108.5t-21 -137t21 -137t58.5 -109t89.5 -71.5t115 -25.5q60 0 112 26t90.5 72t60 108.5t21.5 136.5zM699 317q0 -91 -25 -160t-68 -116t-101.5 -71t-124.5 -24q-68 0 -126.5 24.5
t-101.5 71.5t-67 116.5t-24 158.5q0 90 24 159t67 116.5t101.5 71.5t126.5 24q66 0 124.5 -24t101.5 -71.5t68 -116.5t25 -159z" />
    <glyph glyph-name="Pi" unicode="&#x3a0;" horiz-adv-x="642" 
d="M532 -39v684h-423v-684h-35v712h494v-712h-36z" />
    <glyph glyph-name="Rho" unicode="&#x3a1;" horiz-adv-x="630" 
d="M533 475q0 83 -46.5 126.5t-121.5 43.5h-268v-341h268q37 0 68 11t53 33t34.5 53.5t12.5 73.5zM569 475q0 -44 -14 -80t-39 -62.5t-60 -41t-77 -14.5h-282v-316h-36v712h318q41 0 75.5 -15t60 -41t40 -62.5t14.5 -79.5z" />
    <glyph glyph-name="Sigma" unicode="&#x3a3;" horiz-adv-x="613" 
d="M51 -39v40l264 333l-264 306v33h495v-29h-454l248 -288v-42l-260 -324h482v-29h-511z" />
    <glyph glyph-name="Tau" unicode="&#x3a4;" horiz-adv-x="629" 
d="M331 645v-684h-35v684h-245v28h527v-28h-247z" />
    <glyph glyph-name="Upsilon" unicode="&#x3a5;" horiz-adv-x="692" 
d="M363 260v-299h-35v300l-274 412h42l250 -378l250 378h42z" />
    <glyph glyph-name="Phi" unicode="&#x3a6;" horiz-adv-x="750" 
d="M356 538q-53 -2 -102.5 -17t-87.5 -42.5t-61 -66.5t-23 -90q0 -52 23 -92.5t61 -68.5t87.5 -43.5t102.5 -17.5v438zM668 322q0 51 -23 90t-61 66.5t-87.5 42.5t-102.5 17v-438q53 2 102.5 17.5t87.5 43.5t61 68.5t23 92.5zM700 322q0 -56 -24.5 -100.5t-66 -76t-97 -49
t-118.5 -20.5v-115h-38v115q-63 3 -118.5 20.5t-97.5 49t-66 76t-24 100.5t24 99.5t65 73.5t97 47t120 20v111h38v-111q63 -3 119 -20t97.5 -47t65.5 -73.5t24 -99.5z" />
    <glyph glyph-name="Chi" unicode="&#x3a7;" horiz-adv-x="680" 
d="M72 -39l256 355l-256 357h43l235 -326l235 326h43l-256 -357l256 -355h-44l-234 325l-234 -325h-44z" />
    <glyph glyph-name="Psi" unicode="&#x3a8;" horiz-adv-x="792" 
d="M724 633q-12 0 -24.5 -6.5t-23 -19.5t-17 -32t-6.5 -43v-179q0 -50 -22 -85t-56.5 -57t-76.5 -31t-83 -7v-212h-38v212q-41 -2 -83 7t-76.5 31t-56.5 57t-22 85v179q0 24 -6.5 43t-17 32t-23 19.5t-24.5 6.5l5 28q16 0 34.5 -9.5t34 -26t25.5 -38t10 -45.5v-189
q0 -42 18 -71.5t47 -47.5t64.5 -25.5t70.5 -5.5v470h38v-470q35 -2 70.5 5.5t64.5 25.5t47 47.5t18 71.5v189q0 24 10 45.5t25.5 38t34 26t34.5 9.5z" />
    <glyph glyph-name="uni03A9" unicode="&#x3a9;" horiz-adv-x="700" 
d="M632 412q0 -104 -46 -173t-148 -91v-158h143v143h47v-172h-234v210q46 13 83.5 33t63 48.5t39.5 67.5t14 92q0 51 -19.5 94t-53 73.5t-78 47.5t-93.5 17q-50 0 -94 -17t-77.5 -47.5t-53 -73.5t-19.5 -94q0 -53 14 -92t40 -67.5t63 -48.5t83 -33v-210h-234v172h47v-143
h143v158q-102 22 -148 91t-46 173q0 59 22.5 108.5t61 85.5t90 56t108.5 20t108.5 -20t90 -56t61 -85.5t22.5 -108.5z" />
    <glyph glyph-name="alpha" unicode="&#x3b1;" horiz-adv-x="492" 
d="M326 221q0 111 -35 176t-99 65q-29 0 -53.5 -16.5t-42.5 -48t-28 -76t-10 -100.5q0 -53 9 -98t26.5 -78t42 -51.5t56.5 -18.5q29 0 53.5 17.5t42.5 50t28 77.5t10 101zM467 19q-5 -43 -18 -56t-42 -13t-49 29t-31 85q-15 -60 -52 -88.5t-82 -28.5q-44 0 -76.5 19
t-53.5 55t-31.5 86.5t-10.5 113.5q0 128 48 198.5t127 70.5q36 0 65.5 -17.5t50.5 -47.5t32.5 -70t11.5 -85l51 211h34l-82 -327q5 -39 11 -72t12.5 -56.5t14 -36.5t14.5 -12q11 1 15.5 17t7.5 38z" />
    <glyph glyph-name="beta" unicode="&#x3b2;" horiz-adv-x="452" 
d="M398 157q0 40 -12 70.5t-30 51.5t-40.5 32t-43.5 11q-16 0 -40 -2.5t-40 -3.5v34q18 -1 40 -2.5t39 -1.5q45 0 72.5 37.5t27.5 114.5q0 30 -9.5 57.5t-27.5 48.5t-45.5 33.5t-63.5 12.5q-70 0 -107.5 -30t-37.5 -104v-471q32 -35 67.5 -50t88.5 -15q37 0 67 15t51 39.5
t32.5 56.5t11.5 66zM435 159q0 -36 -13 -73.5t-37 -68t-59 -50t-79 -19.5q-48 0 -93 12t-74 42v-182h-35v695q0 40 13 70.5t37 51.5t57 32t73 11t74 -14.5t58.5 -39.5t38 -58.5t13.5 -70.5q0 -59 -19 -97t-54 -65q13 -6 30 -21t32.5 -37.5t26 -52.5t10.5 -65z" />
    <glyph glyph-name="gamma" unicode="&#x3b3;" horiz-adv-x="450" 
d="M346 -40q0 16 -8 34.5t-23.5 43.5t-38.5 58.5t-53 80.5q-30 -46 -53 -80t-38.5 -59t-23.5 -43.5t-8 -34.5q0 -32 11.5 -54t29.5 -36t39.5 -20t42.5 -6t42.5 6.5t39.5 20.5t29.5 36t11.5 53zM438 471q-49 -69 -97 -135.5t-97 -135.5q29 -41 56 -81q13 -19 28 -39.5
t27.5 -41t20.5 -40t8 -35.5q0 -38 -14 -65.5t-36.5 -45.5t-51.5 -26.5t-59 -8.5t-59 8.5t-51.5 26.5t-36.5 45.5t-14 65.5q0 18 8.5 37.5t21 39t27.5 39.5t28 40q14 21 27.5 41t27.5 40q-49 69 -97 135.5t-97 135.5h47q43 -62 84.5 -122t83.5 -122q43 62 84.5 122t83.5 122
h47z" />
    <glyph glyph-name="delta" unicode="&#x3b4;" horiz-adv-x="449" 
d="M385 180q0 38 -8 74t-27 64t-50.5 45t-79.5 17q-47 0 -78 -17t-50.5 -44.5t-27.5 -63.5t-8 -75q0 -43 10.5 -79.5t31.5 -63t51.5 -41.5t70.5 -15q84 0 124.5 53.5t40.5 145.5zM430 180q0 -51 -14 -93t-41 -73t-66 -48t-89 -17t-87.5 17.5t-62.5 48.5t-38 73.5t-13 91.5
q0 53 15 98t41 77t61.5 49t76.5 15q-26 15 -48.5 31.5t-39 35t-26 40t-9.5 47.5q0 25 12.5 44.5t32.5 33.5t45 21.5t51 7.5q27 0 53 -9t47 -25t33.5 -38.5t12.5 -48.5h-40q0 50 -29 67.5t-81 17.5q-42 0 -71 -19.5t-29 -55.5q0 -23 23.5 -49t53 -49t57.5 -39.5t37 -20.5
q33 -17 57.5 -38t41 -48.5t25 -63t8.5 -81.5z" />
    <glyph glyph-name="epsilon" unicode="&#x3b5;" horiz-adv-x="445" 
d="M416 95q-17 -77 -70 -112t-126 -35q-36 0 -70.5 9t-61.5 28.5t-44 49t-17 70.5q0 23 8 45.5t22 40.5t32.5 29.5t40.5 12.5q-40 12 -62 42t-22 75q0 33 16.5 59.5t43 45t58.5 28t64 9.5q68 0 116.5 -30.5t61.5 -94.5h-38q-14 47 -46.5 68.5t-93.5 21.5q-29 0 -55 -5.5
t-45.5 -17.5t-31.5 -31.5t-12 -47.5q0 -39 16.5 -61t42.5 -32t58 -12t63 -2v-31q-39 0 -74.5 -4.5t-63 -16.5t-43.5 -33t-16 -53q0 -33 13.5 -57t35.5 -39.5t48.5 -23.5t53.5 -8q64 0 104 29t56 84h38z" />
    <glyph glyph-name="zeta" unicode="&#x3b6;" horiz-adv-x="452" 
d="M411 -84q0 -55 -31.5 -79.5t-82.5 -24.5q-29 0 -63 9t-51 18l9 26q23 -12 48 -18.5t56 -6.5q37 0 58.5 19t21.5 59q0 21 -7.5 35.5t-25.5 24t-47 15t-71 10.5q-36 3 -69.5 15t-56.5 33q-10 9 -19 24.5t-16 32.5t-11 34.5t-4 29.5q0 60 26.5 128t66.5 133t85.5 121
t84.5 91h-246v26h264l13 -39q-35 -36 -79.5 -89.5t-84.5 -115.5t-67.5 -127.5t-27.5 -126.5q0 -26 11 -56t31 -48q25 -22 57 -29.5t83 -12.5q75 -8 110 -35t35 -76z" />
    <glyph glyph-name="eta" unicode="&#x3b7;" horiz-adv-x="468" 
d="M443 -103q-8 -12 -14 -18.5t-12.5 -9t-15.5 -2.5h-21q-23 0 -36.5 5.5t-20.5 15.5t-9.5 24t-2.5 31v362q0 79 -28 119.5t-82 40.5q-30 0 -55.5 -12t-44 -34t-29 -54t-10.5 -72v-331h-36v512h36v-111q4 22 14.5 45t27.5 41t40.5 29t55.5 11q79 0 113 -43.5t34 -131.5v-366
q0 -29 4.5 -41.5t21.5 -12.5q13 0 21.5 10.5t13.5 24.5z" />
    <glyph glyph-name="theta" unicode="&#x3b8;" horiz-adv-x="446" 
d="M56 305q2 -70 12.5 -130t31 -103.5t50.5 -68.5t72 -25q43 0 73 24.5t49.5 68t30 103.5t14.5 131h-333zM389 335q-4 69 -14.5 128t-30.5 102t-50 67t-72 24t-71.5 -24t-49.5 -67t-30.5 -102t-14.5 -128h333zM427 317q0 -86 -10.5 -154.5t-35 -116.5t-63.5 -73.5t-96 -25.5
t-96 25.5t-63 73.5t-35 116.5t-11 154.5t11 154.5t35 116.5t63 73.5t96 25.5t96 -25.5t63.5 -73.5t35 -116.5t10.5 -154.5z" />
    <glyph glyph-name="iota" unicode="&#x3b9;" horiz-adv-x="416" 
d="M310 44q0 -45 -24 -70.5t-78 -25.5q-51 0 -76.5 24t-25.5 78v430h35v-430q0 -39 14.5 -57t53.5 -18q41 0 53 20.5t12 48.5h36z" />
    <glyph glyph-name="kappa" unicode="&#x3ba;" horiz-adv-x="472" 
d="M384 -38l-191 310l-121 -112v-198h-34v518h34v-283l299 283h52l-202 -185l209 -333h-46z" />
    <glyph glyph-name="lambda" unicode="&#x3bb;" horiz-adv-x="449" 
d="M436 5q-5 -40 -28.5 -60.5t-60.5 -20.5q-26 0 -42 8.5t-26.5 25.5t-18 41t-16.5 56l-67 256l-117 -349h-44l142 420l-51 192q-5 22 -12.5 37t-16.5 27q-14 15 -29 19t-26 4v30q14 0 38.5 -6.5t38.5 -18.5q14 -14 27 -34t18 -41l141 -538q12 -45 23.5 -71t32.5 -27
q26 0 37.5 9t13.5 41h43z" />
    <glyph glyph-name="uni03BC" unicode="&#x3bc;" horiz-adv-x="453" 
d="M379 -38v129q-6 -32 -18 -58.5t-33 -45.5t-52 -29t-75 -10q-40 0 -70 9t-56 25v-171h-35v669h35v-352q0 -37 7.5 -66t24.5 -49t44 -30.5t67 -10.5q37 0 67 17t51 46t32 66.5t11 79.5v299h35v-518h-35z" />
    <glyph glyph-name="nu" unicode="&#x3bd;" horiz-adv-x="454" 
d="M269 -38h-49l-135 442q-9 35 -30 43q-14 6 -43 6v27q26 0 43.5 -2.5t28.5 -9.5q15 -8 21 -21t12 -32l127 -438l159 503h32z" />
    <glyph glyph-name="xi" unicode="&#x3be;" horiz-adv-x="443" 
d="M384 -75q0 -24 -9 -44.5t-24.5 -35.5t-36.5 -24t-44 -9q-51 0 -83 24l9 35q5 -7 27.5 -15.5t46.5 -8.5q35 0 58 22.5t23 57.5q0 36 -32 51.5t-102 21.5q-73 4 -119 45t-46 118q0 87 48 141t129 82q-22 12 -38.5 23t-28 23.5t-17.5 28.5t-6 39q0 22 12 43.5t29.5 41t36 35
t30.5 25.5h-174v27h221l5 -26q1 -6 -18.5 -23t-43.5 -39.5t-44.5 -47.5t-20.5 -46q0 -19 14 -34t31 -25.5t32.5 -17.5t18.5 -11v-30q-28 -14 -60 -31.5t-59.5 -41.5t-45.5 -56t-18 -74q0 -66 35 -99t99 -41q79 -7 122 -34t43 -70z" />
    <glyph glyph-name="omicron" unicode="&#x3bf;" horiz-adv-x="450" 
d="M396 218q0 53 -12.5 98t-35 78t-54 51.5t-69.5 18.5q-39 0 -70.5 -18.5t-54 -51.5t-34.5 -78t-12 -98t12 -98t34.5 -78t54 -51.5t70.5 -18.5q38 0 69.5 18.5t54 51.5t35 78t12.5 98zM429 218q0 -56 -13 -105.5t-38.5 -86.5t-63.5 -58t-89 -21t-89.5 21t-64 58t-38 86.5
t-12.5 105.5t12.5 105.5t38 86t64 58t89.5 21.5t89 -21.5t63.5 -58t38.5 -86t13 -105.5z" />
    <glyph glyph-name="pi" unicode="&#x3c0;" horiz-adv-x="459" 
d="M439 33q-6 -45 -25 -65t-64 -20q-39 0 -57 21t-18 70v415h-106v-391q0 -26 -6 -48.5t-17 -36.5q-14 -16 -41.5 -22t-63.5 -6v33q24 0 43 2.5t30 13.5q8 10 12.5 25.5t4.5 35.5v394h-116v26h416v-26h-116v-414q0 -37 8 -48.5t30 -11.5q12 0 19 2t11 8.5t6.5 19t5.5 33.5z
" />
    <glyph glyph-name="rho" unicode="&#x3c1;" horiz-adv-x="450" 
d="M396 218q0 53 -12.5 98t-35 78t-54 51.5t-69.5 18.5q-39 0 -70.5 -18.5t-54 -51.5t-34.5 -78t-12 -98t12 -98t34.5 -78t54 -51.5t70.5 -18.5q38 0 69.5 18.5t54 51.5t35 78t12.5 98zM429 218q0 -56 -13 -105.5t-38.5 -86.5t-63.5 -58t-89 -21q-58 0 -102 25t-69 70v-241
h-33v418q0 56 12.5 105t38 86t64 58t89.5 21t89 -21.5t63.5 -58t38.5 -86t13 -105.5z" />
    <glyph glyph-name="sigma" unicode="&#x3c3;" horiz-adv-x="461" 
d="M397 218q0 53 -12.5 98t-35 78t-54.5 51.5t-70 18.5q-39 0 -70.5 -18.5t-54 -51.5t-34.5 -78t-12 -98t12 -98t34.5 -78t54 -51.5t70.5 -18.5q38 0 70 18.5t54.5 51.5t35 78t12.5 98zM441 466q-14 4 -31 7.5t-34.5 5t-33.5 1t-27 -3.5q57 -35 85.5 -101t28.5 -157
q0 -56 -12.5 -105.5t-38 -86.5t-64 -58t-89.5 -21t-89 21t-63.5 58t-38 86.5t-12.5 105.5q0 49 12.5 93t34.5 79t52 60t65 36q26 8 60.5 12.5t70.5 5.5t68.5 -1.5t55.5 -8.5v-28z" />
    <glyph glyph-name="tau" unicode="&#x3c4;" horiz-adv-x="446" 
d="M202 454v-404q0 -36 16 -48t36 -12q23 0 35.5 11.5t17.5 45.5l27 -7q-7 -42 -26 -60.5t-59 -18.5q-34 0 -58.5 20.5t-24.5 66.5v406h-151v26h416v-26h-229z" />
    <glyph glyph-name="upsilon" unicode="&#x3c5;" horiz-adv-x="445" 
d="M411 149q0 -98 -49 -149t-146 -51q-35 0 -66.5 8t-55.5 25.5t-38 46t-14 70.5v381h36v-381q0 -67 37.5 -93.5t96.5 -26.5q87 0 124 40t37 126q0 39 -4.5 84t-12.5 90t-19.5 86.5t-25.5 72.5l38 10q14 -32 25.5 -75t19.5 -88.5t12.5 -91.5t4.5 -84z" />
    <glyph glyph-name="phi" unicode="&#x3c6;" horiz-adv-x="450" 
d="M208 465q-35 -5 -63.5 -25t-49 -52t-32 -75.5t-11.5 -94.5t11.5 -94.5t32 -75.5t49 -52.5t63.5 -24.5v494zM398 218q0 51 -11 94t-31.5 75.5t-49.5 52.5t-64 25v-494q35 5 64 25t49.5 52.5t31.5 75.5t11 94zM434 218q0 -55 -12.5 -102.5t-37 -83.5t-60.5 -58t-82 -26
v-142h-34v141q-46 4 -82 27t-60.5 59t-37 83.5t-12.5 101.5t12.5 101.5t37 83.5t60.5 58.5t82 27.5v183h34v-184q46 -4 82 -26.5t60.5 -58.5t37 -83.5t12.5 -101.5z" />
    <glyph glyph-name="chi" unicode="&#x3c7;" horiz-adv-x="448" 
d="M247 165l67 -252q5 -16 9 -26.5t10 -17t14.5 -9.5t21.5 -3h64v-22h-50q-45 0 -67.5 18.5t-30.5 45.5l-64 228l-172 -292h-42l202 340l-60 227q-8 25 -20.5 40.5t-33.5 15.5h-65v22h55q45 0 65.5 -13.5t28.5 -48.5l56 -205l157 267h42z" />
    <glyph glyph-name="psi" unicode="&#x3c8;" horiz-adv-x="448" 
d="M442 463q-20 -40 -28.5 -92t-8.5 -115v-158q0 -36 -13 -60t-35.5 -38t-52 -20t-62.5 -6v-168h-37v168q-33 0 -62.5 6t-52 20t-35.5 38t-13 60v158q0 65 -9.5 115t-27.5 92l35 8q17 -38 26 -94.5t9 -124.5v-154q0 -48 30 -73t100 -25v480h37v-480q71 0 100 25t29 73v154
q0 68 9.5 124.5t26.5 94.5z" />
    <glyph glyph-name="omega" unicode="&#x3c9;" horiz-adv-x="448" 
d="M438 175q0 -50 -4.5 -92t-17.5 -72.5t-36.5 -47.5t-61.5 -17q-66 0 -95 85q-27 -85 -96 -85q-36 0 -59 16.5t-36.5 46.5t-19 72.5t-5.5 93.5q0 39 3.5 78t13.5 77.5t27.5 74.5t46.5 69l24 -24q-28 -34 -44 -67t-24.5 -67t-10.5 -68.5t-2 -70.5q0 -110 22.5 -156t62.5 -46
t60 30t20 80v240h33v-240q0 -50 20.5 -80t59.5 -30q40 0 62.5 46t22.5 156q0 36 -2.5 70.5t-10.5 68.5t-24 67t-43 67l24 24q28 -33 45.5 -69t27.5 -74.5t13.5 -77.5t3.5 -78z" />
    <glyph glyph-name="afii10023" unicode="&#x401;" horiz-adv-x="641" 
d="M85 -39v712h464v-28h-428v-300h404v-27h-404v-329h435v-28h-471zM188 723v69h67v-69h-67zM364 723v69h67v-69h-67z" />
    <glyph glyph-name="afii10017" unicode="&#x410;" horiz-adv-x="744" 
d="M372 650l-165 -420h330zM640 -39l-91 242h-354l-91 -242h-38l280 712h52l280 -712h-38z" />
    <glyph glyph-name="afii10018" unicode="&#x411;" horiz-adv-x="698" 
d="M590 153q0 84 -54.5 125t-151.5 41h-261v-330h261q40 0 77.5 8.5t66 28t45.5 51t17 76.5zM625 161q0 -52 -17.5 -89.5t-49.5 -62t-76.5 -36.5t-97.5 -12h-296v712h462v-28h-427v-300h261q53 0 97.5 -11.5t76.5 -35t49.5 -58t17.5 -79.5z" />
    <glyph glyph-name="afii10019" unicode="&#x412;" horiz-adv-x="693" 
d="M623 161q0 -52 -18 -89.5t-50 -62t-76 -36t-97 -11.5h-298v710h296q42 0 81.5 -7.5t69.5 -27t48 -53t18 -85.5q0 -30 -10 -57t-28.5 -48t-45.5 -35.5t-59 -19.5q38 -3 69 -17t53.5 -38t34.5 -55.5t12 -67.5zM588 152q0 84 -55 125t-151 41h-263v-329h261q40 0 77.5 8.5
t66.5 28t46.5 50.5t17.5 76zM562 494q0 76 -46 113.5t-134 37.5h-263v-300h261q45 0 78.5 13t56.5 34.5t34.5 48t12.5 53.5z" />
    <glyph glyph-name="afii10020" unicode="&#x413;" horiz-adv-x="598" 
d="M102 645v-684h-36v712h466v-28h-430z" />
    <glyph glyph-name="afii10021" unicode="&#x414;" horiz-adv-x="807" 
d="M623 644h-338v-251q0 -59 -5.5 -116t-18.5 -109.5t-35 -98t-54 -79.5h451v654zM735 -169q-11 57 -35.5 93.5t-71.5 36.5h-422q-37 0 -59 -8.5t-35.5 -25t-22.5 -41t-19 -55.5h-14l15 126q55 28 90.5 72.5t56.5 100.5t29 123t8 140v280h406v-653q0 -10 8.5 -25t20.5 -29
t25.5 -24t23.5 -10l12 -101h-16z" />
    <glyph glyph-name="afii10022" unicode="&#x415;" horiz-adv-x="616" 
d="M72 -37v711h465v-27h-429v-300h405v-28h-405v-329h436v-27h-472z" />
    <glyph glyph-name="afii10024" unicode="&#x416;" horiz-adv-x="871" 
d="M817 -54q-138 0 -212 94t-75 274h-77v-353h-35v353h-76q-1 -182 -74.5 -275t-213.5 -93v28q61 0 108 26t78 72t47 109t16 136q0 74 -15.5 137t-47 108.5t-78 71.5t-108.5 26v28q134 0 207.5 -88.5t79.5 -257.5h76v331h35v-331h78q4 169 80 257.5t207 88.5v-28
q-62 0 -108.5 -26t-77.5 -71.5t-47 -108.5t-16 -137q0 -73 16 -136t47 -109t77.5 -72t108.5 -26v-28z" />
    <glyph glyph-name="afii10025" unicode="&#x417;" horiz-adv-x="596" 
d="M530 160q0 -54 -21 -93.5t-54.5 -65t-76.5 -37.5t-87 -12q-51 0 -93 16t-72 47t-46 75t-14 101h29q0 -48 15 -88t41 -68.5t61.5 -44.5t77.5 -16t80.5 12.5t67 36.5t45.5 58.5t17 78.5q0 40 -16 70.5t-42.5 51.5t-61.5 31.5t-73 10.5h-51v29h51q29 0 59 9.5t54 28.5
t39.5 45.5t15.5 61.5q0 74 -46 118.5t-137 44.5q-42 0 -74.5 -17t-55.5 -46t-36 -67t-15 -80h-29q-2 45 11 87t40 74.5t66.5 52t91.5 19.5q106 0 159.5 -51t53.5 -135q0 -32 -11.5 -58.5t-29.5 -46t-41.5 -32.5t-47.5 -19q33 -5 61.5 -19t49.5 -37.5t33 -55t12 -70.5z" />
    <glyph glyph-name="afii10026" unicode="&#x418;" horiz-adv-x="705" 
d="M588 -39v606l-471 -549v-57h-36v712h36v-607l471 550v57h36v-712h-36z" />
    <glyph glyph-name="afii10027" unicode="&#x419;" horiz-adv-x="705" 
d="M588 -39v606l-471 -549v-57h-36v712h36v-607l471 550v57h36v-712h-36zM486 788q-21 -44 -52.5 -68t-86.5 -24t-86.5 24t-52.5 68l17 9q17 -34 44 -58t78 -24t78 24t44 58z" />
    <glyph glyph-name="afii10028" unicode="&#x41a;" horiz-adv-x="681" 
d="M563 -39l-305 398l-153 -150v-248h-34v712h35v-418l432 418h49l-299 -287l322 -425h-47z" />
    <glyph glyph-name="afii10029" unicode="&#x41b;" horiz-adv-x="719" 
d="M589 -39v683h-314v-251q0 -75 -4.5 -142.5t-21.5 -125t-49.5 -103t-89.5 -77.5l-18 22q52 31 82.5 73.5t46 95.5t19.5 117t4 140v280h383v-712h-38z" />
    <glyph glyph-name="afii10030" unicode="&#x41c;" horiz-adv-x="812" 
d="M688 -39v686l-259 -686h-46l-259 686v-686h-37v712h66l253 -672l253 672h66v-712h-37z" />
    <glyph glyph-name="afii10031" unicode="&#x41d;" horiz-adv-x="663" 
d="M534 -39v363h-405v-363h-36v712h36v-322h405v322h36v-712h-36z" />
    <glyph glyph-name="afii10032" unicode="&#x41e;" horiz-adv-x="760" 
d="M648 317q0 74 -19 137t-54.5 108.5t-85 71.5t-109.5 26q-62 0 -111.5 -26t-84.5 -71.5t-53.5 -108.5t-18.5 -137t18 -137t52.5 -109t84.5 -71.5t113 -25.5q60 0 109.5 26t85 72t54.5 108.5t19 136.5zM683 317q0 -91 -22.5 -160t-62.5 -116t-96 -71t-122 -24
q-68 0 -124 24.5t-96 71.5t-61.5 116.5t-21.5 158.5q0 90 21.5 159t61.5 116.5t96 71.5t124 24q66 0 122 -24t96 -71.5t62.5 -116.5t22.5 -159z" />
    <glyph glyph-name="afii10033" unicode="&#x41f;" horiz-adv-x="646" 
d="M537 -39v684h-428v-684h-35v712h498v-712h-35z" />
    <glyph glyph-name="afii10034" unicode="&#x420;" horiz-adv-x="638" 
d="M513 475q0 83 -46.5 126.5t-121.5 43.5h-220v-341h220q37 0 68 11t53 33t34.5 53.5t12.5 73.5zM549 475q0 -44 -14 -80t-39 -62.5t-60 -41t-77 -14.5h-234v-316h-36v712h270q41 0 75.5 -15t60 -41t40 -62.5t14.5 -79.5z" />
    <glyph glyph-name="afii10035" unicode="&#x421;" horiz-adv-x="738" 
d="M663 228q-5 -62 -26 -113.5t-56 -89t-83.5 -58.5t-109.5 -21q-79 0 -138 29.5t-98 80.5t-58 118.5t-19 142.5q0 76 18.5 143.5t56.5 118t97 80t139 29.5q47 0 92 -15t81.5 -44t61.5 -72t32 -98h-36q-11 46 -33.5 83t-53 63t-67 40t-75.5 14q-77 0 -130 -31t-86 -80.5
t-47.5 -110.5t-14.5 -120q0 -58 14.5 -118.5t47.5 -110t85.5 -81.5t128.5 -32q54 0 96.5 20.5t73 55.5t48.5 81t22 96h37z" />
    <glyph glyph-name="afii10036" unicode="&#x422;" horiz-adv-x="659" 
d="M346 645v-684h-35v684h-237v28h511v-28h-239z" />
    <glyph glyph-name="afii10037" unicode="&#x423;" horiz-adv-x="575" 
d="M269 36q-14 -34 -37 -57t-66 -23q-20 0 -28 1q-7 1 -8 1v26q8 0 15.5 -0.5t14.5 -0.5q16 0 29 2.5t23.5 11t19.5 23.5t18 40l33 88l-216 525h33l195 -485l179 485h34z" />
    <glyph glyph-name="afii10038" unicode="&#x424;" horiz-adv-x="735" 
d="M351 557q-56 -3 -102.5 -21.5t-80 -50t-52 -74t-18.5 -93.5t18 -93.5t51 -74t79.5 -50.5t103.5 -22zM637 318q0 52 -18.5 94.5t-52.5 74t-81.5 50t-105.5 21.5v-480q57 3 104.5 21.5t81.5 50t52.5 74t18.5 94.5h1zM667 318q0 -55 -22 -102t-60 -81.5t-91 -55.5t-114 -23
v-95h-29v95q-61 3 -113 24.5t-89.5 56.5t-59 81t-21.5 100q0 53 21 99.5t58.5 81.5t89.5 56.5t113 25.5v92h29v-93q62 -2 114.5 -23t91 -55.5t60.5 -81.5t22 -102z" />
    <glyph glyph-name="afii10039" unicode="&#x425;" horiz-adv-x="700" 
d="M82 -39l256 355l-256 357h43l235 -326l235 326h43l-256 -357l256 -355h-44l-234 325l-234 -325h-44z" />
    <glyph glyph-name="afii10040" unicode="&#x426;" horiz-adv-x="774" 
d="M652 -169q-11 57 -35.5 93.5t-71.5 36.5h-439v712h35v-684h402v684h35v-653q0 -10 8 -25t20 -29t25.5 -24t25.5 -10l11 -101h-16z" />
    <glyph glyph-name="afii10041" unicode="&#x427;" horiz-adv-x="572" 
d="M457 -39v308q-8 -30 -27.5 -53.5t-45.5 -39t-56 -24t-59 -8.5q-51 0 -86.5 14.5t-57.5 40t-31.5 60.5t-9.5 76v338h31v-331q0 -36 8.5 -68t27 -55.5t47.5 -37.5t70 -14q40 0 74 15.5t59.5 42.5t40 62.5t14.5 75.5v310h32v-712h-31z" />
    <glyph glyph-name="afii10042" unicode="&#x428;" horiz-adv-x="794" 
d="M92 -39v712h37v-684h248v684h37v-684h252v684h36v-712h-610z" />
    <glyph glyph-name="afii10043" unicode="&#x429;" horiz-adv-x="831" 
d="M751 -169q-12 57 -36.5 93.5t-70.5 36.5h-580v712h38v-684h247v684h37v-684h252v684h37v-653q0 -16 8 -32t19.5 -28.5t25.5 -20t26 -7.5l13 -101h-16z" />
    <glyph glyph-name="afii10044" unicode="&#x42a;" horiz-adv-x="744" 
d="M666 152q0 84 -55 125t-151 41h-222v-329h222q40 0 77.5 8.5t66 28t45.5 50.5t17 76zM701 161q0 -52 -18 -89.5t-50 -62t-76 -36t-97 -11.5h-258v683h-160v27h196v-327h222q53 0 97.5 -11.5t76.5 -35t49.5 -58t17.5 -79.5z" />
    <glyph glyph-name="afii10045" unicode="&#x42b;" horiz-adv-x="794" 
d="M532 153q0 84 -54.5 125t-151.5 41h-199v-330h198q40 0 77.5 8.5t66 28t46 51t17.5 76.5zM567 161q0 -52 -17.5 -89.5t-49.5 -62t-76.5 -36.5t-97.5 -12h-235v712h36v-328h198q53 0 97.5 -11.5t76.5 -35t50 -58t18 -79.5zM666 -39v712h37v-712h-37z" />
    <glyph glyph-name="afii10046" unicode="&#x42c;" horiz-adv-x="699" 
d="M585 153q0 84 -54.5 125t-151.5 41h-265v-330h264q40 0 77.5 8.5t66 28t46 51t17.5 76.5zM621 161q0 -52 -18 -89.5t-50 -62t-76.5 -36.5t-97.5 -12h-301v712h36v-328h264q53 0 97.5 -11.5t77 -35t50.5 -58t18 -79.5z" />
    <glyph glyph-name="afii10047" unicode="&#x42d;" horiz-adv-x="728" 
d="M665 317q0 -75 -18.5 -142.5t-57 -118.5t-96.5 -80.5t-137 -29.5q-123 0 -201 62.5t-92 187.5h36q5 -50 25.5 -91t53.5 -70t78 -44.5t99 -15.5q75 0 126.5 30t83.5 78t47.5 108t17.5 119h-399v31h398q-3 58 -18 115t-46.5 102t-81.5 73t-123 28q-39 0 -78.5 -9.5
t-74 -29.5t-60 -52t-36.5 -77h-38q10 54 38.5 91.5t68 61t86 34t92.5 10.5q81 0 139 -29.5t95.5 -80t55 -118t17.5 -143.5z" />
    <glyph glyph-name="afii10048" unicode="&#x42e;" horiz-adv-x="847" 
d="M788 317q0 -91 -19 -160t-53 -116t-81 -71t-103 -24q-57 0 -104 24t-80.5 70.5t-52 114t-19.5 155.5h-175v-348h-31v710h31v-331h175q3 84 22 148.5t52.5 109t79.5 67t102 22.5t103 -24t81 -71.5t53 -116.5t19 -159zM758 317q0 74 -16 137t-46 108.5t-71.5 71.5t-92.5 26
q-52 0 -94 -26t-71 -71.5t-45 -108.5t-16 -137t15 -137t44 -109t71 -71.5t96 -25.5q51 0 92.5 26t71.5 72t46 108.5t16 136.5z" />
    <glyph glyph-name="afii10049" unicode="&#x42f;" horiz-adv-x="653" 
d="M557 647h-286q-43 0 -74.5 -13t-52.5 -35.5t-31 -53t-10 -66.5q0 -35 14.5 -64.5t37.5 -50.5t53 -33t62 -12h287v328zM557 -39v331h-290q-53 0 -83.5 -20.5t-45.5 -52.5t-19.5 -72t-5.5 -79q-1 -11 -1.5 -26t-1.5 -30.5t-3 -29t-6 -21.5h-41q7 9 11 31t6 49t3 54t2 44
q0 25 6 52t21.5 50t43.5 40.5t72 23.5q-79 11 -118 61.5t-39 126.5q0 45 16.5 78.5t44 56.5t63 34.5t73.5 11.5h328v-713h-36z" />
    <glyph glyph-name="afii10065" unicode="&#x430;" horiz-adv-x="611" 
d="M570 -37q-4 -1 -9.5 -1.5t-16.5 -0.5q-25 0 -40 8.5t-22.5 23.5t-8.5 37q-1 20 2 43q-13 -53 -62 -89q-51 -38 -141 -38q-32 0 -62.5 7t-53.5 22.5t-37 40t-14 58.5q0 58 25 89.5t66 48.5t92.5 25t105.5 18q49 9 68 26t19 49q0 36 -12.5 61.5t-34.5 41.5t-52 23.5
t-64 7.5q-30 0 -57.5 -8.5t-49 -26t-35.5 -45t-17 -65.5h-32q3 43 19 75t42.5 53.5t62 32t77.5 10.5q35 0 68 -7t58.5 -25t41 -50t15.5 -83v-288q0 -24 12 -38.5t37 -13.5q3 1 5.5 0.5t4.5 1.5v-24zM481 271q-6 -14 -24 -23.5t-41 -14.5q-63 -11 -114.5 -21t-88 -25.5
t-57 -41t-20.5 -67.5q0 -56 39 -83t105 -27q40 0 76 14t63.5 40.5t44 64t16.5 85.5z" />
    <glyph glyph-name="afii10066" unicode="&#x431;" horiz-adv-x="612" 
d="M511 218q0 52 -15 97.5t-42 79.5t-65 53t-83 19q-46 0 -83.5 -19t-64.5 -53t-42 -79.5t-15 -97.5q0 -53 15 -98t42 -79t65 -53t83 -19t83 19t65 53t42 79t15 98zM541 218q0 -56 -15.5 -105t-45.5 -86.5t-74 -59t-100 -21.5t-100 21t-74 58t-45.5 86.5t-15.5 106.5
q0 61 11.5 117.5t32.5 104t51.5 83.5t68.5 56q39 14 68.5 26t53 24.5t43 25.5t38.5 28l15 -14q-40 -38 -82.5 -61.5t-96.5 -41.5q-38 -13 -72 -44t-51 -71q34 20 73 29.5t82 9.5q56 0 99.5 -21.5t73.5 -59t46 -87t16 -104.5z" />
    <glyph glyph-name="afii10067" unicode="&#x432;" horiz-adv-x="631" 
d="M564 105q0 -42 -12 -70t-37.5 -44.5t-64.5 -23t-92 -6.5h-259v514h258q45 0 79 -4.5t56.5 -17.5t34 -36.5t11.5 -61.5q0 -23 -6 -44t-20 -37t-37 -27q-22 -10 -53 -11q28 -2 53 -10q27 -8 46.5 -24.5t31 -41t11.5 -55.5zM533 103q0 28 -8.5 50t-29 37t-54 22.5t-83.5 7.5
h-228v-232h227q82 0 129 27t47 88zM507 349q0 22 -5.5 40t-21.5 31t-45.5 20.5t-76.5 7.5h-228v-202h227q47 0 76.5 8t45.5 22.5t21.5 33t5.5 39.5h1z" />
    <glyph glyph-name="afii10068" unicode="&#x433;" horiz-adv-x="528" 
d="M95 451v-490h-31v514h400v-24h-369z" />
    <glyph glyph-name="afii10069" unicode="&#x434;" horiz-adv-x="724" 
d="M572 451h-340v-42q0 -56 -3.5 -119t-14 -121.5t-30 -107.5t-51.5 -77h439v467zM678 -170q-12 57 -36.5 93.5t-70.5 36.5h-391q-36 0 -58 -8.5t-36 -25t-23 -41t-20 -55.5h-12l15 124q56 25 88.5 72t49 107.5t21 131t4.5 142.5v68h394v-457q0 -40 23 -64t56 -24l11 -100
h-15z" />
    <glyph glyph-name="afii10070" unicode="&#x435;" horiz-adv-x="586" 
d="M102 212q0 -50 12.5 -94t37 -76.5t60 -51.5t82.5 -19q43 0 75.5 14t55 36.5t35.5 51t18 56.5h34q-20 -85 -75.5 -133.5t-143.5 -48.5q-52 0 -93.5 19.5t-70 54.5t-43.5 85t-15 112q0 49 12 97.5t39 87t69 62.5t102 24q55 0 96 -21.5t69 -59t42 -88t14 -108.5h-412z
M485 237q1 40 -12.5 81t-39 73.5t-62 53t-79.5 20.5t-77.5 -19.5t-59.5 -52t-39 -73.5t-16 -83h385z" />
    <glyph glyph-name="afii10072" unicode="&#x436;" horiz-adv-x="774" 
d="M718 -54q-59 0 -104.5 21t-77 57t-49 84t-19.5 102h-62v-249h-38v249h-63q-2 -54 -19.5 -102t-49 -84t-77 -57t-103.5 -21v23q47 0 86 19t67.5 53t44 79t15.5 98q0 52 -15.5 97.5t-43 79.5t-67 53t-87.5 19v23q55 0 99 -19.5t76 -53.5t50.5 -79.5t23.5 -97.5h62v235h38
v-235h63q4 52 22.5 97.5t50.5 79.5t76.5 53.5t100.5 19.5v-23q-47 0 -86 -19t-67.5 -53t-44.5 -79.5t-16 -97.5q0 -53 15.5 -98t43.5 -79t67.5 -53t87.5 -19v-23z" />
    <glyph glyph-name="afii10073" unicode="&#x437;" horiz-adv-x="602" 
d="M530 105q0 -44 -21 -74t-54.5 -48.5t-75.5 -26.5t-84 -8q-39 0 -79 7t-73 26.5t-53 53.5t-18 89h28q0 -49 17.5 -79t45 -46.5t62 -22.5t69.5 -6q36 0 73 6t66 21.5t47.5 41.5t18.5 66q0 30 -15.5 50.5t-42 33t-61 18t-71.5 5.5h-49v31h49q32 0 62 8.5t52.5 22.5t36 33.5
t13.5 42.5q0 35 -17 57.5t-43 35t-57 17.5t-60 5q-21 0 -51 -8t-58 -25.5t-48.5 -45.5t-21.5 -68h-29q0 40 18.5 71.5t47.5 53t66 33t75 11.5q39 0 76.5 -7.5t66.5 -24t47 -43.5t18 -67q0 -25 -6.5 -45.5t-22.5 -35.5t-42 -25q-24 -9 -60 -10q32 -3 60 -9q30 -6 52 -20
t34 -37t12 -58z" />
    <glyph glyph-name="afii10074" unicode="&#x438;" horiz-adv-x="575" 
d="M470 -39v413l-365 -349v-64h-33v514h33v-413l365 349v64h33v-514h-33z" />
    <glyph glyph-name="afii10075" unicode="&#x439;" horiz-adv-x="575" 
d="M470 -39v413l-365 -349v-64h-33v514h33v-413l365 349v64h33v-514h-33zM421 626q-21 -43 -52.5 -67t-86.5 -24t-86.5 24t-52.5 67l17 10q17 -34 44 -58t78 -24t78 24t44 58z" />
    <glyph glyph-name="afii10076" unicode="&#x43a;" horiz-adv-x="564" 
d="M453 -39l-224 307l-131 -116v-191h-30v514h30v-285l322 285h51l-216 -187l241 -327h-43z" />
    <glyph glyph-name="afii10077" unicode="&#x43b;" horiz-adv-x="661" 
d="M556 -39v489h-325v-70q0 -82 -3 -147.5t-17 -118.5t-42.5 -95.5t-79.5 -79.5l-16 18q42 29 68 64.5t40 85t18.5 116t4.5 157.5v95h384v-514h-32z" />
    <glyph glyph-name="afii10078" unicode="&#x43c;" horiz-adv-x="782" 
d="M668 -39v496l-254 -496h-46l-254 496v-496h-31v514h59l249 -487l249 487h59v-514h-31z" />
    <glyph glyph-name="afii10079" unicode="&#x43d;" horiz-adv-x="633" 
d="M518 -39v251h-403v-251h-33v514h33v-237h403v237h33v-514h-33z" />
    <glyph glyph-name="afii10080" unicode="&#x43e;" horiz-adv-x="592" 
d="M501 218q0 52 -15 97.5t-42 79.5t-65 53t-83 19q-46 0 -83.5 -19t-64.5 -53t-42 -79.5t-15 -97.5q0 -53 15 -98t42 -79t65 -53t83 -19t83 19t65 53t42 79t15 98zM531 218q0 -56 -16 -105t-46 -86.5t-73.5 -59t-99.5 -21.5t-99.5 21.5t-73.5 59t-46 86.5t-16 105
q0 55 16 104.5t46 87t73.5 59t99.5 21.5t99.5 -21.5t73.5 -59t46 -87t16 -104.5z" />
    <glyph glyph-name="afii10081" unicode="&#x43f;" horiz-adv-x="598" 
d="M493 -39v489h-388v-489h-33v514h454v-514h-33z" />
    <glyph glyph-name="afii10082" unicode="&#x440;" horiz-adv-x="592" 
d="M495 218q0 49 -14 94t-39.5 79.5t-60 55t-75.5 20.5q-49 0 -87.5 -20t-65.5 -54t-41.5 -79.5t-14.5 -95.5q0 -43 11.5 -87.5t37 -80.5t65 -58.5t95.5 -22.5q41 0 75.5 21t60 55.5t39.5 79.5t14 93zM526 218q0 -63 -15.5 -113t-44.5 -85.5t-70.5 -54.5t-94.5 -19
q-38 0 -71.5 12t-60.5 32t-45.5 47.5t-26.5 57.5v-294h-31v674h31v-136q7 32 24.5 59.5t44 48t60.5 32t75 11.5q51 0 92.5 -20t71 -56t45.5 -86t16 -110z" />
    <glyph glyph-name="afii10083" unicode="&#x441;" horiz-adv-x="565" 
d="M501 134q-16 -84 -66 -136t-139 -52q-60 0 -103.5 21.5t-72 58t-42.5 86t-14 106.5q0 54 15 103.5t44 87t72.5 59.5t100.5 22q40 0 74.5 -13.5t60.5 -37t43.5 -56.5t23.5 -72h-31q-6 33 -21 61t-37.5 49t-51.5 33t-62 12q-51 0 -89 -20.5t-62.5 -55t-37 -79t-12.5 -93.5
q0 -52 14 -97.5t40 -79t63.5 -52.5t85.5 -19q32 0 61 12.5t52 34.5t39 52t22 65h30z" />
    <glyph glyph-name="afii10084" unicode="&#x442;" horiz-adv-x="599" 
d="M316 450v-489h-34v489h-220v25h475v-25h-221z" />
    <glyph glyph-name="afii10085" unicode="&#x443;" horiz-adv-x="565" 
d="M276 -119q-14 -37 -37.5 -58.5t-65.5 -21.5q-20 0 -28 0.5t-9 0.5v26h30q17 0 29.5 3t22.5 11t19 23t19 39l21 46l-215 525h33l195 -509l184 509h29z" />
    <glyph glyph-name="afii10086" unicode="&#x444;" horiz-adv-x="792" 
d="M695 218q0 -56 -16 -105t-46 -86.5t-73.5 -59t-99.5 -21.5q-10 0 -22 2.5t-23 4.5v-141h-30v143q-14 -3 -27 -6t-26 -3q-56 0 -99.5 21.5t-73.5 59t-46 86.5t-16 105q0 55 16 104.5t46 87t73.5 59t99.5 21.5q13 0 26 -3t27 -6v192h30v-190q11 2 23 4.5t22 2.5
q56 0 99.5 -21.5t73.5 -59t46 -87t16 -104.5zM385 458q-30 6 -53 6q-45 0 -82.5 -19t-64.5 -52t-41.5 -78t-14.5 -97q0 -53 14.5 -98t41.5 -78t64.5 -51.5t82.5 -18.5q23 0 53 6v480zM663 218q0 52 -14.5 97t-41.5 78t-64.5 52t-82.5 19q-8 0 -19 -0.5t-26 -3.5v-485l24 -2
q12 -1 21 -1q45 0 82.5 18.5t64.5 51.5t41.5 78t14.5 98z" />
    <glyph glyph-name="afii10087" unicode="&#x445;" horiz-adv-x="598" 
d="M485 -39l-185 249l-187 -249h-39l204 269l-190 245h44l166 -223l163 223h44l-186 -245l205 -269h-39z" />
    <glyph glyph-name="afii10088" unicode="&#x446;" horiz-adv-x="666" 
d="M580 -169q-12 57 -38 93.5t-73 36.5h-395v514h33v-489h363v489h32v-456q0 -40 23 -64t56 -24l11 -100h-12z" />
    <glyph glyph-name="afii10089" unicode="&#x447;" horiz-adv-x="548" 
d="M437 -39v260q-5 -28 -22.5 -52.5t-43 -42.5t-56 -28.5t-60.5 -10.5q-47 0 -80 13.5t-53.5 37.5t-29.5 58t-9 76v203h28v-193q0 -37 8.5 -68t26.5 -53.5t46 -35.5t67 -13t71.5 14.5t56 40t36.5 60.5t13 76v172h29v-514h-28z" />
    <glyph glyph-name="afii10090" unicode="&#x448;" horiz-adv-x="754" 
d="M82 -39v514h32v-489h247v489h33v-489h246v489h32v-514h-590z" />
    <glyph glyph-name="afii10091" unicode="&#x449;" horiz-adv-x="790" 
d="M720 -169q-11 57 -35.5 93.5t-71.5 36.5h-558v514h33v-489h247v489h32v-489h246v489h33v-456q0 -40 23 -64t55 -24l11 -100h-15z" />
    <glyph glyph-name="afii10092" unicode="&#x44a;" horiz-adv-x="656" 
d="M576 103q0 28 -7 49.5t-25.5 36.5t-50.5 22.5t-82 7.5h-204v-230h203q82 0 123.5 26t41.5 88h1zM607 105q0 -40 -10.5 -67t-34 -44t-61 -24.5t-90.5 -7.5h-233v485h-130v27h159v-229h203q105 0 151 -32t46 -108z" />
    <glyph glyph-name="afii10093" unicode="&#x44b;" horiz-adv-x="704" 
d="M457 103q0 28 -7 49.5t-25.5 36.5t-50.5 22.5t-82 7.5h-167v-230h168q83 0 124 26t41 88h-1zM488 105q0 -40 -10.5 -67t-34 -44t-61 -24.5t-90.5 -7.5h-198v512h31v-229h168q104 0 150 -31.5t46 -108.5h-1zM579 -38v512h31v-512h-31z" />
    <glyph glyph-name="afii10094" unicode="&#x44c;" horiz-adv-x="558" 
d="M462 103q0 28 -6.5 49.5t-24 36.5t-49 22.5t-82.5 7.5h-204v-230h202q83 0 122.5 26t39.5 88h2zM493 105q0 -40 -10 -67t-33 -44t-60 -24.5t-90 -7.5h-235v512h31v-229h202q101 0 148 -32.5t47 -107.5z" />
    <glyph glyph-name="afii10095" unicode="&#x44d;" horiz-adv-x="568" 
d="M504 218q0 -57 -13.5 -106.5t-41 -86t-71 -58t-103.5 -21.5q-89 0 -142 47.5t-69 132.5h31q5 -35 22 -64t41.5 -49.5t54.5 -31.5t61 -11q47 0 83.5 18t61.5 49.5t38.5 75t15.5 94.5h-298v33h298q-2 45 -16 85.5t-38.5 72t-60.5 50t-82 18.5q-33 0 -62.5 -10.5t-53 -30
t-39 -46.5t-21.5 -60h-33q6 38 24 69.5t45.5 54t63 35t75.5 12.5q58 0 101 -22t71.5 -59.5t42.5 -87t14 -103.5z" />
    <glyph glyph-name="afii10096" unicode="&#x44e;" horiz-adv-x="792" 
d="M673 218q0 52 -12.5 97t-37.5 78.5t-61 52.5t-83 19t-83.5 -19t-61 -52.5t-37.5 -78.5t-13 -97t12.5 -97t37.5 -78.5t61 -52.5t83 -19t83 19t61 52.5t37.5 78.5t12.5 97h1zM704 218q0 -56 -12 -105t-39 -86.5t-70 -59t-104 -21.5q-57 0 -98.5 20t-69 55.5t-41 83
t-15.5 103.5h-132v-247h-35v514h34v-239h131q3 53 17.5 99.5t42.5 81t68.5 54t96.5 19.5q61 0 104 -21.5t70 -59t39.5 -87t12.5 -104.5z" />
    <glyph glyph-name="afii10097" unicode="&#x44f;" horiz-adv-x="573" 
d="M458 -39v236h-215q-66 0 -98 -28.5t-35 -96.5q-1 -12 -3 -27t-4 -30.5t-5 -30t-6 -23.5h-41q6 17 11 32t8 30.5t5 32t4 36.5q9 114 111 120q-56 3 -91 36t-35 93q0 39 12.5 64.5t36 41t55.5 22t71 6.5h251v-514h-32zM458 450h-215q-72 0 -110.5 -25.5t-38.5 -88.5
q0 -60 38 -86t110 -26h216v226z" />
    <glyph glyph-name="afii10071" unicode="&#x451;" horiz-adv-x="586" 
d="M102 212q0 -50 12.5 -94t37 -76.5t60 -51.5t82.5 -19q43 0 75.5 14t55 36.5t35.5 51t18 56.5h34q-20 -85 -75.5 -133.5t-143.5 -48.5q-52 0 -93.5 19.5t-70 54.5t-43.5 85t-15 112q0 49 12 97.5t39 87t69 62.5t102 24q55 0 96 -21.5t69 -59t42 -88t14 -108.5h-412z
M485 237q1 40 -12.5 81t-39 73.5t-62 53t-79.5 20.5t-77.5 -19.5t-59.5 -52t-39 -73.5t-16 -83h385zM160 572v68h66v-68h-66zM336 572v68h66v-68h-66z" />
    <glyph glyph-name="uni2010" unicode="&#x2010;" horiz-adv-x="438" 
d="M24 297v30h390v-30h-390z" />
    <glyph glyph-name="emdash" unicode="&#x2014;" horiz-adv-x="864" 
d="M2 294v36h860v-36h-860z" />
    <glyph glyph-name="emdash" unicode="&#x2015;" horiz-adv-x="864" 
d="M2 294v36h860v-36h-860z" />
    <glyph glyph-name="uni2016" unicode="&#x2016;" 
d="M403 -180h-42v960h42v-960zM578 -180h-42v960h42v-960z" />
    <glyph glyph-name="quoteleft" unicode="&#x2018;" horiz-adv-x="211" 
d="M20 653v3q1 45 14 73t30 43q18 18 43 25v-57q35 -1 59.5 -25.5t24.5 -59.5q0 -18 -6.5 -33.5t-18 -27t-27 -18.5t-33.5 -7t-33.5 6.5t-27 18t-18.5 27t-7 32.5z" />
    <glyph glyph-name="quoteright" unicode="&#x2019;" horiz-adv-x="203" 
d="M188 713v-3q-1 -46 -14.5 -73.5t-29.5 -42.5q-19 -18 -43 -25v57q-35 1 -59.5 25.5t-24.5 59.5q0 18 6.5 33.5t18 27t27 18.5t33.5 7t33.5 -6.5t27 -18t18.5 -27t7 -32.5z" />
    <glyph glyph-name="quotedblleft" unicode="&#x201c;" horiz-adv-x="390" 
d="M208 590q1 45 14 73t30 43q18 18 43 25v-57q35 -1 59.5 -25.5t24.5 -59.5q0 -18 -6.5 -33.5t-18 -27t-27 -18.5t-33.5 -7t-33.5 6.5t-27 18t-18.5 27t-7 32.5v3zM18 590q1 45 14 73t30 43q18 18 43 25v-57q35 -1 59.5 -25.5t24.5 -59.5q0 -18 -6.5 -33.5t-18 -27
t-27 -18.5t-33.5 -7t-33.5 6.5t-27 18t-18.5 27t-7 32.5v3z" />
    <glyph glyph-name="quotedblright" unicode="&#x201d;" horiz-adv-x="403" 
d="M190 644q-1 -46 -14.5 -73.5t-29.5 -42.5q-19 -18 -43 -25v57q-35 1 -59.5 25.5t-24.5 59.5q0 18 6.5 33.5t18 27t27 18.5t33.5 7t33.5 -6.5t27 -18t18.5 -27t7 -32.5v-3zM380 644q-1 -46 -14.5 -73.5t-29.5 -42.5q-19 -18 -43 -25v57q-35 1 -59.5 25.5t-24.5 59.5
q0 18 6.5 33.5t18 27t27 18.5t33.5 7t33.5 -6.5t27 -18t18.5 -27t7 -32.5v-3z" />
    <glyph glyph-name="dagger" unicode="&#x2020;" horiz-adv-x="552" 
d="M263 387h-203v25h203v228h27v-228h202v-25h-202v-399h-27v399z" />
    <glyph glyph-name="daggerdbl" unicode="&#x2021;" horiz-adv-x="552" 
d="M290 321v-333h-27v333h-203v25h203v138h-203v25h203v131h27v-131h202v-25h-202v-138h202v-25h-202z" />
    <glyph glyph-name="twodotenleader" unicode="&#x2025;" 
d="M205 331q0 17 11.5 29t27.5 12q17 0 29 -12t12 -29t-12 -28t-29 -11q-16 0 -27.5 11t-11.5 28zM656 331q0 17 11.5 29t27.5 12q17 0 29 -12t12 -29t-12 -28t-29 -11q-16 0 -27.5 11t-11.5 28z" />
    <glyph glyph-name="ellipsis" unicode="&#x2026;" 
d="M130 331q0 17 11.5 29t27.5 12q17 0 29 -12t12 -29t-12 -28t-29 -11q-16 0 -27.5 11t-11.5 28zM430 331q0 17 11.5 29t27.5 12q17 0 29 -12t12 -29t-12 -28t-29 -11q-16 0 -27.5 11t-11.5 28zM732 331q0 17 11.5 29t27.5 12q17 0 29 -12t12 -29t-12 -28t-29 -11
q-16 0 -27.5 11t-11.5 28z" />
    <glyph glyph-name="ellipsis" unicode="&#x22ef;" 
d="M130 331q0 17 11.5 29t27.5 12q17 0 29 -12t12 -29t-12 -28t-29 -11q-16 0 -27.5 11t-11.5 28zM430 331q0 17 11.5 29t27.5 12q17 0 29 -12t12 -29t-12 -28t-29 -11q-16 0 -27.5 11t-11.5 28zM732 331q0 17 11.5 29t27.5 12q17 0 29 -12t12 -29t-12 -28t-29 -11
q-16 0 -27.5 11t-11.5 28z" />
    <glyph glyph-name="perthousand" unicode="&#x2030;" 
d="M570 142q0 33 -5 61.5t-15.5 50.5t-26.5 34.5t-38 12.5q-21 0 -36.5 -12.5t-25.5 -34.5t-15 -50.5t-5 -61.5t5 -61.5t15 -50.5t25.5 -34.5t36.5 -12.5q22 0 38 12.5t26.5 34.5t15.5 50.5t5 61.5zM260 479q0 33 -5 61.5t-15 50.5t-25.5 34.5t-37.5 12.5q-21 0 -37 -12.5
t-26 -34.5t-15 -50.5t-5 -61.5t5 -61.5t15 -50.5t26 -34.5t37 -12.5q22 0 37.5 12.5t25.5 34.5t15 50.5t5 61.5zM845 142q0 33 -5 61.5t-15 50.5t-25.5 34.5t-36.5 12.5t-37 -12.5t-26.5 -34.5t-15.5 -50.5t-5 -61.5t5 -61.5t15.5 -50.5t26.5 -34.5t37 -12.5t36.5 12.5
t25.5 34.5t15 50.5t5 61.5zM604 142q0 -85 -28.5 -136t-90.5 -51q-61 0 -88.5 51t-27.5 136t27.5 136t88.5 51q64 0 91.5 -51t27.5 -136zM295 479q0 -85 -29 -136t-89 -51q-62 0 -90 51t-28 136t28 136t90 51t90 -51t28 -136zM880 142q0 -85 -28.5 -136t-88.5 -51
q-62 0 -90.5 51t-28.5 136t28.5 136t90.5 51t89.5 -51t27.5 -136zM94 -76q112 192 221.5 383t221.5 385h36q-110 -194 -220 -385t-220 -383h-39z" />
    <glyph glyph-name="minute" unicode="&#x2032;" horiz-adv-x="459" 
d="M157 494h-12l105 235h58z" />
    <glyph glyph-name="second" unicode="&#x2033;" horiz-adv-x="480" 
d="M92 494h-12l105 235h58zM237 494h-12l105 235h58z" />
    <glyph glyph-name="uni203B" unicode="&#x203b;" 
d="M171 28l270 270l-270 271l20 20l270 -271l271 271l20 -20l-271 -271l271 -270l-20 -20l-271 270l-270 -270zM512 552q0 -20 -15.5 -33.5t-35.5 -13.5t-35.5 13.5t-15.5 33.5q0 23 15.5 37t35.5 14t35.5 -14t15.5 -37zM512 35q0 -20 -15.5 -33.5t-35.5 -13.5t-35.5 13.5
t-15.5 33.5q0 23 15.5 37t35.5 14t35.5 -14t15.5 -37zM252 297q0 -20 -15.5 -33.5t-35.5 -13.5t-35.5 13.5t-15.5 33.5q0 23 15.5 37t35.5 14t35.5 -14t15.5 -37zM772 297q0 -20 -15.5 -33.5t-35.5 -13.5t-35.5 13.5t-15.5 33.5q0 23 15.5 37t35.5 14t35.5 -14t15.5 -37z
" />
    <glyph glyph-name="uni203E" unicode="&#x203e;" 
d="M20 743v19h900v-19h-900z" />
    <glyph glyph-name="uni203E" unicode="&#xffe3;" 
d="M20 743v19h900v-19h-900z" />
    <glyph glyph-name="uni2074" unicode="&#x2074;" horiz-adv-x="406" 
d="M226 692l-78 -116h78v116zM254 549v-53h-28v53h-103v27l104 154h27v-154h29v-27h-29z" />
    <glyph glyph-name="uni207F" unicode="&#x207f;" horiz-adv-x="420" 
d="M259 496v152q0 23 -11.5 36.5t-33.5 13.5q-26 0 -40.5 -16t-14.5 -42v-144h-27v222h27v-31q5 14 21 25.5t36 11.5q33 0 52 -18t19 -47v-163h-28z" />
    <glyph glyph-name="uni2081" unicode="&#x2081;" horiz-adv-x="405" 
d="M213 -114v172h-49v21q24 2 37 11t16 30h24v-234h-28z" />
    <glyph glyph-name="uni2082" unicode="&#x2082;" horiz-adv-x="408" 
d="M280 57q0 -30 -16.5 -49.5t-41.5 -36.5q-26 -18 -40.5 -30.5t-19.5 -28.5h115v-28h-150q5 41 28 64.5t57 46.5q21 14 30.5 28t9.5 34q0 41 -44 41q-23 0 -35 -16.5t-12 -41.5h-29q0 35 21.5 59t56.5 24q32 0 51 -17.5t19 -48.5z" />
    <glyph glyph-name="uni2083" unicode="&#x2083;" horiz-adv-x="428" 
d="M295 -47q0 -32 -23 -51.5t-58 -19.5q-33 0 -57 20.5t-23 58.5h29q-1 -29 15 -41.5t36 -12.5q23 0 38 13t15 33q0 23 -13.5 33t-35.5 10h-17v27h17q17 0 29 10.5t12 29.5q0 17 -12 26t-32 9q-45 0 -48 -52h-28q0 32 21.5 54.5t53.5 22.5t52.5 -16t20.5 -44
q0 -20 -10.5 -35t-30.5 -18q20 -4 34.5 -19t14.5 -38z" />
    <glyph glyph-name="uni2084" unicode="&#x2084;" horiz-adv-x="406" 
d="M226 82l-78 -116h78v116zM254 -61v-53h-28v53h-103v27l104 154h27v-154h29v-27h-29z" />
    <glyph glyph-name="uni20A9" unicode="&#x20a9;" horiz-adv-x="966" 
d="M786 344l-88 -382q-2 -7 -5 -10.5t-9 -3.5h-54q-6 0 -9 3.5t-5 10.5l-78 382h-108l-78 -382q-2 -7 -5 -10.5t-9 -3.5h-54q-6 0 -9 3.5t-5 10.5l-89 382h-116q-11 0 -11 11v11q0 11 11 11h109l-61 262q-4 14 11 14h21q13 0 17 -14l59 -262h172l55 262q4 14 17 14h38
q13 0 17 -14l54 -262h172l60 262q4 14 17 14h21q15 0 11 -14l-61 -262h107q11 0 11 -11v-11q0 -11 -11 -11h-115zM311 -19l75 363h-157zM657 -19l82 363h-158zM436 377h95l-47 233z" />
    <glyph glyph-name="uni2103" unicode="&#x2103;" horiz-adv-x="787" 
d="M709 187q-5 -50 -23 -93.5t-48.5 -75t-73 -49.5t-94.5 -18q-68 0 -119.5 27.5t-85.5 73t-51 104.5t-17 123t16.5 123.5t50 104.5t85 72t120.5 27q42 0 81.5 -13t71 -38t52.5 -60.5t26 -80.5h-37q-17 76 -70 119.5t-123 43.5q-69 0 -114.5 -29.5t-72.5 -73.5t-38 -96.5
t-11 -98.5t11.5 -98.5t38.5 -96.5t72 -73.5t113 -29.5q45 0 80 17t60.5 45.5t41 66t20.5 77.5h38zM157 514q-37 0 -63 26t-26 63t26 63t63 26t63 -26t26 -63t-26 -63t-63 -26zM224 603q0 29 -19 48.5t-48 19.5t-48 -19.5t-19 -48.5t19 -48.5t48 -19.5t48 19.5t19 48.5z" />
    <glyph glyph-name="uni2109" unicode="&#x2109;" 
d="M439 599v-270h318v-35h-318v-333h-43v672h396v-34h-353zM231 514q-37 0 -63 26t-26 63t26 63t63 26t63 -26t26 -63t-26 -63t-63 -26zM298 603q0 29 -19 48.5t-48 19.5t-48 -19.5t-19 -48.5t19 -48.5t48 -19.5t48 19.5t19 48.5z" />
    <glyph glyph-name="afii61289" unicode="&#x2113;" horiz-adv-x="540" 
d="M220 131q37 34 72.5 85.5t63 108t44 112t16.5 99.5q0 59 -13 88t-50 29q-18 0 -33.5 -14t-29 -37t-24.5 -53.5t-20 -64.5q-10 -37 -15 -82.5t-7.5 -92.5t-3 -93t-0.5 -85zM417 72q-23 -52 -53 -79t-73 -27q-22 0 -38.5 10.5t-28 27t-18 37t-8.5 41.5q-14 -14 -31 -25.5
t-34 -24.5l-15 23q17 11 37.5 25.5t40.5 30.5q-7 91 -1.5 186t23.5 184q23 96 58.5 149t84.5 53q47 0 65.5 -39t18.5 -99q0 -45 -16.5 -104t-45.5 -120.5t-69 -119.5t-87 -101q-1 -23 5 -42.5t16 -33.5t21.5 -22.5t22.5 -8.5q33 0 59 24.5t44 66.5z" />
    <glyph glyph-name="afii61352" unicode="&#x2116;" 
d="M625 -51q-31 0 -59.5 15.5t-50.5 47.5t-35 82t-13 119q0 70 14 120.5t36.5 83t52 47.5t61.5 15q31 0 59 -15.5t50 -48t35 -82.5t13 -119q0 -73 -14.5 -123.5t-37.5 -82t-52 -45.5t-58 -14h-1zM629 -22q40 0 66 24t40 60t19.5 77t5.5 75t-5.5 75t-20 77t-40.5 60t-67 24
t-67 -24t-40 -60t-19 -77t-5 -75q0 -35 5 -76t19.5 -76.5t40 -59.5t67.5 -24h1zM65 -43v718h42l146 -353q13 -32 31 -75t36.5 -88t35.5 -87.5t28 -72.5h2q-3 94 -2 195.5t1 193.5v287h28v-718h-40l-153 368q-12 28 -27.5 65.5t-32.5 79.5l-33 84q-16 42 -30 79h-2
q0 -78 -1 -180.5t-1 -220.5v-275h-28zM813 -39v108h49v-108h-49z" />
    <glyph glyph-name="uni2121" unicode="&#x2121;" 
d="M719 243q0 38 -11 76.5t-30.5 69t-48 50t-62.5 19.5q-33 0 -60 -18.5t-47 -49t-31.5 -69t-12.5 -78.5h303zM298 638v-677h-31v677h-186v35h405v-35h-188zM417 212q-1 -48 10 -90.5t31 -74.5t48 -50.5t63 -18.5q29 0 53.5 13.5t42.5 35.5t30.5 49t17.5 53h28
q-9 -40 -23.5 -73.5t-36 -58t-49.5 -38t-63 -13.5q-42 0 -75 19.5t-56 55.5t-35.5 86t-12.5 111q0 53 11 102t33 87t55.5 60.5t77.5 22.5q48 0 82 -23.5t55.5 -62.5t31.5 -89t10 -103h-329zM833 -39v712h27v-712h-27z" />
    <glyph glyph-name="trademark" unicode="&#x2122;" 
d="M248 690v-281h-26v281h-160v25h346v-25h-160zM673 409h-30l-180 281v-281h-24v306h36l183 -286l183 286h36v-306h-24v281z" />
    <glyph glyph-name="Omega" unicode="&#x2126;" horiz-adv-x="682" 
d="M612 412q0 -55 -15.5 -100.5t-41.5 -80t-60 -56.5t-72 -29v-163h141v145h29v-167h-202v202q88 20 137 86.5t49 162.5q0 49 -17 94.5t-47.5 80t-74 55.5t-97.5 21q-48 0 -90.5 -21t-75 -55.5t-51.5 -80t-19 -94.5q0 -96 49 -162.5t137 -86.5v-202h-202v167h29v-145h141
v163q-38 7 -72 29t-60 56.5t-41.5 80t-15.5 100.5q0 57 21 107.5t57.5 88t86 59t106.5 21.5t106.5 -21.5t86 -59t57.5 -88t21 -107.5z" />
    <glyph glyph-name="uni212B" unicode="&#x212b;" horiz-adv-x="661" 
d="M330 454l-117 -282h234zM545 -60l-84 201h-261l-84 -201h-42l226 546h61l226 -546h-42zM329 544q-37 0 -63 26t-26 63t26 63t63 26t63 -26t26 -63t-26 -63t-63 -26zM396 633q0 29 -19 48.5t-48 19.5t-48 -19.5t-19 -48.5t19 -48.5t48 -19.5t48 19.5t19 48.5z" />
    <glyph glyph-name="onethird" unicode="&#x2153;" horiz-adv-x="713" 
d="M646 0q0 -27 -10 -47.5t-27 -34.5t-39 -21.5t-46 -7.5q-55 0 -90.5 32.5t-30.5 95.5h43q-2 -42 18.5 -66.5t58.5 -24.5q32 0 56 19t24 52q0 32 -21 49t-53 17h-32v40h32q22 0 42 13.5t20 42.5t-19.5 43.5t-48.5 14.5q-35 0 -53.5 -22.5t-16.5 -64.5h-42q0 57 29 91.5
t83 34.5q21 0 40.5 -5.5t35 -17.5t25 -29.5t9.5 -41.5q0 -25 -10.5 -45t-31.5 -31q26 -11 40.5 -33.5t14.5 -52.5zM93 9l-26 24l538 562l27 -24zM167 347v248h-71v34q19 1 32.5 4.5t22.5 12t14.5 23.5t8.5 38h36v-360h-43z" />
    <glyph glyph-name="twothirds" unicode="&#x2154;" horiz-adv-x="770" 
d="M689 0q0 -27 -10 -47.5t-27 -34.5t-39 -21.5t-46 -7.5q-55 0 -90.5 32.5t-30.5 95.5h43q-2 -42 18.5 -66.5t58.5 -24.5q32 0 56 19t24 52q0 32 -21 49t-53 17h-32v40h32q22 0 42 13.5t20 42.5t-19.5 43.5t-48.5 14.5q-35 0 -53.5 -22.5t-16.5 -64.5h-42q0 57 29 91.5
t83 34.5q21 0 40.5 -5.5t35 -17.5t25 -29.5t9.5 -41.5q0 -25 -10.5 -45t-31.5 -31q26 -11 40.5 -33.5t14.5 -52.5zM81 348q1 33 11 55.5t26.5 40.5t38 32.5t44.5 30.5q14 9 25.5 18.5t22.5 20.5q14 14 20.5 27.5t6.5 33.5q0 30 -20.5 46.5t-49.5 16.5q-39 0 -56 -26.5
t-17 -68.5h-43q-1 60 28 97t89 37q48 0 80 -25.5t32 -76.5q0 -28 -10.5 -49.5t-27.5 -39t-38 -31.5l-42 -28q-19 -13 -40.5 -30t-28.5 -40h188v-41h-239zM150 9l-26 24l538 562l27 -24z" />
    <glyph glyph-name="oneeighth" unicode="&#x215b;" horiz-adv-x="736" 
d="M618 -3q0 34 -24.5 52t-58.5 18q-33 0 -57 -17.5t-24 -52.5t23 -53t57 -18q35 0 59.5 18t24.5 53zM603 164q0 26 -18.5 40t-49.5 14q-26 0 -47 -14t-21 -40q0 -32 20.5 -45t46.5 -13q28 0 48 13.5t20 44.5h1zM661 -3q0 -27 -10 -48t-27 -35t-40 -21t-49 -7
q-64 0 -95 31.5t-31 79.5q0 29 15.5 54.5t44.5 36.5q-21 11 -33 30.5t-12 45.5q0 24 10 41.5t26 29t35.5 17t38.5 5.5q20 0 40 -5.5t36.5 -17t26.5 -29t10 -41.5q0 -26 -12 -45.5t-33 -30.5q28 -11 43.5 -34.5t15.5 -56.5zM102 9l-27 24l538 562l28 -24zM176 347v248h-72v34
q19 1 32.5 4.5t22.5 12t14.5 23.5t8.5 38h37v-360h-43z" />
    <glyph glyph-name="threeeighths" unicode="&#x215c;" horiz-adv-x="770" 
d="M641 -3q0 34 -24.5 52t-58.5 18q-33 0 -56.5 -17.5t-23.5 -52.5t23 -53t57 -18q35 0 59 18t24 53zM626 164q0 26 -18.5 40t-49.5 14q-26 0 -46.5 -14t-20.5 -40q0 -32 20.5 -45t46.5 -13q28 0 48 13.5t20 44.5zM684 -3q0 -27 -10 -48t-27 -35t-40 -21t-49 -7
q-64 0 -94.5 31.5t-30.5 79.5q0 29 15 54.5t44 36.5q-44 23 -44 76q0 24 10 41.5t26 29t35.5 17t38.5 5.5q20 0 40 -5.5t36 -17t26 -29t10 -41.5q0 -26 -12 -45.5t-32 -30.5q28 -11 43 -34.5t15 -56.5zM125 9l-26 24l538 562l27 -24zM329 454q0 -27 -10 -47.5t-27 -34.5
t-39 -21.5t-46 -7.5q-55 0 -90.5 32.5t-30.5 95.5h43q-2 -42 18.5 -66.5t58.5 -24.5q32 0 56 19t24 52q0 32 -21 49t-53 17h-32v40h32q22 0 42 13.5t20 42.5t-19.5 43.5t-48.5 14.5q-35 0 -53.5 -22.5t-16.5 -64.5h-42q0 57 29 91.5t83 34.5q21 0 40.5 -5.5t35 -17.5
t25 -29.5t9.5 -41.5q0 -25 -10.5 -45t-31.5 -31q26 -11 40.5 -33.5t14.5 -52.5z" />
    <glyph glyph-name="fiveeighths" unicode="&#x215d;" horiz-adv-x="767" 
d="M641 -3q0 34 -24.5 52t-58.5 18q-33 0 -57 -17.5t-24 -52.5t23 -53t57 -18q35 0 59.5 18t24.5 53zM626 164q0 26 -18.5 40t-49.5 14q-26 0 -47 -14t-21 -40q0 -32 20.5 -45t46.5 -13q28 0 48 13.5t20 44.5h1zM684 -3q0 -27 -10 -48t-27 -35t-40 -21t-49 -7
q-64 0 -95 31.5t-31 79.5q0 29 15.5 54.5t44.5 36.5q-21 11 -33 30.5t-12 45.5q0 24 10 41.5t26 29t35.5 17t38.5 5.5q20 0 40 -5.5t36.5 -17t26.5 -29t10 -41.5q0 -26 -12 -45.5t-33 -30.5q28 -11 43.5 -34.5t15.5 -56.5zM125 9l-27 24l538 562l28 -24zM330 463
q0 -26 -10 -48t-27 -38t-40 -25t-48 -9q-50 0 -85 30.5t-37 86.5h46q0 -37 22 -58t54 -21q38 0 60.5 25t22.5 60t-23.5 59.5t-59.5 24.5q-22 0 -41 -9.5t-33 -29.5h-38l35 191h186v-40h-152l-19 -94q29 20 64 20q57 0 90 -35.5t33 -89.5z" />
    <glyph glyph-name="seveneighths" unicode="&#x215e;" horiz-adv-x="734" 
d="M618 -3q0 34 -24.5 52t-58.5 18q-33 0 -57 -17.5t-24 -52.5t23 -53t57 -18q35 0 59.5 18t24.5 53zM603 164q0 26 -18.5 40t-49.5 14q-26 0 -47 -14t-21 -40q0 -32 20.5 -45t46.5 -13q28 0 48 13.5t20 44.5h1zM661 -3q0 -27 -10 -48t-27 -35t-40 -21t-49 -7
q-64 0 -95 31.5t-31 79.5q0 29 15.5 54.5t44.5 36.5q-21 11 -33 30.5t-12 45.5q0 24 10 41.5t26 29t35.5 17t38.5 5.5q20 0 40 -5.5t36.5 -17t26.5 -29t10 -41.5q0 -26 -12 -45.5t-33 -30.5q28 -11 43.5 -34.5t15.5 -56.5zM100 9l-27 24l538 562l28 -24zM328 663
q-18 -18 -41.5 -46.5t-44.5 -68t-36.5 -90t-18.5 -113.5h-48q3 46 12.5 86t26 77.5t41.5 74.5t59 76h-186v43h236v-39z" />
    <glyph glyph-name="uni2160" unicode="&#x2160;" 
d="M461 668v-706h-28v706h28z" />
    <glyph glyph-name="uni2161" unicode="&#x2161;" 
d="M326 668v-706h-28v706h28zM596 668v-706h-28v706h28z" />
    <glyph glyph-name="uni2162" unicode="&#x2162;" 
d="M238 668v-706h-28v706h28zM464 668v-706h-28v706h28zM683 668v-706h-28v706h28z" />
    <glyph glyph-name="uni2163" unicode="&#x2163;" 
d="M545 -44l-217 708h28l201 -658h3l214 658h29l-234 -708h-24zM205 668v-706h-28v706h28z" />
    <glyph glyph-name="uni2164" unicode="&#x2164;" 
d="M432 -44l-257 708h28l146 -388q29 -81 53.5 -150.5t41.5 -128.5h3q20 59 45.5 129t57.5 150l147 388h33l-274 -708h-24z" />
    <glyph glyph-name="uni2165" unicode="&#x2165;" 
d="M342 -44l-217 708h28l201 -653h3l214 653h29l-234 -708h-24zM738 668v-706h-28v706h28z" />
    <glyph glyph-name="uni2166" unicode="&#x2166;" 
d="M272 -44l-187 708h28l171 -648h3l184 648h29l-204 -708h-24zM628 668v-706h-28v706h28zM771 668v-706h-28v706h28z" />
    <glyph glyph-name="uni2167" unicode="&#x2167;" 
d="M227 -44l-147 708h28l131 -638h3l144 638h29l-164 -708h-24zM533 668v-706h-28v706h28zM674 668v-706h-28v706h28zM811 668v-706h-28v706h28z" />
    <glyph glyph-name="uni2168" unicode="&#x2168;" 
d="M161 668v-706h-28v706h28zM775 -41l-226 338h-2l-223 -338h-30l240 363l-232 347h30l216 -320h2l225 320h30l-243 -347l243 -363h-30z" />
    <glyph glyph-name="uni2169" unicode="&#x2169;" 
d="M686 -41l-244 337h-2l-241 -337h-32l258 363l-250 351h32l234 -323h2l243 323h32l-261 -351l261 -363h-32z" />
    <glyph glyph-name="uni2170" unicode="&#x2170;" 
d="M433 -28v519h28v-519h-28zM433 673h28v-61h-28v61z" />
    <glyph glyph-name="uni2171" unicode="&#x2171;" 
d="M301 -38v519h28v-519h-28zM565 -38v519h28v-519h-28zM301 673h28v-61h-28v61zM565 673h28v-61h-28v61z" />
    <glyph glyph-name="uni2172" unicode="&#x2172;" 
d="M208 -38v519h28v-519h-28zM436 -38v519h28v-519h-28zM655 -38v519h28v-519h-28zM208 673h28v-61h-28v61zM436 673h28v-61h-28v61zM655 673h28v-61h-28v61z" />
    <glyph glyph-name="uni2173" unicode="&#x2173;" 
d="M228 -38v519h28v-519h-28zM386 473l165 -484l161 484h33l-176 -515h-38l-175 515h30zM228 673h28v-61h-28v61z" />
    <glyph glyph-name="uni2174" unicode="&#x2174;" 
d="M274 473l175 -484l171 484h33l-186 -515h-38l-185 515h30z" />
    <glyph glyph-name="uni2175" unicode="&#x2175;" 
d="M642 -38v519h28v-519h-28zM188 473l165 -484l161 484h33l-176 -515h-38l-175 515h30zM642 673h28v-61h-28v61z" />
    <glyph glyph-name="uni2176" unicode="&#x2176;" 
d="M562 -38v519h28v-519h-28zM148 473l145 -484l141 484h33l-156 -515h-38l-155 515h30zM706 -38v519h28v-519h-28zM562 673h28v-61h-28v61zM706 673h28v-61h-28v61z" />
    <glyph glyph-name="uni2177" unicode="&#x2177;" 
d="M522 -38v519h28v-519h-28zM118 473l145 -484l141 484h33l-156 -515h-38l-155 515h30zM646 -38v519h28v-519h-28zM767 -38v519h28v-519h-28zM522 673h28v-61h-28v61zM646 673h28v-61h-28v61zM767 673h28v-61h-28v61z" />
    <glyph glyph-name="uni2178" unicode="&#x2178;" 
d="M216 -38v519h28v-519h-28zM578 219l175 -258h-33l-159 235l-160 -235h-33l176 258l-166 253h32l151 -230l150 230h32zM210 673h28v-61h-28v61z" />
    <glyph glyph-name="uni2179" unicode="&#x2179;" 
d="M464 219l185 -258h-33l-98 138q-19 26 -37.5 54t-33.5 48q-15 -20 -35 -50t-39 -55l-96 -135h-33l186 258l-186 253h32l96 -130q19 -25 39.5 -55t35.5 -50q15 20 34 48t38 54l98 133h32z" />
    <glyph glyph-name="arrowleft" unicode="&#x2190;" 
d="M21 300l181 163l-88 -151h807v-24h-807l88 -151z" />
    <glyph glyph-name="arrowup" unicode="&#x2191;" horiz-adv-x="464" 
d="M395 618l-151 88v-906h-24v906l-151 -88l163 181z" />
    <glyph glyph-name="arrowright" unicode="&#x2192;" 
d="M739 137l88 151h-807v24h807l-88 151l181 -163z" />
    <glyph glyph-name="arrowdown" unicode="&#x2193;" horiz-adv-x="464" 
d="M232 -199l-163 181l151 -88v906h24v-906l151 88z" />
    <glyph glyph-name="arrowboth" unicode="&#x2194;" 
d="M745 141l83 148h-715l83 -148l-177 159l177 159l-83 -148h715l-83 148l176 -159z" />
    <glyph glyph-name="arrowupdn" unicode="&#x2195;" horiz-adv-x="444" 
d="M381 622l-148 83v-811l148 83l-159 -177l-159 177l148 -83v811l-148 -83l159 176z" />
    <glyph glyph-name="uni2196" unicode="&#x2196;" 
d="M888 -188l-791 878l-62 -153v243l241 -27l-162 -45l791 -879z" />
    <glyph glyph-name="uni2197" unicode="&#x2197;" 
d="M843 690l-791 -878l-17 17l791 879l-162 45l241 27v-243z" />
    <glyph glyph-name="uni2198" unicode="&#x2198;" 
d="M664 -155l162 45l-791 879l17 17l791 -878l62 153v-243z" />
    <glyph glyph-name="uni2199" unicode="&#x2199;" 
d="M114 -110l162 -45l-241 -27v243l62 -153l791 878l17 -17z" />
    <glyph glyph-name="arrowdblright" unicode="&#x21d2;" 
d="M670 47l-21 21l125 124h-754v29h782l79 78l-79 78h-782v29h753l-124 123l21 21l250 -251z" />
    <glyph glyph-name="arrowdblboth" unicode="&#x21d4;" 
d="M801 377h-663l-79 -78l79 -78h663l79 78zM669 47l-21 21l125 124h-607l125 -124l-21 -21l-250 252l250 251l21 -21l-124 -123h605l-124 123l21 21l250 -251z" />
    <glyph glyph-name="universal" unicode="&#x2200;" 
d="M485 -40h-30l-264 714h28l82 -222h337l83 222h28zM470 -1l158 425h-316z" />
    <glyph glyph-name="partialdiff" unicode="&#x2202;" horiz-adv-x="496" 
d="M346 314q-10 3 -23.5 5t-26.5 2q-33 0 -64 -10.5t-55 -29.5t-38.5 -46t-14.5 -60q0 -26 16.5 -40.5t38.5 -14.5q29 0 53 16.5t43 39.5q12 15 22 29.5t18.5 30t16 34.5t13.5 44h1zM406 354q0 -51 -18 -97t-49 -81t-72.5 -55.5t-88.5 -20.5q-40 0 -69 22.5t-29 64.5
q0 40 19.5 70.5t49.5 51t66 30.5t68 10q20 0 37.5 -4t27.5 -9q1 10 0.5 33.5t-8.5 47.5t-26.5 42.5t-54.5 18.5q-38 0 -65.5 -16t-55.5 -45l-22 15q11 13 26 27.5t34 25.5t42 18.5t51 7.5q66 0 101.5 -43.5t35.5 -113.5z" />
    <glyph glyph-name="existential" unicode="&#x2203;" 
d="M234 -39v28h435v329h-404v27h404v300h-428v28h464v-712h-471z" />
    <glyph glyph-name="gradient" unicode="&#x2207;" 
d="M142 565l327 -523l329 523h-656zM469 -22l-388 618h778z" />
    <glyph glyph-name="element" unicode="&#x2208;" 
d="M410 556q-131 0 -193.5 -61.5t-65.5 -170.5h667v-28h-667q3 -110 65.5 -171t193.5 -61h408v-28h-408q-151 0 -220 72.5t-69 201.5t69 201.5t220 72.5h408v-28h-408z" />
    <glyph glyph-name="suchthat" unicode="&#x220b;" 
d="M529 556h-408v28h408q151 0 220 -72.5t69 -201.5t-69 -201.5t-220 -72.5h-408v28h408q131 0 193 61t66 171h-667v28h667q-4 109 -66 170.5t-193 61.5z" />
    <glyph glyph-name="product" unicode="&#x220f;" horiz-adv-x="754" 
d="M549 638v-677h-43v677h-258v-677h-43v677h-149v35h642v-35h-149z" />
    <glyph glyph-name="summation" unicode="&#x2211;" horiz-adv-x="658" 
d="M71 -39v32l290 334l-281 304v42h503v-34h-440l284 -315l-288 -329h448v-34h-516z" />
    <glyph glyph-name="radical" unicode="&#x221a;" horiz-adv-x="804" 
d="M399 583l-209 -646l-110 206l-53 -42l-16 21l77 68l96 -178l192 600h412v-29h-389z" />
    <glyph glyph-name="proportional" unicode="&#x221d;" horiz-adv-x="721" 
d="M202 157q40 0 69 11.5t50.5 32t38 49t33.5 63.5q-14 26 -31.5 54t-41 51.5t-52.5 39t-66 15.5q-28 0 -55.5 -12t-49 -33.5t-35 -50t-13.5 -61.5q0 -37 14 -66.5t36.5 -50t49.5 -31.5t53 -11zM685 436q-22 14 -48 24.5t-46 10.5q-30 0 -55 -12t-46 -33t-38 -50t-32 -62
q13 -33 30.5 -61.5t39.5 -49.5t47 -33.5t54 -12.5q20 0 42.5 5.5t42.5 14.5l10 -28q-24 -13 -48 -16.5t-47 -3.5q-30 0 -58 14t-52 35.5t-42.5 48.5t-30.5 53q-14 -24 -32 -50t-41.5 -48.5t-54.5 -37t-71 -14.5q-33 0 -66.5 11.5t-60.5 35t-44 58t-17 81.5q0 44 16.5 78.5
t43 58t60 35.5t67.5 12q38 0 68.5 -14.5t54.5 -36.5t42.5 -48t32.5 -50q16 28 34.5 55t41 48t49.5 33.5t60 12.5q28 0 55.5 -10t53.5 -29z" />
    <glyph glyph-name="infinity" unicode="&#x221e;" horiz-adv-x="813" 
d="M396 313q-12 24 -29 49.5t-39.5 47.5t-51.5 36t-65 14q-66 0 -105 -40t-39 -106t37 -106t106 -40q36 0 65.5 14t52 35.5t39.5 47t29 48.5zM422 313q12 -23 29 -48.5t39.5 -47t52 -35.5t65.5 -14q69 0 106 40t37 106t-39 106t-105 40q-36 0 -65 -14t-51.5 -36t-39.5 -47.5
t-29 -49.5zM409 350q13 24 31 49.5t43 46.5t57 35t73 14q33 0 64.5 -12t56 -35t39 -57t14.5 -77q0 -45 -15 -79t-40 -56.5t-56 -34t-64 -11.5q-41 0 -73 13.5t-56.5 34.5t-42.5 46.5t-31 48.5q-13 -23 -31 -48.5t-42.5 -46.5t-56.5 -34.5t-73 -13.5q-33 0 -64 11.5t-56 34
t-40 56.5t-15 79q0 43 14.5 77t39 57t56 35t64.5 12q41 0 73 -14t57 -35t43 -46.5t31 -49.5z" />
    <glyph glyph-name="angle" unicode="&#x2220;" 
d="M773 0h-606v18l484 563l20 -17l-464 -540h566v-24z" />
    <glyph glyph-name="logicaland" unicode="&#x2227;" 
d="M460 587h20l295 -570l-24 -12l-281 543l-281 -543l-24 12z" />
    <glyph glyph-name="logicalor" unicode="&#x2228;" 
d="M165 573l24 12l281 -543l281 543l24 -12l-295 -570h-20z" />
    <glyph glyph-name="intersection" unicode="&#x2229;" horiz-adv-x="646" 
d="M324 644q-116 0 -181 -64.5t-65 -199.5v-408h-28v408q0 151 72.5 220t201.5 69t201.5 -69t72.5 -220v-408h-28v408q0 135 -65.5 199.5t-180.5 64.5z" />
    <glyph glyph-name="union" unicode="&#x222a;" horiz-adv-x="646" 
d="M324 -29q115 0 180.5 64.5t65.5 199.5v408h28v-408q0 -151 -72.5 -220t-201.5 -69t-201.5 69t-72.5 220v408h28v-408q0 -135 65 -199.5t181 -64.5z" />
    <glyph glyph-name="integral" unicode="&#x222b;" horiz-adv-x="508" 
d="M421 647q-6 17 -21.5 29.5t-36.5 12.5q-15 0 -29.5 -27t-26.5 -77.5t-21 -122.5t-12 -162q-3 -106 -14 -190t-35 -141q-14 -35 -35.5 -57.5t-49.5 -22.5q-30 0 -50.5 14.5t-29.5 33.5l25 13q7 -14 22.5 -26.5t35.5 -12.5q15 0 30 27t27.5 77t21 122.5t10.5 162.5
q2 106 14 190t36 141q14 35 35.5 57.5t49.5 22.5q27 0 49.5 -14.5t31.5 -36.5z" />
    <glyph glyph-name="uni222C" unicode="&#x222c;" 
d="M516 647q-6 17 -21.5 29.5t-36.5 12.5q-15 0 -29.5 -27t-26.5 -77.5t-21 -122.5t-12 -162q-3 -106 -14 -190t-35 -141q-14 -35 -35.5 -57.5t-49.5 -22.5q-30 0 -50.5 14.5t-30.5 33.5l26 13q7 -14 22 -26.5t36 -12.5q14 0 29 27t28 77t21.5 122.5t10.5 162.5
q2 106 13.5 190t35.5 141q15 35 36 57.5t49 22.5t50 -15t32 -36zM759 647q-6 17 -21.5 29.5t-36.5 12.5q-15 0 -29.5 -27t-26.5 -77.5t-21 -122.5t-12 -162q-3 -106 -14 -190t-35 -141q-14 -35 -35.5 -57.5t-49.5 -22.5q-30 0 -50.5 14.5t-30.5 33.5l26 13q7 -14 22 -26.5
t36 -12.5q14 0 29 27t28 77t21.5 122.5t10.5 162.5q2 106 13.5 190t35.5 141q14 35 35.5 57.5t49.5 22.5q27 0 49 -15t33 -36z" />
    <glyph glyph-name="uni222E" unicode="&#x222e;" 
d="M492 158q-2 -1 -5 -1t-5 -1q-5 -57 -15 -104t-25 -83q-14 -35 -35.5 -57.5t-49.5 -22.5q-30 0 -50.5 14.5t-29.5 33.5l25 13q7 -14 22.5 -26.5t35.5 -12.5q23 0 45.5 64.5t34.5 181.5q-24 3 -45.5 12.5t-38.5 24.5t-27 35.5t-10 46.5q0 30 10 58t28 50.5t43 37.5t54 20h3
q6 58 16 105t26 84q14 35 35.5 57.5t49.5 22.5q27 0 49.5 -14.5t31.5 -36.5l-27 -13q-6 17 -21.5 29.5t-36.5 12.5q-24 0 -45.5 -65t-33.5 -181q24 -3 46.5 -11.5t40.5 -23.5t28.5 -36.5t10.5 -49.5q0 -30 -10 -57.5t-28 -49.5t-42.5 -37.5t-54.5 -19.5zM593 317
q-2 50 -30 71.5t-65 23.5q-2 -26 -4 -54t-3 -58q-2 -59 -6 -110h2q48 8 77.5 43.5t28.5 83.5zM449 300q1 29 2 56t3 53q-23 -5 -41.5 -17.5t-32 -30t-20.5 -38.5t-6 -42q3 -51 28.5 -71.5t60.5 -22.5q5 53 6 113z" />
    <glyph glyph-name="therefore" unicode="&#x2234;" 
d="M257 123q0 -17 -11.5 -28.5t-28.5 -11.5t-28.5 11.5t-11.5 28.5t11.5 28.5t28.5 11.5t28.5 -11.5t11.5 -28.5zM763 123q0 -17 -11.5 -28.5t-28.5 -11.5t-28.5 11.5t-11.5 28.5t11.5 28.5t28.5 11.5t28.5 -11.5t11.5 -28.5zM510 548q0 -17 -11.5 -28.5t-28.5 -11.5
t-28.5 11.5t-11.5 28.5t11.5 28.5t28.5 11.5t28.5 -11.5t11.5 -28.5z" />
    <glyph glyph-name="uni2235" unicode="&#x2235;" 
d="M257 534q0 -17 -11.5 -28.5t-28.5 -11.5t-28.5 11.5t-11.5 28.5t11.5 28.5t28.5 11.5t28.5 -11.5t11.5 -28.5zM763 534q0 -17 -11.5 -28.5t-28.5 -11.5t-28.5 11.5t-11.5 28.5t11.5 28.5t28.5 11.5t28.5 -11.5t11.5 -28.5zM510 109q0 -17 -11.5 -28.5t-28.5 -11.5
t-28.5 11.5t-11.5 28.5t11.5 28.5t28.5 11.5t28.5 -11.5t11.5 -28.5z" />
    <glyph glyph-name="similar" unicode="&#x223c;" 
d="M757 339q-11 -18 -27.5 -35t-37 -30t-42.5 -21t-44 -8q-43 0 -73.5 9t-62.5 26q-26 14 -56 30t-70 16q-37 0 -69 -20t-51 -48l-31 21q11 18 27.5 34t37 28.5t42.5 19.5t44 7q43 0 73.5 -14t62.5 -31t59 -27.5t67 -10.5q37 0 69.5 23t51.5 51z" />
    <glyph glyph-name="similar" unicode="&#xff5e;" 
d="M757 339q-11 -18 -27.5 -35t-37 -30t-42.5 -21t-44 -8q-43 0 -73.5 9t-62.5 26q-26 14 -56 30t-70 16q-37 0 -69 -20t-51 -48l-31 21q11 18 27.5 34t37 28.5t42.5 19.5t44 7q43 0 73.5 -14t62.5 -31t59 -27.5t67 -10.5q37 0 69.5 23t51.5 51z" />
    <glyph glyph-name="similar" unicode="&#x301c;" 
d="M757 339q-11 -18 -27.5 -35t-37 -30t-42.5 -21t-44 -8q-43 0 -73.5 9t-62.5 26q-26 14 -56 30t-70 16q-37 0 -69 -20t-51 -48l-31 21q11 18 27.5 34t37 28.5t42.5 19.5t44 7q43 0 73.5 -14t62.5 -31t59 -27.5t67 -10.5q37 0 69.5 23t51.5 51z" />
    <glyph glyph-name="uni223D" unicode="&#x223d;" horiz-adv-x="793" 
d="M770 316q0 -38 -13.5 -71.5t-37.5 -59.5t-57 -41t-72 -15q-32 0 -60.5 10.5t-57.5 30.5l19 26q22 -17 48.5 -28t50.5 -11q35 0 62.5 14t47 37t29.5 51t10 57q0 33 -12 61.5t-32.5 49.5t-47.5 33t-56 12q-32 0 -56.5 -10t-44.5 -28.5t-37 -45t-34 -59.5l-8 -15
q-12 -24 -30 -56t-44 -60.5t-61 -48t-82 -19.5q-32 0 -62.5 13t-55.5 37.5t-40 59t-15 76.5q0 40 15 74t39 58.5t55 38t63 13.5t63 -10t57 -26l-16 -24q-23 13 -49.5 21.5t-47.5 8.5q-36 0 -64 -12t-46.5 -33t-28 -49t-9.5 -60q0 -31 11.5 -59.5t32 -50t47 -34t56.5 -12.5
q41 0 73 20.5t56 49.5t41 61t28 56q15 30 32.5 57.5t40.5 48.5t52 34t67 13q40 0 73 -15.5t57 -41t37.5 -58.5t13.5 -69z" />
    <glyph glyph-name="uni2252" unicode="&#x2252;" horiz-adv-x="748" 
d="M230 540q0 -20 -15.5 -33.5t-35.5 -13.5t-35.5 13.5t-15.5 33.5q0 23 15.5 37t35.5 14t35.5 -14t15.5 -37zM616 74q0 -20 -14 -35.5t-37 -15.5q-20 0 -35.5 15.5t-15.5 35.5t15.5 35.5t35.5 15.5q23 0 37 -15.5t14 -35.5zM694 379h-644v28h644v-28zM694 211h-644v28h644
v-28z" />
    <glyph glyph-name="notequal" unicode="&#x2260;" horiz-adv-x="647" 
d="M269 190h-239v36h248l45 172h-293v36h302l52 201l35 -8l-50 -193h248v-36h-258l-44 -172h302v-36h-311l-53 -207l-35 9z" />
    <glyph glyph-name="equivalence" unicode="&#x2261;" horiz-adv-x="748" 
d="M694 462h-644v28h644v-28zM694 297h-644v28h644v-28zM694 132h-644v28h644v-28z" />
    <glyph glyph-name="lessequal" unicode="&#x2264;" horiz-adv-x="672" 
d="M30 -37v31h612v-31h-612zM41 346v30l569 289l15 -26l-542 -278l542 -278l-15 -26z" />
    <glyph glyph-name="greaterequal" unicode="&#x2265;" horiz-adv-x="672" 
d="M30 -37v31h612v-31h-612zM62 57l-15 26l542 278l-542 278l15 26l569 -289v-30z" />
    <glyph glyph-name="propersubset" unicode="&#x2282;" 
d="M151 310q0 -116 62 -181t197 -65h408v-28h-408q-151 0 -220 72.5t-69 201.5t69 201.5t220 72.5h408v-28h-408q-68 0 -116.5 -17t-80.5 -48.5t-47 -77t-15 -103.5z" />
    <glyph glyph-name="propersuperset" unicode="&#x2283;" 
d="M788 310q0 58 -15 103.5t-47 77t-81 48.5t-116 17h-408v28h408q151 0 220 -72.5t69 -201.5t-69 -201.5t-220 -72.5h-408v28h408q135 0 197 65t62 181z" />
    <glyph glyph-name="reflexsubset" unicode="&#x2286;" 
d="M121 378q0 64 17 109.5t52 73.5t90 41t130 13h408v-28h-408q-68 0 -116.5 -11t-80.5 -36t-47 -64.5t-15 -97.5t15 -98t47 -64.5t80.5 -35.5t116.5 -11h408v-28h-408q-75 0 -130 13t-90 41t-52 73t-17 110zM121 -4v28h701v-28h-701z" />
    <glyph glyph-name="reflexsuperset" unicode="&#x2287;" 
d="M819 378q0 -65 -17 -110t-52 -73t-90 -41t-130 -13h-408v28h408q67 0 116 11t81 35.5t47 64.5t15 98t-15 97.5t-47 64.5t-81 36t-116 11h-408v28h408q75 0 130 -13t90 -41t52 -73.5t17 -109.5zM118 -4v28h701v-28h-701z" />
    <glyph glyph-name="uni2299" unicode="&#x2299;" 
d="M625 299q0 -32 -12 -60.5t-33 -49.5t-49.5 -33t-60.5 -12t-60 12t-49 33t-33.5 49.5t-12.5 60.5t12.5 60.5t33.5 49.5t49 33t60 12t60.5 -12t49.5 -33t33 -49.5t12 -60.5zM845 300q0 76 -29 143t-79.5 117t-117.5 79.5t-142 29.5q-76 0 -143 -29.5t-117 -79.5t-79 -117
t-29 -143q0 -75 29 -142t79 -117t117 -79t143 -29q75 0 142 29t117.5 79t79.5 117t29 142zM871 300q0 -82 -31 -153.5t-84.5 -125t-125 -84.5t-153.5 -31q-81 0 -152.5 31t-125 84.5t-85 125t-31.5 153.5t31.5 154t85 125t125 84t152.5 31q82 0 153.5 -31t125 -84t84.5 -125
t31 -154z" />
    <glyph glyph-name="uni2299" unicode="&#x25c9;" 
d="M625 299q0 -32 -12 -60.5t-33 -49.5t-49.5 -33t-60.5 -12t-60 12t-49 33t-33.5 49.5t-12.5 60.5t12.5 60.5t33.5 49.5t49 33t60 12t60.5 -12t49.5 -33t33 -49.5t12 -60.5zM845 300q0 76 -29 143t-79.5 117t-117.5 79.5t-142 29.5q-76 0 -143 -29.5t-117 -79.5t-79 -117
t-29 -143q0 -75 29 -142t79 -117t117 -79t143 -29q75 0 142 29t117.5 79t79.5 117t29 142zM871 300q0 -82 -31 -153.5t-84.5 -125t-125 -84.5t-153.5 -31q-81 0 -152.5 31t-125 84.5t-85 125t-31.5 153.5t31.5 154t85 125t125 84t152.5 31q82 0 153.5 -31t125 -84t84.5 -125
t31 -154z" />
    <glyph glyph-name="perpendicular" unicode="&#x22a5;" 
d="M788 0h-635v26h302v539h31v-539h302v-26z" />
    <glyph glyph-name="uni2312" unicode="&#x2312;" 
d="M680 513q-16 24 -36.5 45.5t-46.5 38t-57.5 26t-67.5 9.5q-39 0 -71.5 -9.5t-59 -26t-46.5 -38t-34 -45.5h-36q19 31 43 57.5t54 45.5t67 29.5t81 10.5q86 0 144.5 -40.5t96.5 -102.5h-31z" />
    <glyph glyph-name="uni2460" unicode="&#x2460;" 
d="M377 451q-9 -7 -15 1l-5 7q-7 9 1 15l123 106q4 3 10 3h10q11 0 11 -11v-549q0 -11 -11 -11h-10q-11 0 -11 11v516zM882 301q0 86 -32 161t-88 131t-131 88t-161 32t-161 -32t-131 -88t-88 -131t-32 -161t32 -161t88 -131t131 -88t161 -32t161 32t131 88t88 131t32 161z
M913 301q0 -92 -35 -172.5t-95 -140.5t-141 -95t-172 -35q-92 0 -172.5 35t-140.5 95t-95 140.5t-35 172.5q0 91 35 172t95 141t140.5 95t172.5 35q91 0 172 -35t141 -95t95 -141t35 -172z" />
    <glyph glyph-name="uni2461" unicode="&#x2461;" 
d="M319 37q-8 0 -8 8v21q0 6 4 10l129 136q33 34 61.5 67.5t49.5 65t33 61t12 56.5q0 51 -36.5 82.5t-97.5 31.5q-30 0 -64.5 -11t-64.5 -28q-5 -2 -6 0t-3 7l-3 16q0 5 2 6.5t7 3.5q43 20 71 27.5t58 7.5q39 0 70 -10.5t53 -29.5t33.5 -44.5t11.5 -56.5q-2 -44 -17 -75
t-37 -66q-22 -28 -46.5 -58t-56.5 -65l-131 -134h293q8 0 8 -8v-13q0 -8 -8 -8h-317zM882 301q0 86 -32 161t-88 131t-131 88t-161 32t-161 -32t-131 -88t-88 -131t-32 -161t32 -161t88 -131t131 -88t161 -32t161 32t131 88t88 131t32 161zM913 301q0 -92 -35 -172.5
t-95 -140.5t-141 -95t-172 -35q-92 0 -172.5 35t-140.5 95t-95 140.5t-35 172.5q0 91 35 172t95 141t140.5 95t172.5 35q91 0 172 -35t141 -95t95 -141t35 -172z" />
    <glyph glyph-name="uni2462" unicode="&#x2462;" 
d="M913 301q0 -92 -35 -172.5t-95 -140.5t-141 -95t-172 -35q-92 0 -172.5 35t-140.5 95t-95 140.5t-35 172.5q0 91 35 172t95 141t140.5 95t172.5 35q91 0 172 -35t141 -95t95 -141t35 -172zM882 301q0 86 -32 161t-88 131t-131 88t-161 32t-161 -32t-131 -88t-88 -131
t-32 -161t32 -161t88 -131t131 -88t161 -32t161 32t131 88t88 131t32 161zM361 543q-8 -2 -9 4l-3 15q-1 6 8 11q34 11 64.5 16.5t64.5 5.5t66.5 -8t57.5 -25t40.5 -43.5t15.5 -63.5q0 -29 -10.5 -52t-28 -40.5t-40 -28t-46.5 -14.5q28 -1 51.5 -12t40 -30t25.5 -43t9 -51
q0 -41 -17.5 -72t-46 -51.5t-65.5 -30.5t-76 -9q-40 1 -70 5t-60 13q-8 3 -7 12l2 16q2 7 9 2q32 -12 62 -15.5t68 -4.5q32 -1 62.5 7.5t54 26t38 44t14.5 62.5q0 54 -41 85t-142 31h-38q-10 0 -10 11v6q0 12 10 12h3q36 0 74.5 3.5t70 16t52 36.5t20.5 65q0 29 -13 50
t-34 35t-48.5 20.5t-57.5 6.5q-26 0 -58.5 -6.5t-61.5 -17.5z" />
    <glyph glyph-name="uni2463" unicode="&#x2463;" 
d="M913 301q0 -92 -35 -172.5t-95 -140.5t-141 -95t-172 -35q-92 0 -172.5 35t-140.5 95t-95 140.5t-35 172.5q0 91 35 172t95 141t140.5 95t172.5 35q91 0 172 -35t141 -95t95 -141t35 -172zM882 301q0 86 -32 161t-88 131t-131 88t-161 32t-161 -32t-131 -88t-88 -131
t-32 -161t32 -161t88 -131t131 -88t161 -32t161 32t131 88t88 131t32 161zM505 585q5 7 6.5 8t10.5 1h31q11 0 11 -11v-393h75q11 0 11 -11v-8q0 -10 -11 -10h-75v-123q0 -11 -11 -11h-10q-11 0 -11 11v123h-276q-11 0 -11 10v14q0 5 1 7l3 6zM277 190h255v380z" />
    <glyph glyph-name="uni2464" unicode="&#x2464;" 
d="M357 347q19 8 47 13t65 4q39 -1 72 -11.5t57 -31.5t38 -51.5t14 -70.5q0 -48 -15.5 -84t-43 -60t-66 -36t-84.5 -12q-35 0 -60 4t-52 13q-11 3 -11 14v12q0 13 11 8q28 -14 54 -18t58 -4q41 0 73.5 11.5t55.5 32t35 48.5t12 60q0 33 -8 60t-27.5 46.5t-52 30t-81.5 10.5
q-20 0 -33 -2t-24 -5.5t-22 -7.5t-25 -8q-19 -5 -19 14l5 226v22q0 11 10 11h274q10 0 10 -11v-7q0 -11 -10 -11h-252zM882 301q0 86 -32 161t-88 131t-131 88t-161 32t-161 -32t-131 -88t-88 -131t-32 -161t32 -161t88 -131t131 -88t161 -32t161 32t131 88t88 131t32 161z
M913 301q0 -92 -35 -172.5t-95 -140.5t-141 -95t-172 -35q-92 0 -172.5 35t-140.5 95t-95 140.5t-35 172.5q0 91 35 172t95 141t140.5 95t172.5 35q91 0 172 -35t141 -95t95 -141t35 -172z" />
    <glyph glyph-name="uni2465" unicode="&#x2465;" 
d="M882 301q0 86 -32 161t-88 131t-131 88t-161 32t-161 -32t-131 -88t-88 -131t-32 -161t32 -161t88 -131t131 -88t161 -32t161 32t131 88t88 131t32 161zM913 301q0 -92 -35 -172.5t-95 -140.5t-141 -95t-172 -35q-92 0 -172.5 35t-140.5 95t-95 140.5t-35 172.5
q0 91 35 172t95 141t140.5 95t172.5 35q91 0 172 -35t141 -95t95 -141t35 -172zM618 192q0 32 -8.5 59.5t-26 48t-45 32.5t-65.5 12q-33 0 -61.5 -11t-48.5 -30.5t-30.5 -46t-8.5 -57.5q1 -30 11.5 -59.5t29 -52.5t43.5 -37t57 -14t60 12.5t48.5 34t32.5 49.5t12 60z
M615 548q-18 6 -39.5 10t-44.5 3q-60 -3 -101 -25.5t-66.5 -60t-36.5 -88.5t-11 -112q17 44 56.5 71t99.5 27q82 0 130 -45.5t48 -131.5q0 -41 -13.5 -75.5t-37.5 -60t-58.5 -39.5t-76.5 -14q-83 0 -133.5 67.5t-50.5 203.5q0 67 14 124t44.5 99t79.5 65.5t119 23.5
q20 0 42 -3.5t40 -8.5q12 -1 10 -13l-1 -10q-1 -5 -5 -7t-8 0z" />
    <glyph glyph-name="uni2466" unicode="&#x2466;" 
d="M637 559q10 0 10 -10v-14q0 -6 -2 -10l-215 -509q-7 -10 -15 -10h-13q-9 0 -6 10l218 515h-296q-10 0 -10 11v7q0 10 10 10h319zM882 301q0 86 -32 161t-88 131t-131 88t-161 32t-161 -32t-131 -88t-88 -131t-32 -161t32 -161t88 -131t131 -88t161 -32t161 32t131 88
t88 131t32 161zM913 301q0 -92 -35 -172.5t-95 -140.5t-141 -95t-172 -35q-92 0 -172.5 35t-140.5 95t-95 140.5t-35 172.5q0 91 35 172t95 141t140.5 95t172.5 35q91 0 172 -35t141 -95t95 -141t35 -172z" />
    <glyph glyph-name="uni2467" unicode="&#x2467;" 
d="M476 4q-35 0 -69 9.5t-61 29t-44 48t-17 66.5q0 32 10 55t28 40.5t43 30.5t54 25q-117 57 -117 147q0 32 16 57t41 42t56 26t60 9q30 0 60.5 -9t56 -26t41.5 -42t16 -57q0 -90 -117 -147q29 -12 54 -25t43 -30.5t28 -40.5t10 -55q0 -38 -17 -66.5t-44 -48t-61.5 -29
t-69.5 -9.5zM636 156q0 29 -12.5 50.5t-32.5 37.5t-46.5 26.5t-53.5 18.5q-8 4 -14 4t-15 -4q-27 -8 -53.5 -18.5t-46.5 -26.5t-32.5 -37.5t-12.5 -50.5q0 -28 15.5 -50.5t39 -38.5t51.5 -25t53 -9t53.5 9t52 25t39 38.5t15.5 50.5zM487 323q21 6 44 18t42.5 28.5t32 37
t12.5 44.5q0 27 -13 47t-33.5 34t-45.5 21t-50 7q-24 0 -49.5 -7t-45.5 -21t-33 -34t-13 -47q0 -24 12.5 -44.5t32 -37t42.5 -28.5t44 -18q10 -3 21 0zM882 301q0 86 -32 161t-88 131t-131 88t-161 32t-161 -32t-131 -88t-88 -131t-32 -161t32 -161t88 -131t131 -88t161 -32
t161 32t131 88t88 131t32 161zM913 301q0 -92 -35 -172.5t-95 -140.5t-141 -95t-172 -35q-92 0 -172.5 35t-140.5 95t-95 140.5t-35 172.5q0 91 35 172t95 141t140.5 95t172.5 35q91 0 172 -35t141 -95t95 -141t35 -172z" />
    <glyph glyph-name="uni2468" unicode="&#x2468;" 
d="M882 301q0 86 -32 161t-88 131t-131 88t-161 32t-161 -32t-131 -88t-88 -131t-32 -161t32 -161t88 -131t131 -88t161 -32t161 32t131 88t88 131t32 161zM913 301q0 -92 -35 -172.5t-95 -140.5t-141 -95t-172 -35q-92 0 -172.5 35t-140.5 95t-95 140.5t-35 172.5
q0 91 35 172t95 141t140.5 95t172.5 35q91 0 172 -35t141 -95t95 -141t35 -172zM322 404q0 -32 8.5 -59.5t26 -48t45 -32.5t65.5 -12q33 0 61.5 11t48.5 30.5t30.5 46t8.5 57.5q-2 30 -12 59.5t-28.5 52.5t-44 37t-56.5 14q-32 0 -60 -12.5t-48.5 -34t-32.5 -50t-12 -59.5z
M325 48q18 -6 39.5 -10t44.5 -3q60 3 101 25.5t66.5 60t36.5 88.5t11 112q-17 -44 -56.5 -71t-99.5 -27q-82 0 -130 45.5t-48 131.5q0 41 13.5 75.5t37.5 60t58.5 39.5t76.5 14q41 0 75 -17t58 -50.5t37.5 -84.5t13.5 -119q0 -67 -14 -124t-44.5 -99t-79.5 -65.5t-119 -23.5
q-20 0 -42 3.5t-40 8.5q-12 1 -10 13l1 10q1 5 5 7t8 0z" />
    <glyph glyph-name="uni2469" unicode="&#x2469;" 
d="M192 451q-9 -7 -15 1l-5 7q-7 9 1 15l123 106q4 3 10 3h10q11 0 11 -11v-549q0 -11 -11 -11h-10q-11 0 -11 11v516zM772 298q0 -50 -8 -101.5t-28.5 -93.5t-56.5 -68.5t-93 -26.5t-93 26.5t-56.5 68.5t-28.5 93.5t-8 101.5t8 101.5t28.5 93.5t56.5 68.5t93 26.5t93 -26.5
t56.5 -68.5t28.5 -93.5t8 -101.5zM741 298q0 45 -7 91.5t-24.5 84t-47.5 61.5t-76 24t-76 -24t-47 -61.5t-24 -84t-7 -91.5t7 -91.5t24 -84t47 -61.5t76 -24t76 24t47.5 61.5t24.5 84t7 91.5zM882 301q0 86 -32 161t-88 131t-131 88t-161 32t-161 -32t-131 -88t-88 -131
t-32 -161t32 -161t88 -131t131 -88t161 -32t161 32t131 88t88 131t32 161zM913 301q0 -92 -35 -172.5t-95 -140.5t-141 -95t-172 -35q-92 0 -172.5 35t-140.5 95t-95 140.5t-35 172.5q0 91 35 172t95 141t140.5 95t172.5 35q91 0 172 -35t141 -95t95 -141t35 -172z" />
    <glyph glyph-name="uni246A" unicode="&#x246a;" 
d="M239 451q-9 -7 -15 1l-5 7q-7 9 1 15l123 106q4 3 10 3h10q11 0 11 -11v-549q0 -11 -11 -11h-10q-11 0 -11 11v516zM512 451q-9 -7 -15 1l-5 7q-7 9 1 15l123 106q4 3 10 3h10q11 0 11 -11v-549q0 -11 -11 -11h-10q-11 0 -11 11v516zM882 301q0 86 -32 161t-88 131
t-131 88t-161 32t-161 -32t-131 -88t-88 -131t-32 -161t32 -161t88 -131t131 -88t161 -32t161 32t131 88t88 131t32 161zM913 301q0 -92 -35 -172.5t-95 -140.5t-141 -95t-172 -35q-92 0 -172.5 35t-140.5 95t-95 140.5t-35 172.5q0 91 35 172t95 141t140.5 95t172.5 35
q91 0 172 -35t141 -95t95 -141t35 -172z" />
    <glyph glyph-name="uni246B" unicode="&#x246b;" 
d="M187 451q-9 -7 -15 1l-5 7q-7 9 1 15l123 106q4 3 10 3h10q11 0 11 -11v-549q0 -11 -11 -11h-10q-11 0 -11 11v516zM414 12q-8 0 -8 8v21q0 6 4 10l129 136q33 34 61.5 67.5t49.5 65t33 61t12 56.5q0 51 -36.5 82.5t-97.5 31.5q-30 0 -64.5 -11t-64.5 -28q-5 -2 -6 0
t-3 7l-3 16q0 5 2 6.5t7 3.5q43 20 71 27.5t58 7.5q39 0 70 -10.5t53 -29.5t33.5 -44.5t11.5 -56.5q-2 -44 -17 -75t-37 -66q-22 -28 -46.5 -58t-56.5 -65l-131 -134h293q8 0 8 -8v-13q0 -8 -8 -8h-317zM882 301q0 86 -32 161t-88 131t-131 88t-161 32t-161 -32t-131 -88
t-88 -131t-32 -161t32 -161t88 -131t131 -88t161 -32t161 32t131 88t88 131t32 161zM913 301q0 -92 -35 -172.5t-95 -140.5t-141 -95t-172 -35q-92 0 -172.5 35t-140.5 95t-95 140.5t-35 172.5q0 91 35 172t95 141t140.5 95t172.5 35q91 0 172 -35t141 -95t95 -141t35 -172z
" />
    <glyph glyph-name="uni246C" unicode="&#x246c;" 
d="M913 301q0 -92 -35 -172.5t-95 -140.5t-141 -95t-172 -35q-92 0 -172.5 35t-140.5 95t-95 140.5t-35 172.5q0 91 35 172t95 141t140.5 95t172.5 35q91 0 172 -35t141 -95t95 -141t35 -172zM882 301q0 86 -32 161t-88 131t-131 88t-161 32t-161 -32t-131 -88t-88 -131
t-32 -161t32 -161t88 -131t131 -88t161 -32t161 32t131 88t88 131t32 161zM431 528q-8 -2 -9 4l-3 15q-1 6 8 11q34 11 64.5 16.5t64.5 5.5t66.5 -8t57.5 -25t40.5 -43.5t15.5 -63.5q0 -29 -10.5 -52t-28 -40.5t-40 -28t-46.5 -14.5q28 -1 51.5 -12t40 -30t25.5 -43t9 -51
q0 -41 -17.5 -72t-46 -51.5t-65.5 -30.5t-76 -9q-40 1 -70 5t-60 13q-8 3 -7 12l2 16q2 7 9 2q32 -12 62 -15.5t68 -4.5q32 -1 62.5 7.5t54 26t38 44t14.5 62.5q0 54 -41 85t-142 31h-38q-10 0 -10 11v6q0 12 10 12h3q36 0 74.5 3.5t70 16t52 36.5t20.5 65q0 29 -13 50
t-34 35t-48.5 20.5t-57.5 6.5q-26 0 -58.5 -6.5t-61.5 -17.5zM192 451q-9 -7 -15 1l-5 7q-7 9 1 15l123 106q4 3 10 3h10q11 0 11 -11v-549q0 -11 -11 -11h-10q-11 0 -11 11v516z" />
    <glyph glyph-name="uni246D" unicode="&#x246d;" 
d="M913 301q0 -92 -35 -172.5t-95 -140.5t-141 -95t-172 -35q-92 0 -172.5 35t-140.5 95t-95 140.5t-35 172.5q0 91 35 172t95 141t140.5 95t172.5 35q91 0 172 -35t141 -95t95 -141t35 -172zM882 301q0 86 -32 161t-88 131t-131 88t-161 32t-161 -32t-131 -88t-88 -131
t-32 -161t32 -161t88 -131t131 -88t161 -32t161 32t131 88t88 131t32 161zM620 573q5 7 6.5 8t10.5 1h31q11 0 11 -11v-393h75q11 0 11 -11v-8q0 -10 -11 -10h-75v-127q0 -11 -11 -11h-10q-11 0 -11 11v127h-276q-11 0 -11 10v14q0 5 1 7l3 6zM392 178h255v380zM192 451
q-9 -7 -15 1l-5 7q-7 9 1 15l123 106q4 3 10 3h10q11 0 11 -11v-549q0 -11 -11 -11h-10q-11 0 -11 11v516z" />
    <glyph glyph-name="uni246E" unicode="&#x246e;" 
d="M192 451q-9 -7 -15 1l-5 7q-7 9 1 15l123 106q4 3 10 3h10q11 0 11 -11v-549q0 -11 -11 -11h-10q-11 0 -11 11v516zM457 342q19 8 47 13t65 4q39 -1 72 -11.5t57 -31.5t38 -51.5t14 -70.5q0 -48 -15.5 -84t-43 -60t-66 -36t-84.5 -12q-35 0 -60 4t-52 13q-11 3 -11 14v12
q0 13 11 8q28 -14 54 -18t58 -4q41 0 73.5 11.5t55.5 32t35 48.5t12 60q0 33 -8 60t-27.5 46.5t-52 30t-81.5 10.5q-20 0 -33 -2t-24 -5.5t-22 -7.5t-25 -8q-19 -5 -19 14l5 226v22q0 11 10 11h274q10 0 10 -11v-7q0 -11 -10 -11h-252zM882 301q0 86 -32 161t-88 131
t-131 88t-161 32t-161 -32t-131 -88t-88 -131t-32 -161t32 -161t88 -131t131 -88t161 -32t161 32t131 88t88 131t32 161zM913 301q0 -92 -35 -172.5t-95 -140.5t-141 -95t-172 -35q-92 0 -172.5 35t-140.5 95t-95 140.5t-35 172.5q0 91 35 172t95 141t140.5 95t172.5 35
q91 0 172 -35t141 -95t95 -141t35 -172z" />
    <glyph glyph-name="uni2474" unicode="&#x2474;" 
d="M166 -165q-56 85 -84.5 207t-28.5 258t28.5 258t84.5 207h23q-31 -60 -50.5 -118t-31 -115.5t-15.5 -115t-4 -116.5t4 -116.5t15.5 -115t31 -115.5t50.5 -118h-23zM885 300q0 -136 -28.5 -258t-84.5 -207h-23q31 60 50.5 118t30.5 115.5t15.5 115t4.5 116.5t-4.5 116.5
t-15.5 115t-30.5 115.5t-50.5 118h23q56 -85 84.5 -207t28.5 -258zM377 451q-9 -7 -15 1l-5 7q-7 9 1 15l123 106q4 3 10 3h10q11 0 11 -11v-549q0 -11 -11 -11h-10q-11 0 -11 11v516z" />
    <glyph glyph-name="uni2475" unicode="&#x2475;" 
d="M166 -165q-56 85 -84.5 207t-28.5 258t28.5 258t84.5 207h23q-31 -60 -50.5 -118t-31 -115.5t-15.5 -115t-4 -116.5t4 -116.5t15.5 -115t31 -115.5t50.5 -118h-23zM885 300q0 -136 -28.5 -258t-84.5 -207h-23q31 60 50.5 118t30.5 115.5t15.5 115t4.5 116.5t-4.5 116.5
t-15.5 115t-30.5 115.5t-50.5 118h23q56 -85 84.5 -207t28.5 -258zM319 37q-8 0 -8 8v21q0 6 4 10l129 136q33 34 61.5 67.5t49.5 65t33 61t12 56.5q0 51 -36.5 82.5t-97.5 31.5q-30 0 -64.5 -11t-64.5 -28q-5 -2 -6 0t-3 7l-3 16q0 5 2 6.5t7 3.5q43 20 71 27.5t58 7.5
q39 0 70 -10.5t53 -29.5t33.5 -44.5t11.5 -56.5q-2 -44 -17 -75t-37 -66q-22 -28 -46.5 -58t-56.5 -65l-131 -134h293q8 0 8 -8v-13q0 -8 -8 -8h-317z" />
    <glyph glyph-name="uni2476" unicode="&#x2476;" 
d="M341 543q-8 -2 -9 4l-3 15q-1 6 8 11q34 11 64.5 16.5t64.5 5.5t66.5 -8t57.5 -25t40.5 -43.5t15.5 -63.5q0 -29 -10.5 -52t-28 -40.5t-40 -28t-46.5 -14.5q28 -1 51.5 -12t40 -30t25.5 -43t9 -51q0 -41 -17.5 -72t-46 -51.5t-65.5 -30.5t-76 -9q-40 1 -70 5t-60 13
q-8 3 -7 12l2 16q2 7 9 2q32 -12 62 -15.5t68 -4.5q32 -1 62.5 7.5t54 26t38 44t14.5 62.5q0 54 -41 85t-142 31h-38q-10 0 -10 11v6q0 12 10 12h3q36 0 74.5 3.5t70 16t52 36.5t20.5 65q0 29 -13 50t-34 35t-48.5 20.5t-57.5 6.5q-26 0 -58.5 -6.5t-61.5 -17.5zM885 300
q0 -136 -28.5 -258t-84.5 -207h-23q31 60 50.5 118t30.5 115.5t15.5 115t4.5 116.5t-4.5 116.5t-15.5 115t-30.5 115.5t-50.5 118h23q56 -85 84.5 -207t28.5 -258zM166 -165q-56 85 -84.5 207t-28.5 258t28.5 258t84.5 207h23q-31 -60 -50.5 -118t-31 -115.5t-15.5 -115
t-4 -116.5t4 -116.5t15.5 -115t31 -115.5t50.5 -118h-23z" />
    <glyph glyph-name="uni2477" unicode="&#x2477;" 
d="M505 585q5 7 6.5 8t10.5 1h31q11 0 11 -11v-393h75q11 0 11 -11v-8q0 -10 -11 -10h-75v-123q0 -11 -11 -11h-10q-11 0 -11 11v123h-276q-11 0 -11 10v14q0 5 1 7l3 6zM277 190h255v380zM885 300q0 -136 -28.5 -258t-84.5 -207h-23q31 60 50.5 118t30.5 115.5t15.5 115
t4.5 116.5t-4.5 116.5t-15.5 115t-30.5 115.5t-50.5 118h23q56 -85 84.5 -207t28.5 -258zM166 -165q-56 85 -84.5 207t-28.5 258t28.5 258t84.5 207h23q-31 -60 -50.5 -118t-31 -115.5t-15.5 -115t-4 -116.5t4 -116.5t15.5 -115t31 -115.5t50.5 -118h-23z" />
    <glyph glyph-name="uni2478" unicode="&#x2478;" 
d="M166 -165q-56 85 -84.5 207t-28.5 258t28.5 258t84.5 207h23q-31 -60 -50.5 -118t-31 -115.5t-15.5 -115t-4 -116.5t4 -116.5t15.5 -115t31 -115.5t50.5 -118h-23zM885 300q0 -136 -28.5 -258t-84.5 -207h-23q31 60 50.5 118t30.5 115.5t15.5 115t4.5 116.5t-4.5 116.5
t-15.5 115t-30.5 115.5t-50.5 118h23q56 -85 84.5 -207t28.5 -258zM357 347q19 8 47 13t65 4q39 -1 72 -11.5t57 -31.5t38 -51.5t14 -70.5q0 -48 -15.5 -84t-43 -60t-66 -36t-84.5 -12q-35 0 -60 4t-52 13q-11 3 -11 14v12q0 13 11 8q28 -14 54 -18t58 -4q41 0 73.5 11.5
t55.5 32t35 48.5t12 60q0 33 -8 60t-27.5 46.5t-52 30t-81.5 10.5q-20 0 -33 -2t-24 -5.5t-22 -7.5t-25 -8q-19 -5 -19 14l5 226v22q0 11 10 11h274q10 0 10 -11v-7q0 -11 -10 -11h-252z" />
    <glyph glyph-name="uni2479" unicode="&#x2479;" 
d="M166 -165q-56 85 -84.5 207t-28.5 258t28.5 258t84.5 207h23q-31 -60 -50.5 -118t-31 -115.5t-15.5 -115t-4 -116.5t4 -116.5t15.5 -115t31 -115.5t50.5 -118h-23zM885 300q0 -136 -28.5 -258t-84.5 -207h-23q31 60 50.5 118t30.5 115.5t15.5 115t4.5 116.5t-4.5 116.5
t-15.5 115t-30.5 115.5t-50.5 118h23q56 -85 84.5 -207t28.5 -258zM619 193q0 32 -8.5 59.5t-26 48t-45 32.5t-65.5 12q-33 0 -60.5 -13t-47 -34t-30.5 -48.5t-11 -56.5q0 -31 10 -59t29 -49.5t44.5 -34.5t57.5 -13q31 0 59 12.5t49 34t33 49.5t12 60zM616 548
q-18 6 -39.5 9.5t-44.5 3.5q-55 0 -95.5 -22t-67.5 -59.5t-39.5 -88.5t-12.5 -111q9 22 25 39t37 29t45.5 18.5t48.5 6.5q82 0 129.5 -45t47.5 -131q0 -41 -13.5 -76t-37.5 -60t-58 -39t-76 -14q-83 0 -133.5 67.5t-50.5 203.5q0 67 14 124t44.5 98.5t79.5 65t119 23.5
q20 0 41.5 -3.5t40.5 -8.5q12 -1 10 -13l-1 -10q-1 -5 -5 -7t-8 0z" />
    <glyph glyph-name="uni247A" unicode="&#x247a;" 
d="M166 -165q-56 85 -84.5 207t-28.5 258t28.5 258t84.5 207h23q-31 -60 -50.5 -118t-31 -115.5t-15.5 -115t-4 -116.5t4 -116.5t15.5 -115t31 -115.5t50.5 -118h-23zM885 300q0 -136 -28.5 -258t-84.5 -207h-23q31 60 50.5 118t30.5 115.5t15.5 115t4.5 116.5t-4.5 116.5
t-15.5 115t-30.5 115.5t-50.5 118h23q56 -85 84.5 -207t28.5 -258zM637 559q10 0 10 -10v-14q0 -6 -2 -10l-215 -509q-7 -10 -15 -10h-13q-9 0 -6 10l218 515h-296q-10 0 -10 11v7q0 10 10 10h319z" />
    <glyph glyph-name="uni247B" unicode="&#x247b;" 
d="M166 -165q-56 85 -84.5 207t-28.5 258t28.5 258t84.5 207h23q-31 -60 -50.5 -118t-31 -115.5t-15.5 -115t-4 -116.5t4 -116.5t15.5 -115t31 -115.5t50.5 -118h-23zM885 300q0 -136 -28.5 -258t-84.5 -207h-23q31 60 50.5 118t30.5 115.5t15.5 115t4.5 116.5t-4.5 116.5
t-15.5 115t-30.5 115.5t-50.5 118h23q56 -85 84.5 -207t28.5 -258zM471 4q-35 0 -69 9.5t-61 29t-44 48t-17 66.5q0 32 10 55t28 40.5t43 30.5t54 25q-117 57 -117 147q0 32 16 57t41 42t56 26t60 9q30 0 60.5 -9t56 -26t41.5 -42t16 -57q0 -90 -117 -147q29 -12 54 -25
t43 -30.5t28 -40.5t10 -55q0 -38 -17 -66.5t-44 -48t-61.5 -29t-69.5 -9.5zM631 156q0 29 -12.5 50.5t-32.5 37.5t-46.5 26.5t-53.5 18.5q-8 4 -14 4t-15 -4q-27 -8 -53.5 -18.5t-46.5 -26.5t-32.5 -37.5t-12.5 -50.5q0 -28 15.5 -50.5t39 -38.5t51.5 -25t53 -9t53.5 9
t52 25t39 38.5t15.5 50.5zM482 323q21 6 44 18t42.5 28.5t32 37t12.5 44.5q0 27 -13 47t-33.5 34t-45.5 21t-50 7q-24 0 -49.5 -7t-45.5 -21t-33 -34t-13 -47q0 -24 12.5 -44.5t32 -37t42.5 -28.5t44 -18q10 -3 21 0z" />
    <glyph glyph-name="uni247C" unicode="&#x247c;" 
d="M166 -165q-56 85 -84.5 207t-28.5 258t28.5 258t84.5 207h23q-31 -60 -50.5 -118t-31 -115.5t-15.5 -115t-4 -116.5t4 -116.5t15.5 -115t31 -115.5t50.5 -118h-23zM885 300q0 -136 -28.5 -258t-84.5 -207h-23q31 60 50.5 118t30.5 115.5t15.5 115t4.5 116.5t-4.5 116.5
t-15.5 115t-30.5 115.5t-50.5 118h23q56 -85 84.5 -207t28.5 -258zM324 406q0 -32 8.5 -59.5t26 -48t44.5 -32t65 -11.5q33 0 60.5 12.5t47 33.5t30.5 48.5t11 56.5q0 30 -10.5 58t-29 49.5t-44.5 34.5t-57 13q-32 0 -59.5 -12.5t-48 -34t-32.5 -49.5t-12 -59zM327 52
q18 -6 39 -9.5t44 -3.5q55 0 95 20.5t66.5 57t39.5 88t13 114.5q-8 -21 -24 -38.5t-37 -29.5t-45.5 -18.5t-48.5 -6.5q-81 0 -129 45t-48 131q0 41 13.5 75.5t37.5 59.5t58 39t76 14q41 0 75 -15t58 -47.5t37 -84t13 -123.5q0 -66 -13.5 -123t-44 -98.5t-79.5 -65
t-119 -23.5q-20 0 -41.5 3.5t-40.5 8.5q-11 2 -9 13l1 10q1 5 5 7t8 0z" />
    <glyph glyph-name="uni247D" unicode="&#x247d;" 
d="M166 -165q-56 85 -84.5 207t-28.5 258t28.5 258t84.5 207h23q-31 -60 -50.5 -118t-31 -115.5t-15.5 -115t-4 -116.5t4 -116.5t15.5 -115t31 -115.5t50.5 -118h-23zM885 300q0 -136 -28.5 -258t-84.5 -207h-23q31 60 50.5 118t30.5 115.5t15.5 115t4.5 116.5t-4.5 116.5
t-15.5 115t-30.5 115.5t-50.5 118h23q56 -85 84.5 -207t28.5 -258zM192 451q-9 -7 -15 1l-5 7q-7 9 1 15l123 106q4 3 10 3h10q11 0 11 -11v-549q0 -11 -11 -11h-10q-11 0 -11 11v516zM772 298q0 -50 -8 -101.5t-28.5 -93.5t-56.5 -68.5t-93 -26.5t-93 26.5t-56.5 68.5
t-28.5 93.5t-8 101.5t8 101.5t28.5 93.5t56.5 68.5t93 26.5t93 -26.5t56.5 -68.5t28.5 -93.5t8 -101.5zM741 298q0 45 -7 91.5t-24.5 84t-47.5 61.5t-76 24t-76 -24t-47 -61.5t-24 -84t-7 -91.5t7 -91.5t24 -84t47 -61.5t76 -24t76 24t47.5 61.5t24.5 84t7 91.5z" />
    <glyph glyph-name="uni247E" unicode="&#x247e;" 
d="M166 -165q-56 85 -84.5 207t-28.5 258t28.5 258t84.5 207h23q-31 -60 -50.5 -118t-31 -115.5t-15.5 -115t-4 -116.5t4 -116.5t15.5 -115t31 -115.5t50.5 -118h-23zM885 300q0 -136 -28.5 -258t-84.5 -207h-23q31 60 50.5 118t30.5 115.5t15.5 115t4.5 116.5t-4.5 116.5
t-15.5 115t-30.5 115.5t-50.5 118h23q56 -85 84.5 -207t28.5 -258zM239 451q-9 -7 -15 1l-5 7q-7 9 1 15l123 106q4 3 10 3h10q11 0 11 -11v-549q0 -11 -11 -11h-10q-11 0 -11 11v516zM512 451q-9 -7 -15 1l-5 7q-7 9 1 15l123 106q4 3 10 3h10q11 0 11 -11v-549
q0 -11 -11 -11h-10q-11 0 -11 11v516z" />
    <glyph glyph-name="uni247F" unicode="&#x247f;" 
d="M166 -165q-56 85 -84.5 207t-28.5 258t28.5 258t84.5 207h23q-31 -60 -50.5 -118t-31 -115.5t-15.5 -115t-4 -116.5t4 -116.5t15.5 -115t31 -115.5t50.5 -118h-23zM885 300q0 -136 -28.5 -258t-84.5 -207h-23q31 60 50.5 118t30.5 115.5t15.5 115t4.5 116.5t-4.5 116.5
t-15.5 115t-30.5 115.5t-50.5 118h23q56 -85 84.5 -207t28.5 -258zM187 451q-9 -7 -15 1l-5 7q-7 9 1 15l123 106q4 3 10 3h10q11 0 11 -11v-549q0 -11 -11 -11h-10q-11 0 -11 11v516zM414 12q-8 0 -8 8v21q0 6 4 10l129 136q33 34 61.5 67.5t49.5 65t33 61t12 56.5
q0 51 -36.5 82.5t-97.5 31.5q-30 0 -64.5 -11t-64.5 -28q-5 -2 -6 0t-3 7l-3 16q0 5 2 6.5t7 3.5q43 20 71 27.5t58 7.5q39 0 70 -10.5t53 -29.5t33.5 -44.5t11.5 -56.5q-2 -44 -17 -75t-37 -66q-22 -28 -46.5 -58t-56.5 -65l-131 -134h293q8 0 8 -8v-13q0 -8 -8 -8h-317z
" />
    <glyph glyph-name="uni2480" unicode="&#x2480;" 
d="M431 528q-8 -2 -9 4l-3 15q-1 6 8 11q34 11 64.5 16.5t64.5 5.5t66.5 -8t57.5 -25t40.5 -43.5t15.5 -63.5q0 -29 -10.5 -52t-28 -40.5t-40 -28t-46.5 -14.5q28 -1 51.5 -12t40 -30t25.5 -43t9 -51q0 -41 -17.5 -72t-46 -51.5t-65.5 -30.5t-76 -9q-40 1 -70 5t-60 13
q-8 3 -7 12l2 16q2 7 9 2q32 -12 62 -15.5t68 -4.5q32 -1 62.5 7.5t54 26t38 44t14.5 62.5q0 54 -41 85t-142 31h-38q-10 0 -10 11v6q0 12 10 12h3q36 0 74.5 3.5t70 16t52 36.5t20.5 65q0 29 -13 50t-34 35t-48.5 20.5t-57.5 6.5q-26 0 -58.5 -6.5t-61.5 -17.5zM885 300
q0 -136 -28.5 -258t-84.5 -207h-23q31 60 50.5 118t30.5 115.5t15.5 115t4.5 116.5t-4.5 116.5t-15.5 115t-30.5 115.5t-50.5 118h23q56 -85 84.5 -207t28.5 -258zM166 -165q-56 85 -84.5 207t-28.5 258t28.5 258t84.5 207h23q-31 -60 -50.5 -118t-31 -115.5t-15.5 -115
t-4 -116.5t4 -116.5t15.5 -115t31 -115.5t50.5 -118h-23zM192 451q-9 -7 -15 1l-5 7q-7 9 1 15l123 106q4 3 10 3h10q11 0 11 -11v-549q0 -11 -11 -11h-10q-11 0 -11 11v516z" />
    <glyph glyph-name="uni2481" unicode="&#x2481;" 
d="M620 573q5 7 6.5 8t10.5 1h31q11 0 11 -11v-393h75q11 0 11 -11v-8q0 -10 -11 -10h-75v-127q0 -11 -11 -11h-10q-11 0 -11 11v127h-276q-11 0 -11 10v14q0 5 1 7l3 6zM392 178h255v380zM885 300q0 -136 -28.5 -258t-84.5 -207h-23q31 60 50.5 118t30.5 115.5t15.5 115
t4.5 116.5t-4.5 116.5t-15.5 115t-30.5 115.5t-50.5 118h23q56 -85 84.5 -207t28.5 -258zM166 -165q-56 85 -84.5 207t-28.5 258t28.5 258t84.5 207h23q-31 -60 -50.5 -118t-31 -115.5t-15.5 -115t-4 -116.5t4 -116.5t15.5 -115t31 -115.5t50.5 -118h-23zM192 451
q-9 -7 -15 1l-5 7q-7 9 1 15l123 106q4 3 10 3h10q11 0 11 -11v-549q0 -11 -11 -11h-10q-11 0 -11 11v516z" />
    <glyph glyph-name="uni2482" unicode="&#x2482;" 
d="M166 -165q-56 85 -84.5 207t-28.5 258t28.5 258t84.5 207h23q-31 -60 -50.5 -118t-31 -115.5t-15.5 -115t-4 -116.5t4 -116.5t15.5 -115t31 -115.5t50.5 -118h-23zM885 300q0 -136 -28.5 -258t-84.5 -207h-23q31 60 50.5 118t30.5 115.5t15.5 115t4.5 116.5t-4.5 116.5
t-15.5 115t-30.5 115.5t-50.5 118h23q56 -85 84.5 -207t28.5 -258zM192 451q-9 -7 -15 1l-5 7q-7 9 1 15l123 106q4 3 10 3h10q11 0 11 -11v-549q0 -11 -11 -11h-10q-11 0 -11 11v516zM457 342q19 8 47 13t65 4q39 -1 72 -11.5t57 -31.5t38 -51.5t14 -70.5q0 -48 -15.5 -84
t-43 -60t-66 -36t-84.5 -12q-35 0 -60 4t-52 13q-11 3 -11 14v12q0 13 11 8q28 -14 54 -18t58 -4q41 0 73.5 11.5t55.5 32t35 48.5t12 60q0 33 -8 60t-27.5 46.5t-52 30t-81.5 10.5q-20 0 -33 -2t-24 -5.5t-22 -7.5t-25 -8q-19 -5 -19 14l5 226v22q0 11 10 11h274
q10 0 10 -11v-7q0 -11 -10 -11h-252z" />
    <glyph glyph-name="uni249C" unicode="&#x249c;" 
d="M166 -165q-56 85 -84.5 207t-28.5 258t28.5 258t84.5 207h23q-31 -60 -50.5 -118t-31 -115.5t-15.5 -115t-4 -116.5t4 -116.5t15.5 -115t31 -115.5t50.5 -118h-23zM885 300q0 -136 -28.5 -258t-84.5 -207h-23q31 60 50.5 118t30.5 115.5t15.5 115t4.5 116.5t-4.5 116.5
t-15.5 115t-30.5 115.5t-50.5 118h23q56 -85 84.5 -207t28.5 -258zM574 313q-53 2 -100.5 -1.5t-73.5 -16.5q-35 -17 -54.5 -40t-19.5 -71t33 -72.5t84 -24.5q33 0 61 10t48.5 31t32.5 54t12 79v52h-23zM345 455q-11 -6 -11 5v18q0 11 11 18q29 14 61 20.5t71 6.5
q81 0 117.5 -38.5t36.5 -117.5v-205q0 -24 0.5 -43.5t2.5 -36.5q0 -12 -11 -12h-15q-11 0 -11 12v62q-9 -21 -26 -37t-38.5 -27t-46 -17t-47.5 -6q-66 0 -106.5 33t-40.5 96q0 101 95 138q33 14 83.5 18.5t111.5 4.5h15v24q0 26 -5.5 48t-19 38.5t-36.5 25.5t-59 9
q-38 0 -70.5 -10t-61.5 -27z" />
    <glyph glyph-name="uni249D" unicode="&#x249d;" 
d="M166 -165q-56 85 -84.5 207t-28.5 258t28.5 258t84.5 207h23q-31 -60 -50.5 -118t-31 -115.5t-15.5 -115t-4 -116.5t4 -116.5t15.5 -115t31 -115.5t50.5 -118h-23zM885 300q0 -136 -28.5 -258t-84.5 -207h-23q31 60 50.5 118t30.5 115.5t15.5 115t4.5 116.5t-4.5 116.5
t-15.5 115t-30.5 115.5t-50.5 118h23q56 -85 84.5 -207t28.5 -258zM360 345q18 38 52.5 63.5t85.5 25.5q88 0 132.5 -52t44.5 -163q0 -110 -44.5 -163t-132.5 -53q-42 0 -78.5 23t-59.5 71v-75q0 -11 -11 -11h-11q-10 0 -10 11v586q0 10 10 10h11q11 0 11 -10v-263zM498 33
q46 0 74.5 16t44 42t21 59.5t5.5 68.5t-5.5 68.5t-21 60t-44 42.5t-74.5 16q-35 0 -60.5 -16.5t-43 -43t-26 -60t-8.5 -67.5q0 -38 10.5 -71.5t29 -59t44 -40.5t54.5 -15z" />
    <glyph glyph-name="uni249E" unicode="&#x249e;" 
d="M166 -165q-56 85 -84.5 207t-28.5 258t28.5 258t84.5 207h23q-31 -60 -50.5 -118t-31 -115.5t-15.5 -115t-4 -116.5t4 -116.5t15.5 -115t31 -115.5t50.5 -118h-23zM885 300q0 -136 -28.5 -258t-84.5 -207h-23q31 60 50.5 118t30.5 115.5t15.5 115t4.5 116.5t-4.5 116.5
t-15.5 115t-30.5 115.5t-50.5 118h23q56 -85 84.5 -207t28.5 -258zM308 295q0 -57 22.5 -99t61 -66.5t89 -30.5t107.5 9q12 1 13 -7l1 -10q1 -8 -2 -11.5t-8 -5.5q-66 -16 -124 -8t-101 37t-67.5 77.5t-24.5 114.5q0 65 24.5 113.5t67.5 77t101 36.5t124 -8q11 -5 10 -15
l-1 -12q-1 -8 -13 -7q-57 16 -107.5 10.5t-89 -30t-61 -66.5t-22.5 -99z" />
    <glyph glyph-name="uni249F" unicode="&#x249f;" 
d="M166 -165q-56 85 -84.5 207t-28.5 258t28.5 258t84.5 207h23q-31 -60 -50.5 -118t-31 -115.5t-15.5 -115t-4 -116.5t4 -116.5t15.5 -115t31 -115.5t50.5 -118h-23zM885 300q0 -136 -28.5 -258t-84.5 -207h-23q31 60 50.5 118t30.5 115.5t15.5 115t4.5 116.5t-4.5 116.5
t-15.5 115t-30.5 115.5t-50.5 118h23q56 -85 84.5 -207t28.5 -258zM584 598q0 10 11 10h11q10 0 10 -10v-586q0 -11 -10 -11h-11q-11 0 -11 11v75q-23 -48 -59.5 -71t-78.5 -23q-88 0 -132.5 53t-44.5 163q0 111 44.5 163t132.5 52q51 0 85.5 -25.5t52.5 -63.5v263zM446 23
q29 0 54.5 15t44 40.5t29 59t10.5 71.5q0 34 -8.5 67.5t-26 60t-43.5 43t-60 16.5q-46 0 -74.5 -16t-44 -42.5t-21 -60t-5.5 -68.5t5.5 -68.5t21 -59.5t44 -42t74.5 -16z" />
    <glyph glyph-name="uni24A0" unicode="&#x24a0;" 
d="M166 -165q-56 85 -84.5 207t-28.5 258t28.5 258t84.5 207h23q-31 -60 -50.5 -118t-31 -115.5t-15.5 -115t-4 -116.5t4 -116.5t15.5 -115t31 -115.5t50.5 -118h-23zM885 300q0 -136 -28.5 -258t-84.5 -207h-23q31 60 50.5 118t30.5 115.5t15.5 115t4.5 116.5t-4.5 116.5
t-15.5 115t-30.5 115.5t-50.5 118h23q56 -85 84.5 -207t28.5 -258zM606 312q1 32 -6 64.5t-23 58.5t-42 42.5t-65 16.5q-38 0 -66.5 -16.5t-48 -42.5t-29.5 -58.5t-11 -64.5h291zM315 282q-1 -40 9.5 -74t31.5 -58.5t53.5 -38.5t75.5 -14q65 0 111 26q11 5 11 -6v-16
q0 -7 -9 -12q-26 -10 -55 -15t-62 -5q-199 0 -199 229q0 44 12.5 85t35.5 72.5t57 50t78 18.5q46 0 79 -17.5t54 -46.5t31 -68.5t10 -82.5q0 -11 -0.5 -16.5t-3 -7.5t-8.5 -2.5t-17 -0.5h-295z" />
    <glyph glyph-name="uni24A1" unicode="&#x24a1;" 
d="M166 -165q-56 85 -84.5 207t-28.5 258t28.5 258t84.5 207h23q-31 -60 -50.5 -118t-31 -115.5t-15.5 -115t-4 -116.5t4 -116.5t15.5 -115t31 -115.5t50.5 -118h-23zM885 300q0 -136 -28.5 -258t-84.5 -207h-23q31 60 50.5 118t30.5 115.5t15.5 115t4.5 116.5t-4.5 116.5
t-15.5 115t-30.5 115.5t-50.5 118h23q56 -85 84.5 -207t28.5 -258zM361 349q-11 0 -11 11v11q0 10 11 10h81v42q0 42 2 68.5t10 44.5q11 27 37.5 41t50.5 13q11 0 20.5 -1t17.5 -4q10 -3 9 -13l-2 -10q0 -10 -10 -6q-8 3 -15 4.5t-16 1.5q-22 0 -42.5 -11t-25.5 -40
q-2 -9 -3 -27.5t-1 -60.5v-42h92q11 0 11 -10v-11q0 -11 -11 -11h-92l-1 -357q0 -11 -10 -11h-9q-11 0 -11 11l-1 357h-81z" />
    <glyph glyph-name="uni24A2" unicode="&#x24a2;" 
d="M166 -165q-56 85 -84.5 207t-28.5 258t28.5 258t84.5 207h23q-31 -60 -50.5 -118t-31 -115.5t-15.5 -115t-4 -116.5t4 -116.5t15.5 -115t31 -115.5t50.5 -118h-23zM885 300q0 -136 -28.5 -258t-84.5 -207h-23q31 60 50.5 118t30.5 115.5t15.5 115t4.5 116.5t-4.5 116.5
t-15.5 115t-30.5 115.5t-50.5 118h23q56 -85 84.5 -207t28.5 -258zM470 164q38 0 64 15t42 38t23 52t7 58q0 35 -7 68t-23 58.5t-42 41t-64 15.5t-65 -15.5t-44 -41t-25 -58.5t-8 -68q0 -29 8 -58t25 -52t44 -38t65 -15zM342 55q30 -13 55 -17.5t57 -4.5q72 0 114.5 41.5
t42.5 131.5v17q-23 -49 -62 -68t-79 -19q-43 0 -75.5 14.5t-54.5 40.5t-33 60.5t-11 75.5q0 55 13 94.5t36 65.5t55 38.5t70 12.5q51 0 87.5 -24t53.5 -62v68q0 11 11 11h11q10 0 10 -11v-303q1 -104 -47 -158.5t-143 -54.5q-34 0 -57.5 4t-54.5 13q-12 4 -10 15v12
q2 10 11 7z" />
    <glyph glyph-name="uni24A3" unicode="&#x24a3;" 
d="M166 -165q-56 85 -84.5 207t-28.5 258t28.5 258t84.5 207h23q-31 -60 -50.5 -118t-31 -115.5t-15.5 -115t-4 -116.5t4 -116.5t15.5 -115t31 -115.5t50.5 -118h-23zM885 300q0 -136 -28.5 -258t-84.5 -207h-23q31 60 50.5 118t30.5 115.5t15.5 115t4.5 116.5t-4.5 116.5
t-15.5 115t-30.5 115.5t-50.5 118h23q56 -85 84.5 -207t28.5 -258zM343 12q0 -11 -11 -11h-10q-11 0 -11 11v587q0 11 11 11h10q11 0 11 -11v-245q16 27 53.5 48.5t91.5 21.5q150 0 150 -176v-236q0 -11 -10 -11h-11q-11 0 -11 11v235q0 74 -28 111t-99 37q-31 0 -56 -12.5
t-43 -31t-27.5 -41t-9.5 -42.5v-256z" />
    <glyph glyph-name="uni24A4" unicode="&#x24a4;" 
d="M166 -165q-56 85 -84.5 207t-28.5 258t28.5 258t84.5 207h23q-31 -60 -50.5 -118t-31 -115.5t-15.5 -115t-4 -116.5t4 -116.5t15.5 -115t31 -115.5t50.5 -118h-23zM885 300q0 -136 -28.5 -258t-84.5 -207h-23q31 60 50.5 118t30.5 115.5t15.5 115t4.5 116.5t-4.5 116.5
t-15.5 115t-30.5 115.5t-50.5 118h23q56 -85 84.5 -207t28.5 -258zM441 569q0 11 8 19.5t19 8.5t19.5 -8.5t8.5 -19.5t-8.5 -19t-19.5 -8t-19 8t-8 19zM486 0q0 -11 -12 -11h-11q-11 0 -11 11v408q0 11 11 11h11q12 0 12 -11v-408z" />
    <glyph glyph-name="uni24A5" unicode="&#x24a5;" 
d="M166 -165q-56 85 -84.5 207t-28.5 258t28.5 258t84.5 207h23q-31 -60 -50.5 -118t-31 -115.5t-15.5 -115t-4 -116.5t4 -116.5t15.5 -115t31 -115.5t50.5 -118h-23zM885 300q0 -136 -28.5 -258t-84.5 -207h-23q31 60 50.5 118t30.5 115.5t15.5 115t4.5 116.5t-4.5 116.5
t-15.5 115t-30.5 115.5t-50.5 118h23q56 -85 84.5 -207t28.5 -258zM452 648q0 11 8 19.5t20 8.5t20.5 -8.5t8.5 -19.5q0 -12 -8.5 -20.5t-20.5 -8.5t-20 8.5t-8 20.5zM366 -75q-9 1 -9 9v12q0 6 2 7.5t7 0.5q10 -2 23 -2q27 0 42.5 7t23 20t9.5 30t2 38v434q0 11 12 11h11
q11 0 11 -11v-448q0 -28 -4.5 -49t-16 -34.5t-31 -20.5t-50.5 -7q-12 0 -17 0.5t-15 2.5z" />
    <glyph glyph-name="uni24A6" unicode="&#x24a6;" 
d="M166 -165q-56 85 -84.5 207t-28.5 258t28.5 258t84.5 207h23q-31 -60 -50.5 -118t-31 -115.5t-15.5 -115t-4 -116.5t4 -116.5t15.5 -115t31 -115.5t50.5 -118h-23zM885 300q0 -136 -28.5 -258t-84.5 -207h-23q31 60 50.5 118t30.5 115.5t15.5 115t4.5 116.5t-4.5 116.5
t-15.5 115t-30.5 115.5t-50.5 118h23q56 -85 84.5 -207t28.5 -258zM343 602q0 11 11 11h10q12 0 12 -11v-432l208 237q9 11 26 11h12q5 0 6 -3.5t-3 -7.5l-157 -177l170 -218q6 -11 -3 -11h-14q-8 0 -14 2t-10 9l-150 194l-71 -80v-114q0 -11 -12 -11h-10q-11 0 -11 11v590z
" />
    <glyph glyph-name="uni24A7" unicode="&#x24a7;" 
d="M166 -165q-56 85 -84.5 207t-28.5 258t28.5 258t84.5 207h23q-31 -60 -50.5 -118t-31 -115.5t-15.5 -115t-4 -116.5t4 -116.5t15.5 -115t31 -115.5t50.5 -118h-23zM885 300q0 -136 -28.5 -258t-84.5 -207h-23q31 60 50.5 118t30.5 115.5t15.5 115t4.5 116.5t-4.5 116.5
t-15.5 115t-30.5 115.5t-50.5 118h23q56 -85 84.5 -207t28.5 -258zM486 5q0 -11 -12 -11h-11q-11 0 -11 11v588q0 11 11 11h11q12 0 12 -11v-588z" />
    <glyph glyph-name="uni24A8" unicode="&#x24a8;" 
d="M885 300q0 -136 -28.5 -258t-84.5 -207h-23q31 60 50.5 118t30.5 115.5t15.5 115t4.5 116.5t-4.5 116.5t-15.5 115t-30.5 115.5t-50.5 118h23q56 -85 84.5 -207t28.5 -258zM166 -165q-56 85 -84.5 207t-28.5 258t28.5 258t84.5 207h23q-31 -60 -50.5 -118t-31 -115.5
t-15.5 -115t-4 -116.5t4 -116.5t15.5 -115t31 -115.5t50.5 -118h-23zM229 461q19 30 46.5 50t72.5 20q48 0 82.5 -24t42.5 -71q17 47 57.5 71t88.5 24q38 0 65 -12.5t44 -34t25 -49.5t8 -59v-285q0 -11 -11 -11h-11q-11 0 -11 11v282q0 56 -29 91t-80 36q-27 0 -51.5 -12
t-42.5 -33t-28 -49.5t-9 -61.5v-253q0 -11 -11 -11h-11q-12 0 -12 11v282q0 28 -8 51t-21.5 40t-33 26.5t-41.5 9.5q-27 0 -48.5 -12t-36.5 -32t-23 -46.5t-8 -55.5v-263q0 -11 -12 -11h-11q-11 0 -11 11v327q0 45 -3 92q0 11 11 11h10q11 0 11 -11v-49z" />
    <glyph glyph-name="uni24A9" unicode="&#x24a9;" 
d="M340 96q0 -11 -11 -11h-11q-12 0 -12 11v370q0 23 -2 46q-2 12 11 12h14q11 0 11 -12v-52q8 14 19.5 27t29 23t42 16.5t58.5 6.5q87 1 123.5 -45.5t36.5 -140.5v-251q0 -11 -11 -11h-11q-12 0 -12 11v250q0 79 -31.5 118t-102.5 39q-33 0 -59.5 -13t-44.5 -33t-27.5 -44
t-9.5 -45v-272zM885 300q0 -136 -28.5 -258t-84.5 -207h-23q31 60 50.5 118t30.5 115.5t15.5 115t4.5 116.5t-4.5 116.5t-15.5 115t-30.5 115.5t-50.5 118h23q56 -85 84.5 -207t28.5 -258zM166 -165q-56 85 -84.5 207t-28.5 258t28.5 258t84.5 207h23q-31 -60 -50.5 -118
t-31 -115.5t-15.5 -115t-4 -116.5t4 -116.5t15.5 -115t31 -115.5t50.5 -118h-23z" />
    <glyph glyph-name="uni24AA" unicode="&#x24aa;" 
d="M166 -165q-56 85 -84.5 207t-28.5 258t28.5 258t84.5 207h23q-31 -60 -50.5 -118t-31 -115.5t-15.5 -115t-4 -116.5t4 -116.5t15.5 -115t31 -115.5t50.5 -118h-23zM885 300q0 -136 -28.5 -258t-84.5 -207h-23q31 60 50.5 118t30.5 115.5t15.5 115t4.5 116.5t-4.5 116.5
t-15.5 115t-30.5 115.5t-50.5 118h23q56 -85 84.5 -207t28.5 -258zM672 303q0 -40 -11.5 -81t-36 -74.5t-64 -54.5t-95.5 -21t-95.5 21t-64 54.5t-36 74.5t-11.5 81t11.5 81.5t36 75t64 54.5t95.5 21t95.5 -21t64 -54.5t36 -75t11.5 -81.5zM638 303q0 36 -9 72t-29.5 64.5
t-53.5 46.5t-81 18t-81 -18t-53.5 -46.5t-29.5 -64.5t-9 -72t9 -71.5t29.5 -64t53.5 -46.5t81 -18t81 18t53.5 46.5t29.5 64t9 71.5z" />
    <glyph glyph-name="uni24AB" unicode="&#x24ab;" 
d="M166 -165q-56 85 -84.5 207t-28.5 258t28.5 258t84.5 207h23q-31 -60 -50.5 -118t-31 -115.5t-15.5 -115t-4 -116.5t4 -116.5t15.5 -115t31 -115.5t50.5 -118h-23zM885 300q0 -136 -28.5 -258t-84.5 -207h-23q31 60 50.5 118t30.5 115.5t15.5 115t4.5 116.5t-4.5 116.5
t-15.5 115t-30.5 115.5t-50.5 118h23q56 -85 84.5 -207t28.5 -258zM332 11q0 -12 -12 -12h-11q-12 0 -12 12v547q0 12 12 12h15q12 0 12 -12l-4 -81q25 54 64.5 77.5t84.5 23.5q43 0 79 -15.5t61 -45.5t39 -73.5t14 -98.5q0 -51 -12.5 -94t-37 -73.5t-60.5 -48t-83 -17.5
q-56 0 -93 27.5t-56 68.5v-197zM481 547q-32 0 -59 -16t-47 -44t-31.5 -64.5t-11.5 -78.5q0 -36 9.5 -72t28 -64.5t46.5 -46.5t65 -18q42 0 71.5 17.5t49 46t28.5 64.5t9 74t-9 74t-28.5 64.5t-49 46t-71.5 17.5z" />
    <glyph glyph-name="uni24AC" unicode="&#x24ac;" 
d="M166 -165q-56 85 -84.5 207t-28.5 258t28.5 258t84.5 207h23q-31 -60 -50.5 -118t-31 -115.5t-15.5 -115t-4 -116.5t4 -116.5t15.5 -115t31 -115.5t50.5 -118h-23zM885 300q0 -136 -28.5 -258t-84.5 -207h-23q31 60 50.5 118t30.5 115.5t15.5 115t4.5 116.5t-4.5 116.5
t-15.5 115t-30.5 115.5t-50.5 118h23q56 -85 84.5 -207t28.5 -258zM607 208q-19 -41 -56 -68.5t-93 -27.5q-47 0 -83 17.5t-60.5 48t-37 73.5t-12.5 94q0 55 14 98.5t39 73.5t60.5 45.5t79.5 15.5q45 0 84.5 -23.5t64.5 -77.5l-4 81q0 12 12 12h15q12 0 12 -12v-547
q0 -12 -12 -12h-11q-12 0 -12 12v197zM458 547q-42 0 -71.5 -17.5t-49 -46t-28.5 -64.5t-9 -74t9 -74t28.5 -64.5t49 -46t71.5 -17.5q37 0 65 18t46.5 46.5t28 64.5t9.5 72q0 42 -11.5 78.5t-31.5 64.5t-47.5 44t-58.5 16z" />
    <glyph glyph-name="uni24AD" unicode="&#x24ad;" 
d="M166 -165q-56 85 -84.5 207t-28.5 258t28.5 258t84.5 207h23q-31 -60 -50.5 -118t-31 -115.5t-15.5 -115t-4 -116.5t4 -116.5t15.5 -115t31 -115.5t50.5 -118h-23zM885 300q0 -136 -28.5 -258t-84.5 -207h-23q31 60 50.5 118t30.5 115.5t15.5 115t4.5 116.5t-4.5 116.5
t-15.5 115t-30.5 115.5t-50.5 118h23q56 -85 84.5 -207t28.5 -258zM419 77q0 -11 -11 -11h-13q-11 0 -11 11v324q0 29 -0.5 46.5t-1.5 39.5q0 10 11 10h12q11 0 11 -10v-87q20 51 45.5 79.5t68.5 28.5q17 0 37 -5q5 -2 8.5 -5t3.5 -10v-9q0 -5 -4 -7t-8 0q-15 5 -38 5
q-15 0 -27.5 -6.5t-23.5 -17.5t-20 -25t-16 -29q-23 -45 -23 -116v-206z" />
    <glyph glyph-name="uni24AE" unicode="&#x24ae;" 
d="M166 -165q-56 85 -84.5 207t-28.5 258t28.5 258t84.5 207h23q-31 -60 -50.5 -118t-31 -115.5t-15.5 -115t-4 -116.5t4 -116.5t15.5 -115t31 -115.5t50.5 -118h-23zM885 300q0 -136 -28.5 -258t-84.5 -207h-23q31 60 50.5 118t30.5 115.5t15.5 115t4.5 116.5t-4.5 116.5
t-15.5 115t-30.5 115.5t-50.5 118h23q56 -85 84.5 -207t28.5 -258zM344 82q-3 2 -7 4.5t-3 10.5l3 21q3 10 13 7q49 -21 103 -21q59 0 88 26t29 65q0 21 -13 39t-35 32q-11 8 -27.5 16t-34.5 15.5t-35 15t-29 14.5q-56 32 -56 85q0 30 11.5 53t31 38t45.5 22.5t55 7.5
q31 0 53.5 -3t45.5 -10q4 -2 7 -4t3 -8l-3 -17q-1 -3 -4 -5t-6 0q-20 8 -49.5 10.5t-58.5 2.5q-47 0 -69.5 -25t-23.5 -62q-1 -22 18 -39t46 -31t55.5 -25.5t46.5 -21.5q39 -23 51.5 -48.5t12.5 -51.5q0 -33 -12 -56t-33 -38.5t-48.5 -23t-57.5 -8.5q-35 -2 -61 1.5
t-52 11.5z" />
    <glyph glyph-name="uni24AF" unicode="&#x24af;" 
d="M885 300q0 -136 -28.5 -258t-84.5 -207h-23q31 60 50.5 118t30.5 115.5t15.5 115t4.5 116.5t-4.5 116.5t-15.5 115t-30.5 115.5t-50.5 118h23q56 -85 84.5 -207t28.5 -258zM425 456v118q0 11 11 11h12q11 0 11 -11v-118h101q11 0 11 -11v-8q0 -12 -11 -12h-101v-237
q0 -91 4 -108q4 -15 11 -23.5t16.5 -12.5t21 -5t23.5 -1q10 0 21.5 3t20.5 6q11 4 12 -6l1 -11q1 -11 -10 -14q-9 -3 -23.5 -6t-26.5 -3q-26 -1 -52 6.5t-42 35.5q-11 20 -11 57v319h-90q-11 0 -11 12v8q0 11 11 11h90zM166 -165q-56 85 -84.5 207t-28.5 258t28.5 258
t84.5 207h23q-31 -60 -50.5 -118t-31 -115.5t-15.5 -115t-4 -116.5t4 -116.5t15.5 -115t31 -115.5t50.5 -118h-23z" />
    <glyph glyph-name="uni24B0" unicode="&#x24b0;" 
d="M166 -165q-56 85 -84.5 207t-28.5 258t28.5 258t84.5 207h23q-31 -60 -50.5 -118t-31 -115.5t-15.5 -115t-4 -116.5t4 -116.5t15.5 -115t31 -115.5t50.5 -118h-23zM885 300q0 -136 -28.5 -258t-84.5 -207h-23q31 60 50.5 118t30.5 115.5t15.5 115t4.5 116.5t-4.5 116.5
t-15.5 115t-30.5 115.5t-50.5 118h23q56 -85 84.5 -207t28.5 -258zM609 502q0 11 11 11h11q11 0 11 -11v-323l2 -89q0 -11 -11 -11h-9q-11 0 -11 11v80q-6 -14 -18 -32t-31.5 -34t-46 -27t-60.5 -11q-86 0 -122 47t-36 141v248q0 11 11 11h11q12 0 12 -11v-247
q0 -78 28.5 -119.5t99.5 -38.5q40 1 68 20t46 44.5t26 54t8 49.5v237z" />
    <glyph glyph-name="uni24B1" unicode="&#x24b1;" 
d="M166 -165q-56 85 -84.5 207t-28.5 258t28.5 258t84.5 207h23q-31 -60 -50.5 -118t-31 -115.5t-15.5 -115t-4 -116.5t4 -116.5t15.5 -115t31 -115.5t50.5 -118h-23zM885 300q0 -136 -28.5 -258t-84.5 -207h-23q31 60 50.5 118t30.5 115.5t15.5 115t4.5 116.5t-4.5 116.5
t-15.5 115t-30.5 115.5t-50.5 118h23q56 -85 84.5 -207t28.5 -258zM450 53q-5 0 -8 8l-154 421q-3 8 7 8h19q6 0 10 -8l144 -399l145 399q3 8 10 8h20q7 0 6 -8l-154 -421q-3 -8 -8 -8h-37z" />
    <glyph glyph-name="uni24B2" unicode="&#x24b2;" 
d="M166 -165q-56 85 -84.5 207t-28.5 258t28.5 258t84.5 207h23q-31 -60 -50.5 -118t-31 -115.5t-15.5 -115t-4 -116.5t4 -116.5t15.5 -115t31 -115.5t50.5 -118h-23zM885 300q0 -136 -28.5 -258t-84.5 -207h-23q31 60 50.5 118t30.5 115.5t15.5 115t4.5 116.5t-4.5 116.5
t-15.5 115t-30.5 115.5t-50.5 118h23q56 -85 84.5 -207t28.5 -258zM476 472l-131 -396q-2 -6 -4.5 -9t-7.5 -3h-35q-8 0 -12 12l-138 416q-3 11 9 11h13q11 0 14 -11l131 -401l136 401q3 11 14 11h22q11 0 14 -11l128 -401l131 401q3 11 14 11h13q12 0 9 -11l-138 -416
q-2 -6 -4.5 -9t-7.5 -3h-35q-8 0 -12 12z" />
    <glyph glyph-name="uni24B3" unicode="&#x24b3;" 
d="M166 -165q-56 85 -84.5 207t-28.5 258t28.5 258t84.5 207h23q-31 -60 -50.5 -118t-31 -115.5t-15.5 -115t-4 -116.5t4 -116.5t15.5 -115t31 -115.5t50.5 -118h-23zM885 300q0 -136 -28.5 -258t-84.5 -207h-23q31 60 50.5 118t30.5 115.5t15.5 115t4.5 116.5t-4.5 116.5
t-15.5 115t-30.5 115.5t-50.5 118h23q56 -85 84.5 -207t28.5 -258zM594 506q5 5 7 8t8 3h14q6 0 10 -3t-1 -8l-144 -197l161 -219q5 -6 1 -9t-10 -3h-11q-6 0 -9.5 2.5t-8.5 9.5l-143 193l-142 -193q-5 -7 -8.5 -9.5t-9.5 -2.5h-11q-6 0 -10 3t1 9l161 219l-144 197
q-5 5 -1 8t10 3h14q6 0 8 -3t7 -8l125 -171z" />
    <glyph glyph-name="uni24B4" unicode="&#x24b4;" 
d="M326 -14q-7 3 -6 10l1 15q1 5 2.5 5.5t5.5 -0.5q6 -2 14 -3t14 -1q24 0 40 4.5t28 17t21.5 36t20.5 61.5l-156 416q-3 8 7 8h20q6 0 10 -8l135 -375l136 375q3 8 10 8h20q9 0 6 -8l-172 -464q-19 -54 -48 -76.5t-66 -22.5h-18q-15 0 -25 2zM885 300q0 -136 -28.5 -258
t-84.5 -207h-23q31 60 50.5 118t30.5 115.5t15.5 115t4.5 116.5t-4.5 116.5t-15.5 115t-30.5 115.5t-50.5 118h23q56 -85 84.5 -207t28.5 -258zM166 -165q-56 85 -84.5 207t-28.5 258t28.5 258t84.5 207h23q-31 -60 -50.5 -118t-31 -115.5t-15.5 -115t-4 -116.5t4 -116.5
t15.5 -115t31 -115.5t50.5 -118h-23z" />
    <glyph glyph-name="uni24B5" unicode="&#x24b5;" 
d="M166 -165q-56 85 -84.5 207t-28.5 258t28.5 258t84.5 207h23q-31 -60 -50.5 -118t-31 -115.5t-15.5 -115t-4 -116.5t4 -116.5t15.5 -115t31 -115.5t50.5 -118h-23zM885 300q0 -136 -28.5 -258t-84.5 -207h-23q31 60 50.5 118t30.5 115.5t15.5 115t4.5 116.5t-4.5 116.5
t-15.5 115t-30.5 115.5t-50.5 118h23q56 -85 84.5 -207t28.5 -258zM588 489h-262q-11 0 -11 12v8q0 11 11 11h292q12 0 12 -11v-12q0 -9 -5 -16l-285 -367h282q12 0 12 -12v-8q0 -11 -12 -11h-307q-11 0 -11 11v12q0 8 4 16z" />
    <glyph glyph-name="uni24D0" unicode="&#x24d0;" 
d="M882 301q0 86 -32 161t-88 131t-131 88t-161 32t-161 -32t-131 -88t-88 -131t-32 -161t32 -161t88 -131t131 -88t161 -32t161 32t131 88t88 131t32 161zM913 301q0 -92 -35 -172.5t-95 -140.5t-141 -95t-172 -35q-92 0 -172.5 35t-140.5 95t-95 140.5t-35 172.5
q0 91 35 172t95 141t140.5 95t172.5 35q91 0 172 -35t141 -95t95 -141t35 -172zM574 313q-53 2 -100.5 -1.5t-73.5 -16.5q-35 -17 -54.5 -40t-19.5 -71t33 -72.5t84 -24.5q33 0 61 10t48.5 31t32.5 54t12 79v52h-23zM345 455q-11 -6 -11 5v18q0 11 11 18q29 14 61 20.5
t71 6.5q81 0 117.5 -38.5t36.5 -117.5v-205q0 -24 0.5 -43.5t2.5 -36.5q0 -12 -11 -12h-15q-11 0 -11 12v62q-9 -21 -26 -37t-38.5 -27t-46 -17t-47.5 -6q-66 0 -106.5 33t-40.5 96q0 101 95 138q33 14 83.5 18.5t111.5 4.5h15v24q0 26 -5.5 48t-19 38.5t-36.5 25.5t-59 9
q-38 0 -70.5 -10t-61.5 -27z" />
    <glyph glyph-name="uni24D1" unicode="&#x24d1;" 
d="M355 335q18 38 52.5 63.5t85.5 25.5q88 0 132.5 -52t44.5 -163q0 -110 -44.5 -163t-132.5 -53q-42 0 -78.5 23t-59.5 71v-75q0 -11 -11 -11h-11q-10 0 -10 11v586q0 10 10 10h11q11 0 11 -10v-263zM493 23q46 0 74.5 16t44 42t21 59.5t5.5 68.5t-5.5 68.5t-21 60
t-44 42.5t-74.5 16q-35 0 -60.5 -16.5t-43 -43t-26 -60t-8.5 -67.5q0 -38 10.5 -71.5t29 -59t44 -40.5t54.5 -15zM882 301q0 86 -32 161t-88 131t-131 88t-161 32t-161 -32t-131 -88t-88 -131t-32 -161t32 -161t88 -131t131 -88t161 -32t161 32t131 88t88 131t32 161z
M913 301q0 -92 -35 -172.5t-95 -140.5t-141 -95t-172 -35q-92 0 -172.5 35t-140.5 95t-95 140.5t-35 172.5q0 91 35 172t95 141t140.5 95t172.5 35q91 0 172 -35t141 -95t95 -141t35 -172z" />
    <glyph glyph-name="uni24D2" unicode="&#x24d2;" 
d="M308 295q0 -57 22.5 -99t61 -66.5t89 -30.5t107.5 9q12 1 13 -7l1 -10q1 -8 -2 -11.5t-8 -5.5q-66 -16 -124 -8t-101 37t-67.5 77.5t-24.5 114.5q0 65 24.5 113.5t67.5 77t101 36.5t124 -8q11 -5 10 -15l-1 -12q-1 -8 -13 -7q-57 16 -107.5 10.5t-89 -30t-61 -66.5
t-22.5 -99zM882 301q0 86 -32 161t-88 131t-131 88t-161 32t-161 -32t-131 -88t-88 -131t-32 -161t32 -161t88 -131t131 -88t161 -32t161 32t131 88t88 131t32 161zM913 301q0 -92 -35 -172.5t-95 -140.5t-141 -95t-172 -35q-92 0 -172.5 35t-140.5 95t-95 140.5t-35 172.5
q0 91 35 172t95 141t140.5 95t172.5 35q91 0 172 -35t141 -95t95 -141t35 -172z" />
    <glyph glyph-name="uni24D3" unicode="&#x24d3;" 
d="M584 598q0 10 11 10h11q10 0 10 -10v-586q0 -11 -10 -11h-11q-11 0 -11 11v75q-23 -48 -59.5 -71t-78.5 -23q-88 0 -132.5 53t-44.5 163q0 111 44.5 163t132.5 52q51 0 85.5 -25.5t52.5 -63.5v263zM446 23q29 0 54.5 15t44 40.5t29 59t10.5 71.5q0 34 -8.5 67.5t-26 60
t-43.5 43t-60 16.5q-46 0 -74.5 -16t-44 -42.5t-21 -60t-5.5 -68.5t5.5 -68.5t21 -59.5t44 -42t74.5 -16zM882 301q0 86 -32 161t-88 131t-131 88t-161 32t-161 -32t-131 -88t-88 -131t-32 -161t32 -161t88 -131t131 -88t161 -32t161 32t131 88t88 131t32 161zM913 301
q0 -92 -35 -172.5t-95 -140.5t-141 -95t-172 -35q-92 0 -172.5 35t-140.5 95t-95 140.5t-35 172.5q0 91 35 172t95 141t140.5 95t172.5 35q91 0 172 -35t141 -95t95 -141t35 -172z" />
    <glyph glyph-name="uni24D4" unicode="&#x24d4;" 
d="M606 312q1 32 -6 64.5t-23 58.5t-42 42.5t-65 16.5q-38 0 -66.5 -16.5t-48 -42.5t-29.5 -58.5t-11 -64.5h291zM315 282q-1 -40 9.5 -74t31.5 -58.5t53.5 -38.5t75.5 -14q65 0 111 26q11 5 11 -6v-16q0 -7 -9 -12q-26 -10 -55 -15t-62 -5q-199 0 -199 229q0 44 12.5 85
t35.5 72.5t57 50t78 18.5q46 0 79 -17.5t54 -46.5t31 -68.5t10 -82.5q0 -11 -0.5 -16.5t-3 -7.5t-8.5 -2.5t-17 -0.5h-295zM882 301q0 86 -32 161t-88 131t-131 88t-161 32t-161 -32t-131 -88t-88 -131t-32 -161t32 -161t88 -131t131 -88t161 -32t161 32t131 88t88 131
t32 161zM913 301q0 -92 -35 -172.5t-95 -140.5t-141 -95t-172 -35q-92 0 -172.5 35t-140.5 95t-95 140.5t-35 172.5q0 91 35 172t95 141t140.5 95t172.5 35q91 0 172 -35t141 -95t95 -141t35 -172z" />
    <glyph glyph-name="uni24D5" unicode="&#x24d5;" 
d="M361 349q-11 0 -11 11v11q0 10 11 10h81v42q0 42 2 68.5t10 44.5q11 27 37.5 41t50.5 13q11 0 20.5 -1t17.5 -4q10 -3 9 -13l-2 -10q0 -10 -10 -6q-8 3 -15 4.5t-16 1.5q-22 0 -42.5 -11t-25.5 -40q-2 -9 -3 -27.5t-1 -60.5v-42h92q11 0 11 -10v-11q0 -11 -11 -11h-92
l-1 -357q0 -11 -10 -11h-9q-11 0 -11 11l-1 357h-81zM882 301q0 86 -32 161t-88 131t-131 88t-161 32t-161 -32t-131 -88t-88 -131t-32 -161t32 -161t88 -131t131 -88t161 -32t161 32t131 88t88 131t32 161zM913 301q0 -92 -35 -172.5t-95 -140.5t-141 -95t-172 -35
q-92 0 -172.5 35t-140.5 95t-95 140.5t-35 172.5q0 91 35 172t95 141t140.5 95t172.5 35q91 0 172 -35t141 -95t95 -141t35 -172z" />
    <glyph glyph-name="uni24D6" unicode="&#x24d6;" 
d="M470 164q38 0 64 15t42 38t23 52t7 58q0 35 -7 68t-23 58.5t-42 41t-64 15.5t-65 -15.5t-44 -41t-25 -58.5t-8 -68q0 -29 8 -58t25 -52t44 -38t65 -15zM342 55q30 -13 55 -17.5t57 -4.5q72 0 114.5 41.5t42.5 131.5v17q-23 -49 -62 -68t-79 -19q-43 0 -75.5 14.5
t-54.5 40.5t-33 60.5t-11 75.5q0 55 13 94.5t36 65.5t55 38.5t70 12.5q51 0 87.5 -24t53.5 -62v68q0 11 11 11h11q10 0 10 -11v-303q1 -104 -47 -158.5t-143 -54.5q-34 0 -57.5 4t-54.5 13q-12 4 -10 15v12q2 10 11 7zM882 301q0 86 -32 161t-88 131t-131 88t-161 32
t-161 -32t-131 -88t-88 -131t-32 -161t32 -161t88 -131t131 -88t161 -32t161 32t131 88t88 131t32 161zM913 301q0 -92 -35 -172.5t-95 -140.5t-141 -95t-172 -35q-92 0 -172.5 35t-140.5 95t-95 140.5t-35 172.5q0 91 35 172t95 141t140.5 95t172.5 35q91 0 172 -35
t141 -95t95 -141t35 -172z" />
    <glyph glyph-name="uni24D7" unicode="&#x24d7;" 
d="M343 12q0 -11 -11 -11h-10q-11 0 -11 11v587q0 11 11 11h10q11 0 11 -11v-245q16 27 53.5 48.5t91.5 21.5q150 0 150 -176v-236q0 -11 -10 -11h-11q-11 0 -11 11v235q0 74 -28 111t-99 37q-31 0 -56 -12.5t-43 -31t-27.5 -41t-9.5 -42.5v-256zM882 301q0 86 -32 161
t-88 131t-131 88t-161 32t-161 -32t-131 -88t-88 -131t-32 -161t32 -161t88 -131t131 -88t161 -32t161 32t131 88t88 131t32 161zM913 301q0 -92 -35 -172.5t-95 -140.5t-141 -95t-172 -35q-92 0 -172.5 35t-140.5 95t-95 140.5t-35 172.5q0 91 35 172t95 141t140.5 95
t172.5 35q91 0 172 -35t141 -95t95 -141t35 -172z" />
    <glyph glyph-name="uni24D8" unicode="&#x24d8;" 
d="M441 569q0 11 8 19.5t19 8.5t19.5 -8.5t8.5 -19.5t-8.5 -19t-19.5 -8t-19 8t-8 19zM486 0q0 -11 -12 -11h-11q-11 0 -11 11v408q0 11 11 11h11q12 0 12 -11v-408zM882 301q0 86 -32 161t-88 131t-131 88t-161 32t-161 -32t-131 -88t-88 -131t-32 -161t32 -161t88 -131
t131 -88t161 -32t161 32t131 88t88 131t32 161zM913 301q0 -92 -35 -172.5t-95 -140.5t-141 -95t-172 -35q-92 0 -172.5 35t-140.5 95t-95 140.5t-35 172.5q0 91 35 172t95 141t140.5 95t172.5 35q91 0 172 -35t141 -95t95 -141t35 -172z" />
    <glyph glyph-name="uni24D9" unicode="&#x24d9;" 
d="M452 648q0 11 8 19.5t20 8.5t20.5 -8.5t8.5 -19.5q0 -12 -8.5 -20.5t-20.5 -8.5t-20 8.5t-8 20.5zM366 -75q-9 1 -9 9v12q0 6 2 7.5t7 0.5q10 -2 23 -2q27 0 42.5 7t23 20t9.5 30t2 38v434q0 11 12 11h11q11 0 11 -11v-448q0 -28 -4.5 -49t-16 -34.5t-31 -20.5t-50.5 -7
q-12 0 -17 0.5t-15 2.5zM882 301q0 86 -32 161t-88 131t-131 88t-161 32t-161 -32t-131 -88t-88 -131t-32 -161t32 -161t88 -131t131 -88t161 -32t161 32t131 88t88 131t32 161zM913 301q0 -92 -35 -172.5t-95 -140.5t-141 -95t-172 -35q-92 0 -172.5 35t-140.5 95
t-95 140.5t-35 172.5q0 91 35 172t95 141t140.5 95t172.5 35q91 0 172 -35t141 -95t95 -141t35 -172z" />
    <glyph glyph-name="uni24DA" unicode="&#x24da;" 
d="M343 602q0 11 11 11h10q12 0 12 -11v-432l208 237q9 11 26 11h12q5 0 6 -3.5t-3 -7.5l-157 -177l170 -218q6 -11 -3 -11h-14q-8 0 -14 2t-10 9l-150 194l-71 -80v-114q0 -11 -12 -11h-10q-11 0 -11 11v590zM882 301q0 86 -32 161t-88 131t-131 88t-161 32t-161 -32
t-131 -88t-88 -131t-32 -161t32 -161t88 -131t131 -88t161 -32t161 32t131 88t88 131t32 161zM913 301q0 -92 -35 -172.5t-95 -140.5t-141 -95t-172 -35q-92 0 -172.5 35t-140.5 95t-95 140.5t-35 172.5q0 91 35 172t95 141t140.5 95t172.5 35q91 0 172 -35t141 -95t95 -141
t35 -172z" />
    <glyph glyph-name="uni24DB" unicode="&#x24db;" 
d="M486 5q0 -11 -12 -11h-11q-11 0 -11 11v588q0 11 11 11h11q12 0 12 -11v-588zM882 301q0 86 -32 161t-88 131t-131 88t-161 32t-161 -32t-131 -88t-88 -131t-32 -161t32 -161t88 -131t131 -88t161 -32t161 32t131 88t88 131t32 161zM913 301q0 -92 -35 -172.5t-95 -140.5
t-141 -95t-172 -35q-92 0 -172.5 35t-140.5 95t-95 140.5t-35 172.5q0 91 35 172t95 141t140.5 95t172.5 35q91 0 172 -35t141 -95t95 -141t35 -172z" />
    <glyph glyph-name="uni24DC" unicode="&#x24dc;" 
d="M229 461q19 30 46.5 50t72.5 20q48 0 82.5 -24t42.5 -71q17 47 57.5 71t88.5 24q38 0 65 -12.5t44 -34t25 -49.5t8 -59v-285q0 -11 -11 -11h-11q-11 0 -11 11v282q0 56 -29 91t-80 36q-27 0 -51.5 -12t-42.5 -33t-28 -49.5t-9 -61.5v-253q0 -11 -11 -11h-11q-12 0 -12 11
v282q0 28 -8 51t-21.5 40t-33 26.5t-41.5 9.5q-27 0 -48.5 -12t-36.5 -32t-23 -46.5t-8 -55.5v-263q0 -11 -12 -11h-11q-11 0 -11 11v327q0 45 -3 92q0 11 11 11h10q11 0 11 -11v-49zM882 301q0 86 -32 161t-88 131t-131 88t-161 32t-161 -32t-131 -88t-88 -131t-32 -161
t32 -161t88 -131t131 -88t161 -32t161 32t131 88t88 131t32 161zM913 301q0 -92 -35 -172.5t-95 -140.5t-141 -95t-172 -35q-92 0 -172.5 35t-140.5 95t-95 140.5t-35 172.5q0 91 35 172t95 141t140.5 95t172.5 35q91 0 172 -35t141 -95t95 -141t35 -172z" />
    <glyph glyph-name="uni24DD" unicode="&#x24dd;" 
d="M913 301q0 -92 -35 -172.5t-95 -140.5t-141 -95t-172 -35q-92 0 -172.5 35t-140.5 95t-95 140.5t-35 172.5q0 91 35 172t95 141t140.5 95t172.5 35q91 0 172 -35t141 -95t95 -141t35 -172zM882 301q0 86 -32 161t-88 131t-131 88t-161 32t-161 -32t-131 -88t-88 -131
t-32 -161t32 -161t88 -131t131 -88t161 -32t161 32t131 88t88 131t32 161zM340 96q0 -11 -11 -11h-11q-12 0 -12 11v370q0 23 -2 46q-2 12 11 12h14q11 0 11 -12v-52q8 14 19.5 27t29 23t42 16.5t58.5 6.5q87 1 123.5 -45.5t36.5 -140.5v-251q0 -11 -11 -11h-11
q-12 0 -12 11v250q0 79 -31.5 118t-102.5 39q-33 0 -59.5 -13t-44.5 -33t-27.5 -44t-9.5 -45v-272z" />
    <glyph glyph-name="uni24DE" unicode="&#x24de;" 
d="M672 303q0 -40 -11.5 -81t-36 -74.5t-64 -54.5t-95.5 -21t-95.5 21t-64 54.5t-36 74.5t-11.5 81t11.5 81.5t36 75t64 54.5t95.5 21t95.5 -21t64 -54.5t36 -75t11.5 -81.5zM638 303q0 36 -9 72t-29.5 64.5t-53.5 46.5t-81 18t-81 -18t-53.5 -46.5t-29.5 -64.5t-9 -72
t9 -71.5t29.5 -64t53.5 -46.5t81 -18t81 18t53.5 46.5t29.5 64t9 71.5zM882 301q0 86 -32 161t-88 131t-131 88t-161 32t-161 -32t-131 -88t-88 -131t-32 -161t32 -161t88 -131t131 -88t161 -32t161 32t131 88t88 131t32 161zM913 301q0 -92 -35 -172.5t-95 -140.5t-141 -95
t-172 -35q-92 0 -172.5 35t-140.5 95t-95 140.5t-35 172.5q0 91 35 172t95 141t140.5 95t172.5 35q91 0 172 -35t141 -95t95 -141t35 -172z" />
    <glyph glyph-name="uni24DF" unicode="&#x24df;" 
d="M332 11q0 -12 -12 -12h-11q-12 0 -12 12v547q0 12 12 12h15q12 0 12 -12l-4 -81q25 54 64.5 77.5t84.5 23.5q43 0 79 -15.5t61 -45.5t39 -73.5t14 -98.5q0 -51 -12.5 -94t-37 -73.5t-60.5 -48t-83 -17.5q-56 0 -93 27.5t-56 68.5v-197zM481 547q-32 0 -59 -16t-47 -44
t-31.5 -64.5t-11.5 -78.5q0 -36 9.5 -72t28 -64.5t46.5 -46.5t65 -18q42 0 71.5 17.5t49 46t28.5 64.5t9 74t-9 74t-28.5 64.5t-49 46t-71.5 17.5zM882 301q0 86 -32 161t-88 131t-131 88t-161 32t-161 -32t-131 -88t-88 -131t-32 -161t32 -161t88 -131t131 -88t161 -32
t161 32t131 88t88 131t32 161zM913 301q0 -92 -35 -172.5t-95 -140.5t-141 -95t-172 -35q-92 0 -172.5 35t-140.5 95t-95 140.5t-35 172.5q0 91 35 172t95 141t140.5 95t172.5 35q91 0 172 -35t141 -95t95 -141t35 -172z" />
    <glyph glyph-name="uni24E0" unicode="&#x24e0;" 
d="M607 208q-19 -41 -56 -68.5t-93 -27.5q-47 0 -83 17.5t-60.5 48t-37 73.5t-12.5 94q0 55 14 98.5t39 73.5t60.5 45.5t79.5 15.5q45 0 84.5 -23.5t64.5 -77.5l-4 81q0 12 12 12h15q12 0 12 -12v-547q0 -12 -12 -12h-11q-12 0 -12 12v197zM458 547q-42 0 -71.5 -17.5
t-49 -46t-28.5 -64.5t-9 -74t9 -74t28.5 -64.5t49 -46t71.5 -17.5q37 0 65 18t46.5 46.5t28 64.5t9.5 72q0 42 -11.5 78.5t-31.5 64.5t-47.5 44t-58.5 16zM882 301q0 86 -32 161t-88 131t-131 88t-161 32t-161 -32t-131 -88t-88 -131t-32 -161t32 -161t88 -131t131 -88
t161 -32t161 32t131 88t88 131t32 161zM913 301q0 -92 -35 -172.5t-95 -140.5t-141 -95t-172 -35q-92 0 -172.5 35t-140.5 95t-95 140.5t-35 172.5q0 91 35 172t95 141t140.5 95t172.5 35q91 0 172 -35t141 -95t95 -141t35 -172z" />
    <glyph glyph-name="uni24E1" unicode="&#x24e1;" 
d="M419 77q0 -11 -11 -11h-13q-11 0 -11 11v324q0 29 -0.5 46.5t-1.5 39.5q0 10 11 10h12q11 0 11 -10v-87q20 51 45.5 79.5t68.5 28.5q17 0 37 -5q5 -2 8.5 -5t3.5 -10v-9q0 -5 -4 -7t-8 0q-15 5 -38 5q-15 0 -27.5 -6.5t-23.5 -17.5t-20 -25t-16 -29q-23 -45 -23 -116
v-206zM882 301q0 86 -32 161t-88 131t-131 88t-161 32t-161 -32t-131 -88t-88 -131t-32 -161t32 -161t88 -131t131 -88t161 -32t161 32t131 88t88 131t32 161zM913 301q0 -92 -35 -172.5t-95 -140.5t-141 -95t-172 -35q-92 0 -172.5 35t-140.5 95t-95 140.5t-35 172.5
q0 91 35 172t95 141t140.5 95t172.5 35q91 0 172 -35t141 -95t95 -141t35 -172z" />
    <glyph glyph-name="uni24E2" unicode="&#x24e2;" 
d="M344 82q-3 2 -7 4.5t-3 10.5l3 21q3 10 13 7q49 -21 103 -21q59 0 88 26t29 65q0 21 -13 39t-35 32q-11 8 -27.5 16t-34.5 15.5t-35 15t-29 14.5q-56 32 -56 85q0 30 11.5 53t31 38t45.5 22.5t55 7.5q31 0 53.5 -3t45.5 -10q4 -2 7 -4t3 -8l-3 -17q-1 -3 -4 -5t-6 0
q-20 8 -49.5 10.5t-58.5 2.5q-47 0 -69.5 -25t-23.5 -62q-1 -22 18 -39t46 -31t55.5 -25.5t46.5 -21.5q39 -23 51.5 -48.5t12.5 -51.5q0 -33 -12 -56t-33 -38.5t-48.5 -23t-57.5 -8.5q-35 -2 -61 1.5t-52 11.5zM882 301q0 86 -32 161t-88 131t-131 88t-161 32t-161 -32
t-131 -88t-88 -131t-32 -161t32 -161t88 -131t131 -88t161 -32t161 32t131 88t88 131t32 161zM913 301q0 -92 -35 -172.5t-95 -140.5t-141 -95t-172 -35q-92 0 -172.5 35t-140.5 95t-95 140.5t-35 172.5q0 91 35 172t95 141t140.5 95t172.5 35q91 0 172 -35t141 -95t95 -141
t35 -172z" />
    <glyph glyph-name="uni24E3" unicode="&#x24e3;" 
d="M913 301q0 -92 -35 -172.5t-95 -140.5t-141 -95t-172 -35q-92 0 -172.5 35t-140.5 95t-95 140.5t-35 172.5q0 91 35 172t95 141t140.5 95t172.5 35q91 0 172 -35t141 -95t95 -141t35 -172zM882 301q0 86 -32 161t-88 131t-131 88t-161 32t-161 -32t-131 -88t-88 -131
t-32 -161t32 -161t88 -131t131 -88t161 -32t161 32t131 88t88 131t32 161zM425 456v118q0 11 11 11h12q11 0 11 -11v-118h101q11 0 11 -11v-8q0 -12 -11 -12h-101v-237q0 -91 4 -108q4 -15 11 -23.5t16.5 -12.5t21 -5t23.5 -1q10 0 21.5 3t20.5 6q11 4 12 -6l1 -11
q1 -11 -10 -14q-9 -3 -23.5 -6t-26.5 -3q-26 -1 -52 6.5t-42 35.5q-11 20 -11 57v319h-90q-11 0 -11 12v8q0 11 11 11h90z" />
    <glyph glyph-name="uni24E4" unicode="&#x24e4;" 
d="M609 502q0 11 11 11h11q11 0 11 -11v-323l2 -89q0 -11 -11 -11h-9q-11 0 -11 11v80q-6 -14 -18 -32t-31.5 -34t-46 -27t-60.5 -11q-86 0 -122 47t-36 141v248q0 11 11 11h11q12 0 12 -11v-247q0 -78 28.5 -119.5t99.5 -38.5q40 1 68 20t46 44.5t26 54t8 49.5v237z
M882 301q0 86 -32 161t-88 131t-131 88t-161 32t-161 -32t-131 -88t-88 -131t-32 -161t32 -161t88 -131t131 -88t161 -32t161 32t131 88t88 131t32 161zM913 301q0 -92 -35 -172.5t-95 -140.5t-141 -95t-172 -35q-92 0 -172.5 35t-140.5 95t-95 140.5t-35 172.5q0 91 35 172
t95 141t140.5 95t172.5 35q91 0 172 -35t141 -95t95 -141t35 -172z" />
    <glyph glyph-name="uni24E5" unicode="&#x24e5;" 
d="M450 53q-5 0 -8 8l-154 421q-3 8 7 8h19q6 0 10 -8l144 -399l145 399q3 8 10 8h20q7 0 6 -8l-154 -421q-3 -8 -8 -8h-37zM882 301q0 86 -32 161t-88 131t-131 88t-161 32t-161 -32t-131 -88t-88 -131t-32 -161t32 -161t88 -131t131 -88t161 -32t161 32t131 88t88 131
t32 161zM913 301q0 -92 -35 -172.5t-95 -140.5t-141 -95t-172 -35q-92 0 -172.5 35t-140.5 95t-95 140.5t-35 172.5q0 91 35 172t95 141t140.5 95t172.5 35q91 0 172 -35t141 -95t95 -141t35 -172z" />
    <glyph glyph-name="uni24E6" unicode="&#x24e6;" 
d="M476 472l-131 -396q-2 -6 -4.5 -9t-7.5 -3h-35q-8 0 -12 12l-138 416q-3 11 9 11h13q11 0 14 -11l131 -401l136 401q3 11 14 11h22q11 0 14 -11l128 -401l131 401q3 11 14 11h13q12 0 9 -11l-138 -416q-2 -6 -4.5 -9t-7.5 -3h-35q-8 0 -12 12zM882 301q0 86 -32 161
t-88 131t-131 88t-161 32t-161 -32t-131 -88t-88 -131t-32 -161t32 -161t88 -131t131 -88t161 -32t161 32t131 88t88 131t32 161zM913 301q0 -92 -35 -172.5t-95 -140.5t-141 -95t-172 -35q-92 0 -172.5 35t-140.5 95t-95 140.5t-35 172.5q0 91 35 172t95 141t140.5 95
t172.5 35q91 0 172 -35t141 -95t95 -141t35 -172z" />
    <glyph glyph-name="uni24E7" unicode="&#x24e7;" 
d="M594 506q5 5 7 8t8 3h14q6 0 10 -3t-1 -8l-144 -197l161 -219q5 -6 1 -9t-10 -3h-11q-6 0 -9.5 2.5t-8.5 9.5l-143 193l-142 -193q-5 -7 -8.5 -9.5t-9.5 -2.5h-11q-6 0 -10 3t1 9l161 219l-144 197q-5 5 -1 8t10 3h14q6 0 8 -3t7 -8l125 -171zM882 301q0 86 -32 161
t-88 131t-131 88t-161 32t-161 -32t-131 -88t-88 -131t-32 -161t32 -161t88 -131t131 -88t161 -32t161 32t131 88t88 131t32 161zM913 301q0 -92 -35 -172.5t-95 -140.5t-141 -95t-172 -35q-92 0 -172.5 35t-140.5 95t-95 140.5t-35 172.5q0 91 35 172t95 141t140.5 95
t172.5 35q91 0 172 -35t141 -95t95 -141t35 -172z" />
    <glyph glyph-name="uni24E8" unicode="&#x24e8;" 
d="M913 301q0 -92 -35 -172.5t-95 -140.5t-141 -95t-172 -35q-92 0 -172.5 35t-140.5 95t-95 140.5t-35 172.5q0 91 35 172t95 141t140.5 95t172.5 35q91 0 172 -35t141 -95t95 -141t35 -172zM882 301q0 86 -32 161t-88 131t-131 88t-161 32t-161 -32t-131 -88t-88 -131
t-32 -161t32 -161t88 -131t131 -88t161 -32t161 32t131 88t88 131t32 161zM326 -14q-7 3 -6 10l1 15q1 5 2.5 5.5t5.5 -0.5q6 -2 14 -3t14 -1q24 0 40 4.5t28 17t21.5 36t20.5 61.5l-156 416q-3 8 7 8h20q6 0 10 -8l135 -375l136 375q3 8 10 8h20q9 0 6 -8l-172 -464
q-19 -54 -48 -76.5t-66 -22.5h-18q-15 0 -25 2z" />
    <glyph glyph-name="uni24E9" unicode="&#x24e9;" 
d="M588 489h-262q-11 0 -11 12v8q0 11 11 11h292q12 0 12 -11v-12q0 -9 -5 -16l-285 -367h282q12 0 12 -12v-8q0 -11 -12 -11h-307q-11 0 -11 11v12q0 8 4 16zM882 301q0 86 -32 161t-88 131t-131 88t-161 32t-161 -32t-131 -88t-88 -131t-32 -161t32 -161t88 -131t131 -88
t161 -32t161 32t131 88t88 131t32 161zM913 301q0 -92 -35 -172.5t-95 -140.5t-141 -95t-172 -35q-92 0 -172.5 35t-140.5 95t-95 140.5t-35 172.5q0 91 35 172t95 141t140.5 95t172.5 35q91 0 172 -35t141 -95t95 -141t35 -172z" />
    <glyph glyph-name="SF100000" unicode="&#x2500;" 
d="M0 286v29h940v-29h-940z" />
    <glyph glyph-name="uni2501" unicode="&#x2501;" 
d="M0 271v54h940v-54h-940z" />
    <glyph glyph-name="SF110000" unicode="&#x2502;" 
d="M455 -200v1000h29v-1000h-29z" />
    <glyph glyph-name="uni2503" unicode="&#x2503;" 
d="M443 -200v1000h54v-1000h-54z" />
    <glyph glyph-name="SF010000" unicode="&#x250c;" 
d="M484 286v-486h-29v515h484v-29h-455z" />
    <glyph glyph-name="uni250D" unicode="&#x250d;" 
d="M488 264v-464h-38v536h489v-72h-451z" />
    <glyph glyph-name="uni250E" unicode="&#x250e;" 
d="M507 282v-482h-76v518h508v-36h-432z" />
    <glyph glyph-name="uni250F" unicode="&#x250f;" 
d="M496 271v-471h-54v525h497v-54h-443z" />
    <glyph glyph-name="SF030000" unicode="&#x2510;" 
d="M456 -200v486h-456v29h485v-515h-29z" />
    <glyph glyph-name="uni2511" unicode="&#x2511;" 
d="M451 -200v464h-451v72h489v-536h-38z" />
    <glyph glyph-name="uni2512" unicode="&#x2512;" 
d="M432 -200v482h-432v36h508v-518h-76z" />
    <glyph glyph-name="uni2513" unicode="&#x2513;" 
d="M443 -200v471h-443v54h497v-525h-54z" />
    <glyph glyph-name="SF020000" unicode="&#x2514;" 
d="M455 286v514h29v-485h455v-29h-484z" />
    <glyph glyph-name="uni2515" unicode="&#x2515;" 
d="M450 264v536h38v-464h451v-72h-489z" />
    <glyph glyph-name="uni2516" unicode="&#x2516;" 
d="M431 282v518h76v-482h432v-36h-508z" />
    <glyph glyph-name="uni2517" unicode="&#x2517;" 
d="M442 271v529h54v-475h443v-54h-497z" />
    <glyph glyph-name="SF040000" unicode="&#x2518;" 
d="M0 286v29h456v485h29v-514h-485z" />
    <glyph glyph-name="uni2519" unicode="&#x2519;" 
d="M0 264v72h451v464h38v-536h-489z" />
    <glyph glyph-name="uni251A" unicode="&#x251a;" 
d="M0 282v36h432v482h76v-518h-508z" />
    <glyph glyph-name="uni251B" unicode="&#x251b;" 
d="M0 271v54h443v475h54v-529h-497z" />
    <glyph glyph-name="SF080000" unicode="&#x251c;" 
d="M484 286v-486h-29v1000h29v-485h455v-29h-455z" />
    <glyph glyph-name="uni251D" unicode="&#x251d;" 
d="M488 264v-464h-38v1000h38v-464h451v-72h-451z" />
    <glyph glyph-name="uni251E" unicode="&#x251e;" 
d="M488 282l1 -482h-38v500h-19v500h76v-482h432v-36h-452z" />
    <glyph glyph-name="uni251F" unicode="&#x251f;" 
d="M507 282v-482h-76v500h19v500h38v-482h451v-36h-432z" />
    <glyph glyph-name="uni2520" unicode="&#x2520;" 
d="M507 282v-482h-76v1000h76v-482h432v-36h-432z" />
    <glyph glyph-name="uni2521" unicode="&#x2521;" 
d="M489 264v-464h-38v500h-19v500h76v-464h432v-72h-451z" />
    <glyph glyph-name="uni2522" unicode="&#x2522;" 
d="M507 264v-464h-76v500h19v500h38v-464h451v-72h-432z" />
    <glyph glyph-name="uni2523" unicode="&#x2523;" 
d="M497 271v-471h-54v1000h54v-475h443v-54h-443z" />
    <glyph glyph-name="SF090000" unicode="&#x2524;" 
d="M456 -200v486h-456v29h456v485h29v-1000h-29z" />
    <glyph glyph-name="uni2525" unicode="&#x2525;" 
d="M451 -200v464h-451v72h451v464h38v-1000h-38z" />
    <glyph glyph-name="uni2526" unicode="&#x2526;" 
d="M489 300v-500h-38v482h-451v36h432v482h76v-500h-19z" />
    <glyph glyph-name="uni2527" unicode="&#x2527;" 
d="M432 -200v482h-432v36h451v482h38v-500h19v-500h-76z" />
    <glyph glyph-name="uni2528" unicode="&#x2528;" 
d="M432 -200v482h-432v36h432v482h76v-1000h-76z" />
    <glyph glyph-name="uni2529" unicode="&#x2529;" 
d="M489 300v-500h-38v464h-451v72h432v464h76v-500h-19z" />
    <glyph glyph-name="uni252A" unicode="&#x252a;" 
d="M432 -200v464h-432v72h451v464h38v-500h19v-500h-76z" />
    <glyph glyph-name="uni252B" unicode="&#x252b;" 
d="M443 -200v471h-443v54h443v475h54v-1000h-54z" />
    <glyph glyph-name="SF060000" unicode="&#x252c;" 
d="M485 286v-486h-29v486h-456v29h940v-29h-455z" />
    <glyph glyph-name="uni252D" unicode="&#x252d;" 
d="M489 282v-482h-38v464h-451v72h470v-18h470v-36h-451z" />
    <glyph glyph-name="uni252E" unicode="&#x252e;" 
d="M489 264v-464h-38v482h-451v36h470v18h470v-72h-451z" />
    <glyph glyph-name="uni252F" unicode="&#x252f;" 
d="M489 264v-464h-38v464h-451v72h940v-72h-451z" />
    <glyph glyph-name="uni2530" unicode="&#x2530;" 
d="M508 282v-482h-76v482h-432v36h940v-36h-432z" />
    <glyph glyph-name="uni2531" unicode="&#x2531;" 
d="M508 282v-482h-76v464h-432v72h470v-18h470v-36h-432z" />
    <glyph glyph-name="uni2532" unicode="&#x2532;" 
d="M508 264v-464h-76v482h-432v36h470v18h470v-72h-432z" />
    <glyph glyph-name="uni2533" unicode="&#x2533;" 
d="M497 271v-471h-54v471h-443v54h940v-54h-443z" />
    <glyph glyph-name="SF070000" unicode="&#x2534;" 
d="M0 286v29h456v485h29v-485h455v-29h-940z" />
    <glyph glyph-name="uni2535" unicode="&#x2535;" 
d="M470 282v-18h-470v72h451v464h38v-482h451v-36h-470z" />
    <glyph glyph-name="uni2536" unicode="&#x2536;" 
d="M470 264v18h-470v36h451v482h38v-464h451v-72h-470z" />
    <glyph glyph-name="uni2537" unicode="&#x2537;" 
d="M0 264v72h451v464h38v-464h451v-72h-940z" />
    <glyph glyph-name="uni2538" unicode="&#x2538;" 
d="M0 282v36h432v482h76v-482h432v-36h-940z" />
    <glyph glyph-name="uni2539" unicode="&#x2539;" 
d="M470 282v-18h-470v72h432v464h76v-482h432v-36h-470z" />
    <glyph glyph-name="uni253A" unicode="&#x253a;" 
d="M470 264v18h-470v36h432v482h76v-464h432v-72h-470z" />
    <glyph glyph-name="uni253B" unicode="&#x253b;" 
d="M0 271v54h443v475h54v-475h443v-54h-940z" />
    <glyph glyph-name="SF050000" unicode="&#x253c;" 
d="M485 285v-485h-29v485h-456v29h456v486h29v-486h455v-29h-455z" />
    <glyph glyph-name="uni253D" unicode="&#x253d;" 
d="M489 282v-482h-38v464h-451v76h451v460h38v-482h451v-36h-451z" />
    <glyph glyph-name="uni253E" unicode="&#x253e;" 
d="M489 264v-464h-38v482h-451v36h451v482h38v-464h451v-72h-451z" />
    <glyph glyph-name="uni253F" unicode="&#x253f;" 
d="M489 264v-464h-38v464h-451v72h451v464h38v-464h451v-72h-451z" />
    <glyph glyph-name="uni2540" unicode="&#x2540;" 
d="M489 282v-482h-38v482h-451v36h432v482h76v-482h432v-36h-451z" />
    <glyph glyph-name="uni2541" unicode="&#x2541;" 
d="M508 282v-482h-76v482h-432v36h451v482h38v-482h451v-36h-432z" />
    <glyph glyph-name="uni2542" unicode="&#x2542;" 
d="M508 282v-482h-76v482h-432v36h432v482h76v-482h432v-36h-432z" />
    <glyph glyph-name="uni2543" unicode="&#x2543;" 
d="M489 282v-482h-38v464h-451v72h432v464h76v-482h432v-36h-451z" />
    <glyph glyph-name="uni2544" unicode="&#x2544;" 
d="M489 264v-464h-38v482h-451v36h432v482h76v-464h432v-72h-451z" />
    <glyph glyph-name="uni2545" unicode="&#x2545;" 
d="M508 282v-482h-76v464h-432v72h451v464h38v-482h451v-36h-432z" />
    <glyph glyph-name="uni2546" unicode="&#x2546;" 
d="M508 264v-464h-76v482h-432v36h451v482h38v-464h451v-72h-432z" />
    <glyph glyph-name="uni2547" unicode="&#x2547;" 
d="M489 264v-464h-38v464h-451v72h432v464h76v-464h432v-72h-451z" />
    <glyph glyph-name="uni2548" unicode="&#x2548;" 
d="M508 264v-464h-76v464h-432v72h451v464h38v-464h451v-72h-432z" />
    <glyph glyph-name="uni2549" unicode="&#x2549;" 
d="M508 282v-482h-76v464h-432v72h432v464h76v-482h432v-36h-432z" />
    <glyph glyph-name="uni254A" unicode="&#x254a;" 
d="M508 264v-464h-76v482h-432v36h432v482h76v-464h432v-72h-432z" />
    <glyph glyph-name="uni254B" unicode="&#x254b;" 
d="M497 271v-471h-54v471h-443v54h443v475h54v-475h443v-54h-443z" />
    <glyph glyph-name="shade" unicode="&#x2592;" 
d="M214 19q0 -11 -6.5 -18.5t-17.5 -7.5t-18.5 7.5t-7.5 18.5t7.5 18t18.5 7q24 0 24 -25zM308 19q0 -11 -7.5 -18.5t-17.5 -7.5q-11 0 -18.5 7.5t-7.5 18.5t7.5 18t18.5 7q10 0 17.5 -7t7.5 -18zM214 113q0 -11 -6.5 -18.5t-17.5 -7.5t-18.5 7.5t-7.5 18.5q0 10 7.5 17
t18.5 7t17.5 -7t6.5 -17zM308 113q0 -11 -7.5 -18.5t-17.5 -7.5q-11 0 -18.5 7.5t-7.5 18.5q0 10 7.5 17t18.5 7q10 0 17.5 -7t7.5 -17zM402 19q0 -11 -7.5 -18.5t-18.5 -7.5t-18 7.5t-7 18.5q0 25 25 25q11 0 18.5 -7t7.5 -18zM214 206q0 -11 -6.5 -18.5t-17.5 -7.5
t-18.5 7.5t-7.5 18.5t7.5 18.5t18.5 7.5t17.5 -7.5t6.5 -18.5zM402 113q0 -11 -7.5 -18.5t-18.5 -7.5t-18 7.5t-7 18.5q0 10 7 17t18 7t18.5 -7t7.5 -17zM308 206q0 -11 -7.5 -18.5t-17.5 -7.5q-11 0 -18.5 7.5t-7.5 18.5t7.5 18.5t18.5 7.5q10 0 17.5 -7.5t7.5 -18.5z
M495 19q0 -11 -7 -18.5t-18 -7.5q-10 0 -17.5 7.5t-7.5 18.5t7.5 18t17.5 7q25 0 25 -25zM214 300q0 -10 -6.5 -17.5t-17.5 -7.5t-18.5 7.5t-7.5 17.5q0 11 7.5 18t18.5 7q24 0 24 -25zM495 113q0 -11 -7 -18.5t-18 -7.5q-10 0 -17.5 7.5t-7.5 18.5q0 10 7.5 17t17.5 7
q11 0 18 -7t7 -17zM402 206q0 -11 -7.5 -18.5t-18.5 -7.5t-18 7.5t-7 18.5t7 18.5t18 7.5t18.5 -7.5t7.5 -18.5zM308 300q0 -10 -7.5 -17.5t-17.5 -7.5q-11 0 -18.5 7.5t-7.5 17.5q0 11 7.5 18t18.5 7q10 0 17.5 -7t7.5 -18zM590 19q0 -11 -7.5 -18.5t-18.5 -7.5t-18.5 7.5
t-7.5 18.5t7.5 18t18.5 7t18.5 -7t7.5 -18zM214 394q0 -11 -6.5 -18.5t-17.5 -7.5t-18.5 7.5t-7.5 18.5t7.5 18.5t18.5 7.5t17.5 -7.5t6.5 -18.5zM590 113q0 -11 -7.5 -18.5t-18.5 -7.5t-18.5 7.5t-7.5 18.5q0 10 7.5 17t18.5 7t18.5 -7t7.5 -17zM495 206q0 -11 -7 -18.5
t-18 -7.5q-10 0 -17.5 7.5t-7.5 18.5t7.5 18.5t17.5 7.5q11 0 18 -7.5t7 -18.5zM402 300q0 -10 -7.5 -17.5t-18.5 -7.5t-18 7.5t-7 17.5q0 25 25 25q11 0 18.5 -7t7.5 -18zM308 394q0 -11 -7.5 -18.5t-17.5 -7.5q-11 0 -18.5 7.5t-7.5 18.5t7.5 18.5t18.5 7.5
q10 0 17.5 -7.5t7.5 -18.5zM683 19q0 -11 -7 -18.5t-18 -7.5t-18 7.5t-7 18.5q0 25 25 25t25 -25zM214 487q0 -10 -6.5 -17t-17.5 -7t-18.5 7t-7.5 17q0 11 7.5 18.5t18.5 7.5t17.5 -7.5t6.5 -18.5zM777 19q0 -11 -7.5 -18.5t-18.5 -7.5t-18 7.5t-7 18.5q0 25 25 25
q11 0 18.5 -7t7.5 -18zM683 113q0 -11 -7 -18.5t-18 -7.5t-18 7.5t-7 18.5q0 10 7 17t18 7t18 -7t7 -17zM590 206q0 -11 -7.5 -18.5t-18.5 -7.5t-18.5 7.5t-7.5 18.5t7.5 18.5t18.5 7.5t18.5 -7.5t7.5 -18.5zM495 300q0 -10 -7 -17.5t-18 -7.5q-10 0 -17.5 7.5t-7.5 17.5
q0 11 7.5 18t17.5 7q25 0 25 -25zM402 394q0 -11 -7.5 -18.5t-18.5 -7.5t-18 7.5t-7 18.5t7 18.5t18 7.5t18.5 -7.5t7.5 -18.5zM308 487q0 -10 -7.5 -17t-17.5 -7q-11 0 -18.5 7t-7.5 17q0 11 7.5 18.5t18.5 7.5q10 0 17.5 -7.5t7.5 -18.5zM214 581q0 -25 -24 -25
q-11 0 -18.5 7t-7.5 18t7.5 18.5t18.5 7.5t17.5 -7.5t6.5 -18.5zM777 113q0 -11 -7.5 -18.5t-18.5 -7.5t-18 7.5t-7 18.5q0 10 7 17t18 7t18.5 -7t7.5 -17zM308 581q0 -11 -7.5 -18t-17.5 -7q-11 0 -18.5 7t-7.5 18t7.5 18.5t18.5 7.5q10 0 17.5 -7.5t7.5 -18.5zM683 206
q0 -11 -7 -18.5t-18 -7.5t-18 7.5t-7 18.5t7 18.5t18 7.5t18 -7.5t7 -18.5zM590 300q0 -10 -7.5 -17.5t-18.5 -7.5t-18.5 7.5t-7.5 17.5q0 11 7.5 18t18.5 7t18.5 -7t7.5 -18zM495 394q0 -11 -7 -18.5t-18 -7.5q-10 0 -17.5 7.5t-7.5 18.5t7.5 18.5t17.5 7.5q11 0 18 -7.5
t7 -18.5zM402 487q0 -10 -7.5 -17t-18.5 -7t-18 7t-7 17q0 11 7 18.5t18 7.5t18.5 -7.5t7.5 -18.5zM777 206q0 -11 -7.5 -18.5t-18.5 -7.5t-18 7.5t-7 18.5t7 18.5t18 7.5t18.5 -7.5t7.5 -18.5zM402 581q0 -11 -7.5 -18t-18.5 -7q-25 0 -25 25q0 11 7 18.5t18 7.5t18.5 -7.5
t7.5 -18.5zM683 300q0 -10 -7 -17.5t-18 -7.5t-18 7.5t-7 17.5q0 25 25 25t25 -25zM590 394q0 -11 -7.5 -18.5t-18.5 -7.5t-18.5 7.5t-7.5 18.5t7.5 18.5t18.5 7.5t18.5 -7.5t7.5 -18.5zM495 487q0 -10 -7 -17t-18 -7q-10 0 -17.5 7t-7.5 17q0 11 7.5 18.5t17.5 7.5
q11 0 18 -7.5t7 -18.5zM777 300q0 -10 -7.5 -17.5t-18.5 -7.5t-18 7.5t-7 17.5q0 25 25 25q11 0 18.5 -7t7.5 -18zM495 581q0 -25 -25 -25q-10 0 -17.5 7t-7.5 18t7.5 18.5t17.5 7.5q11 0 18 -7.5t7 -18.5zM683 394q0 -11 -7 -18.5t-18 -7.5t-18 7.5t-7 18.5t7 18.5t18 7.5
t18 -7.5t7 -18.5zM590 487q0 -10 -7.5 -17t-18.5 -7t-18.5 7t-7.5 17q0 11 7.5 18.5t18.5 7.5t18.5 -7.5t7.5 -18.5zM777 394q0 -11 -7.5 -18.5t-18.5 -7.5t-18 7.5t-7 18.5t7 18.5t18 7.5t18.5 -7.5t7.5 -18.5zM590 581q0 -11 -7.5 -18t-18.5 -7t-18.5 7t-7.5 18t7.5 18.5
t18.5 7.5t18.5 -7.5t7.5 -18.5zM683 487q0 -10 -7 -17t-18 -7t-18 7t-7 17q0 11 7 18.5t18 7.5t18 -7.5t7 -18.5zM777 487q0 -10 -7.5 -17t-18.5 -7t-18 7t-7 17q0 11 7 18.5t18 7.5t18.5 -7.5t7.5 -18.5zM683 581q0 -25 -25 -25t-25 25q0 11 7 18.5t18 7.5t18 -7.5t7 -18.5
zM777 581q0 -11 -7.5 -18t-18.5 -7q-25 0 -25 25q0 11 7 18.5t18 7.5t18.5 -7.5t7.5 -18.5zM809 636h-678v-677h678v677zM98 -74v743h744v-743h-744z" />
    <glyph glyph-name="filledbox" unicode="&#x25a0;" 
d="M132 -33v675h676v-675h-676z" />
    <glyph glyph-name="H22073" unicode="&#x25a1;" 
d="M772 603h-604v-604h604v604zM130 -39v680h680v-680h-680z" />
    <glyph glyph-name="uni25A3" unicode="&#x25a3;" 
d="M704 63h-468v468h468v-468zM808 -40v675h-680v-675h680zM834 -66h-732v727h732v-727z" />
    <glyph glyph-name="uni25A4" unicode="&#x25a4;" 
d="M809 26h-678v-67h678v67zM809 126h-678v-68h678v68zM809 230h-678v-72h678v72zM809 333h-678v-71h678v71zM809 431h-678v-66h678v66zM809 536h-678v-73h678v73zM809 636h-678v-68h678v68zM98 -74v743h744v-743h-744z" />
    <glyph glyph-name="uni25A5" unicode="&#x25a5;" 
d="M199 636h-68v-677h68v677zM304 636h-73v-677h73v677zM402 636h-66v-677h66v677zM505 636h-71v-677h71v677zM609 636h-72v-677h72v677zM709 636h-68v-677h68v677zM809 636h-68v-677h68v677zM98 -74v743h744v-743h-744z" />
    <glyph glyph-name="uni25A6" unicode="&#x25a6;" 
d="M202 30h-71v-71h71v71zM202 131h-71v-71h71v71zM303 30h-71v-71h71v71zM303 131h-71v-71h71v71zM202 232h-71v-71h71v71zM404 30h-71v-71h71v71zM404 131h-71v-71h71v71zM303 232h-71v-71h71v71zM202 333h-71v-71h71v71zM505 30h-71v-71h71v71zM505 131h-71v-71h71v71z
M404 232h-71v-71h71v71zM303 333h-71v-71h71v71zM202 434h-71v-71h71v71zM606 30h-71v-71h71v71zM606 131h-71v-71h71v71zM505 232h-71v-71h71v71zM404 333h-71v-71h71v71zM303 434h-71v-71h71v71zM202 535h-71v-71h71v71zM707 30h-71v-71h71v71zM707 131h-71v-71h71v71z
M606 232h-71v-71h71v71zM505 333h-71v-71h71v71zM404 434h-71v-71h71v71zM303 535h-71v-71h71v71zM202 636h-71v-71h71v71zM809 30h-71v-71h71v71zM707 232h-71v-71h71v71zM606 333h-71v-71h71v71zM505 434h-71v-71h71v71zM404 535h-71v-71h71v71zM303 636h-71v-71h71v71z
M809 131h-71v-71h71v71zM707 333h-71v-71h71v71zM606 434h-71v-71h71v71zM505 535h-71v-71h71v71zM404 636h-71v-71h71v71zM809 232h-71v-71h71v71zM707 434h-71v-71h71v71zM606 535h-71v-71h71v71zM505 636h-71v-71h71v71zM809 333h-71v-71h71v71zM707 535h-71v-71h71v71z
M606 636h-71v-71h71v71zM809 434h-71v-71h71v71zM707 636h-71v-71h71v71zM809 535h-71v-71h71v71zM809 636h-71v-71h71v71zM98 -74v743h744v-743h-744z" />
    <glyph glyph-name="uni25A7" unicode="&#x25a7;" 
d="M131 115v-156h156zM131 281v-118l204 -204h118zM131 447v-118l370 -370h118zM131 613v-118l536 -536h118zM809 101l-536 535h-117l653 -653v118zM809 267l-370 369h-118l488 -487v118zM809 434l-203 202h-119l322 -321v119zM809 636h-155l155 -154v154zM98 -74v743h744
v-743h-744z" />
    <glyph glyph-name="uni25A8" unicode="&#x25a8;" 
d="M667 636l-536 -535v-118l653 653h-117zM501 636l-370 -369v-118l488 487h-118zM334 636l-203 -202v-119l322 321h-119zM131 636v-154l155 154h-155zM809 115l-156 -156h156v156zM809 281l-322 -322h118l204 204v118zM809 447l-488 -488h118l370 370v118zM809 613
l-654 -654h118l536 536v118zM98 -74v743h744v-743h-744z" />
    <glyph glyph-name="uni25A9" unicode="&#x25a9;" 
d="M219 27l-67 -68h135zM131 115v-128l64 64zM302 110l-59 -59l68 -68l58 60zM214 198l-59 -59l64 -64l59 59zM394 18l-60 -59h119zM131 281v-117l59 58zM477 101l-59 -59l59 -59l59 59zM386 193l-60 -59l67 -68l60 59zM297 281l-59 -59l64 -64l59 59zM214 364l-59 -59
l59 -59l59 59zM131 447v-118l59 59zM560 18l-59 -59h118zM643 101l-59 -59l59 -59l59 59zM560 184l-59 -59l59 -59l59 59zM380 364l-59 -59l65 -64l58 58zM297 447l-59 -59l59 -59l59 59zM214 530l-59 -59l59 -59l59 59zM469 276l-59 -60l66 -66l60 58zM131 613v-118l59 59z
M726 18l-59 -59h118zM809 101l-59 -59l59 -59v118zM156 636l58 -58l59 58h-117zM379 529l-58 -58l60 -60l58 59zM726 184l-59 -59l59 -59l59 59zM642 267l-58 -58l59 -60l59 59zM463 446l-58 -59l64 -64l58 59zM296 613l-58 -59l59 -59l59 58zM551 358l-58 -59l66 -66l60 58
zM809 267l-59 -59l59 -59v118zM321 636l59 -59l59 59h-118zM725 350l-59 -59l60 -59l59 59zM635 441l-59 -59l66 -67l59 60zM546 528l-59 -58l65 -64l59 59zM463 612l-59 -59l59 -59l60 59zM809 434l-60 -60l60 -60v120zM487 636l60 -60l60 60h-120zM630 612l-60 -59l65 -65
l59 60zM719 525l-61 -60l67 -67l60 60zM654 636l64 -64l65 64h-129zM809 615l-67 -67l67 -66v133zM98 -74v743h744v-743h-744z" />
    <glyph glyph-name="triagup" unicode="&#x25b2;" 
d="M81 -1l387 617l391 -617h-778z" />
    <glyph glyph-name="uni25B3" unicode="&#x25b3;" 
d="M469 554l-327 -523h656zM81 0l388 618l390 -618h-778z" />
    <glyph glyph-name="uni25B6" unicode="&#x25b6;" 
d="M163 -84v770l614 -387z" />
    <glyph glyph-name="uni25B7" unicode="&#x25b7;" 
d="M193 629v-656l523 327zM161 -88v778l618 -390z" />
    <glyph glyph-name="triagdn" unicode="&#x25bc;" 
d="M468 -17l-385 612h774z" />
    <glyph glyph-name="uni25BD" unicode="&#x25bd;" 
d="M142 565l327 -523l329 523h-656zM469 -22l-388 618h778z" />
    <glyph glyph-name="uni25C0" unicode="&#x25c0;" 
d="M163 299l614 387v-770z" />
    <glyph glyph-name="uni25C1" unicode="&#x25c1;" 
d="M747 629l-523 -329l523 -327v656zM161 300l618 390v-778z" />
    <glyph glyph-name="uni25C6" unicode="&#x25c6;" 
d="M470 -141l-440 439l439 440l441 -440z" />
    <glyph glyph-name="uni25C7" unicode="&#x25c7;" 
d="M470 683l-385 -384l385 -385l384 385zM470 -143l-442 442l442 442l442 -442z" />
    <glyph glyph-name="uni25C8" unicode="&#x25c8;" 
d="M199 297l272 271l270 -271l-270 -271zM471 -93l391 391l-391 390l-396 -391l394 -390h2zM41 297l430 426l425 -425l-426 -425z" />
    <glyph glyph-name="circle" unicode="&#x25cb;" 
d="M843 300q0 -77 -29.5 -144.5t-80 -118t-118.5 -80t-145 -29.5t-145 29.5t-119 80t-80.5 118t-29.5 144.5q1 78 30.5 145.5t80 118t118 80t145.5 30.5q77 -1 145 -30.5t118.5 -80t80 -118t29.5 -145.5zM807 300q0 70 -26.5 131.5t-72.5 107.5t-107 72t-131 26
q-71 0 -132.5 -26t-107 -72t-71.5 -107.5t-26 -131.5q0 -69 26 -131t71.5 -108t107 -73t132.5 -27q70 0 131 27t107 73t72.5 108t26.5 131z" />
    <glyph glyph-name="uni25CE" unicode="&#x25ce;" 
d="M690 300q0 46 -17 86t-47 70t-70 47t-86 17q-45 0 -85 -17t-70 -47t-47.5 -70t-17.5 -86t17.5 -86t47.5 -70t70 -47.5t85 -17.5q46 0 86 17.5t70 47.5t47 70t17 86zM724 300q0 -52 -20 -98t-54.5 -80.5t-81 -54.5t-98.5 -20t-98 20t-80.5 54.5t-54.5 80.5t-20 98t20 98.5
t54.5 81t80.5 54.5t98 20t98.5 -20t81 -54.5t54.5 -81t20 -98.5zM832 300q0 74 -29 139.5t-78.5 115t-115 78.5t-139.5 29q-75 0 -140.5 -29t-114.5 -78.5t-77 -115t-28 -139.5q0 -75 28 -140.5t77 -114.5t114.5 -77t140.5 -28q74 0 139.5 28t115 77t78.5 114.5t29 140.5z
M864 300q0 -81 -31 -153t-84.5 -125.5t-125.5 -84.5t-153 -31t-153 31t-125.5 84.5t-84.5 125.5t-31 153t31 153t84.5 125.5t125.5 84.5t153 31t153 -31t125.5 -84.5t84.5 -125.5t31 -153z" />
    <glyph glyph-name="H18533" unicode="&#x25cf;" 
d="M840 300q0 -76 -29 -143t-79 -117.5t-117.5 -79.5t-144.5 -30q-77 1 -144.5 30t-118 79.5t-80 117.5t-29.5 143q1 77 30.5 144t79.5 117t117.5 79.5t144.5 31.5q77 -2 144.5 -31.5t117.5 -79t79 -116.5t29 -145z" />
    <glyph glyph-name="uni25D0" unicode="&#x25d0;" 
d="M829 299q0 73 -28.5 138.5t-77.5 114.5t-114.5 77.5t-139.5 28.5v-717q74 0 139.5 28.5t114.5 77t77.5 113.5t28.5 139zM862 299q0 -81 -30.5 -152t-83.5 -124.5t-124 -84t-152 -30.5q-80 0 -151 30.5t-124 84t-84 124.5t-31 152t31 152t84 124t124 83.5t151 30.5
q81 0 152 -30.5t124 -83.5t83.5 -124t30.5 -152z" />
    <glyph glyph-name="uni25D1" unicode="&#x25d1;" 
d="M115 299q0 -74 28.5 -139t77.5 -113.5t114.5 -77t139.5 -28.5v717q-74 0 -139.5 -28.5t-114.5 -77.5t-77.5 -114.5t-28.5 -138.5zM82 299q0 81 30.5 152t83.5 124t124 83.5t152 30.5q80 0 151 -30.5t124 -83.5t84 -124t31 -152t-31 -152t-84 -124.5t-124 -84t-151 -30.5
q-81 0 -152 30.5t-124 84t-83.5 124.5t-30.5 152z" />
    <glyph glyph-name="uni2605" unicode="&#x2605;" 
d="M628 226l100 -292l-258 180l-259 -180l101 292l-244 183h306l96 278l96 -278h306z" />
    <glyph glyph-name="uni2606" unicode="&#x2606;" 
d="M541 380l-71 217l-71 -217h-245l194 -146l-80 -223l202 139l202 -139l-80 223l194 146h-245zM630 225l103 -298l-263 184l-263 -184l103 298l-249 186h311l98 283l98 -283h311z" />
    <glyph glyph-name="uni260E" unicode="&#x260e;" 
d="M617 208q0 30 -11.5 57t-31.5 47t-47 31.5t-57 11.5t-57 -11.5t-47 -31.5t-31.5 -47t-11.5 -57t11.5 -57t31.5 -46.5t47 -31t57 -11.5t57 11.5t47 31t31.5 46.5t11.5 57zM548 504q-14 -4 -35 -7t-43 -3t-43 3t-35 7v-65h156v65zM893 328q-6 -10 -20 -13t-32.5 -1t-39 7
t-39.5 10q-31 9 -56 22.5t-29 31.5q-2 7 0.5 18t6.5 22t7 21.5t2 17.5q-4 20 -20 27t-35 10q-3 -23 -3 -51.5t14 -75.5q7 -26 16 -44.5t21 -33.5t25.5 -27t29.5 -25q25 -21 39 -44.5t21 -46.5t8.5 -43t1.5 -35q8 -3 12.5 -12t7 -21t2.5 -24.5t-1 -22.5q-1 -9 -10 -12.5
t-24 -3.5h-656q-15 0 -24 3.5t-10 12.5q-1 10 -1 22.5t2.5 24.5t7 21t12.5 12q0 15 1.5 35t8.5 43t21 46.5t39 44.5q16 13 29.5 25t25.5 27t21 33.5t16 44.5q13 47 13.5 75.5t-2.5 51.5q-19 -3 -35 -10t-20 -27q-2 -7 1 -17.5t7 -21.5t7 -22t1 -18q-4 -18 -29 -31.5
t-56 -22.5q-19 -5 -39.5 -10t-39 -7t-32.5 1t-20 13t-7.5 29t1.5 41.5t11.5 45t22.5 40.5q24 31 66.5 54t95.5 38t113 22t120 7t120 -7t113 -22t95.5 -38t66.5 -54q14 -18 22.5 -40.5t11.5 -45t1.5 -41.5t-7.5 -29z" />
    <glyph glyph-name="uni260F" unicode="&#x260f;" 
d="M617 208q0 30 -11.5 57t-31.5 47t-47 31.5t-57 11.5t-57 -11.5t-47 -31.5t-31.5 -47t-11.5 -57t11.5 -57t31.5 -46.5t47 -31t57 -11.5t57 11.5t47 31t31.5 46.5t11.5 57zM640 208q0 -35 -13.5 -66t-36.5 -54t-54 -36.5t-66 -13.5t-66 13.5t-54 36.5t-36.5 54t-13.5 66
t13.5 66t36.5 54t54 36.5t66 13.5t66 -13.5t54 -36.5t36.5 -54t13.5 -66zM803 0q3 0 5 8t1 19t-4.5 21.5t-12.5 15.5q0 12 -2 31t-7 39t-13.5 38.5t-22.5 31.5q-23 22 -40 38t-29 30t-21 28.5t-16 32.5q-19 51 -24 95t-2 76h-47v-84h-196v84h-47q3 -32 -2 -76t-24 -95
q-7 -18 -16 -32.5t-21 -28.5t-29 -30t-40 -38q-14 -13 -22.5 -31.5t-13.5 -38.5t-7 -39t-2 -31q-9 -5 -12.5 -15.5t-4.5 -21.5t1 -19t5 -8h666zM867 338q6 1 9.5 18.5t-0.5 42.5t-18 53.5t-42 51.5q-22 18 -64 33t-91.5 26t-100.5 17t-90 6q-52 0 -104 -6t-98.5 -17t-84 -26
t-59.5 -33q-29 -23 -42.5 -51.5t-17.5 -53.5t-0.5 -42.5t9.5 -18.5q19 -2 41.5 1t45 9t42 14.5t33.5 16.5q6 4 3.5 15t-6.5 25.5t-6.5 30.5t3.5 30q8 21 36.5 33t95.5 12q21 0 46 -5q17 -4 31.5 -6t31.5 -2t31.5 2t31.5 6q25 5 46 5q34 0 56.5 -3t37.5 -9t24 -14.5t14 -18.5
q6 -14 3.5 -30t-6.5 -30.5t-6.5 -25.5t3.5 -15q13 -8 33 -16.5t42.5 -14.5t45 -9t41.5 -1zM548 504q-14 -4 -35 -7t-43 -3t-43 3t-35 7v-65h156v65zM893 328q-6 -10 -20 -13t-32.5 -1t-39 7t-39.5 10q-31 9 -56 22.5t-29 31.5q-2 7 0.5 18t6.5 22t7 21.5t2 17.5
q-4 20 -20 27t-35 10q-3 -23 -3 -51.5t14 -75.5q7 -26 16 -44.5t21 -33.5t25.5 -27t29.5 -25q25 -21 39 -44.5t21 -46.5t8.5 -43t1.5 -35q8 -3 12.5 -12t7 -21t2.5 -24.5t-1 -22.5q-1 -9 -10 -12.5t-24 -3.5h-656q-15 0 -24 3.5t-10 12.5q-1 10 -1 22.5t2.5 24.5t7 21
t12.5 12q0 15 1.5 35t8.5 43t21 46.5t39 44.5q16 13 29.5 25t25.5 27t21 33.5t16 44.5q13 47 13.5 75.5t-2.5 51.5q-19 -3 -35 -10t-20 -27q-2 -7 1 -17.5t7 -21.5t7 -22t1 -18q-4 -18 -29 -31.5t-56 -22.5q-19 -5 -39.5 -10t-39 -7t-32.5 1t-20 13t-7.5 29t1.5 41.5
t11.5 45t22.5 40.5q24 31 66.5 54t95.5 38t113 22t120 7t120 -7t113 -22t95.5 -38t66.5 -54q14 -18 22.5 -40.5t11.5 -45t1.5 -41.5t-7.5 -29z" />
    <glyph glyph-name="uni261C" unicode="&#x261c;" 
d="M757 195v19h-26q-15 -9 -35 -18.5t-47.5 -17.5t-64 -13.5t-84.5 -5.5q-30 0 -57 0.5t-47 4.5t-32 13t-12 25q0 12 14 21q-13 0 -23.5 8.5t-10.5 24.5q0 14 10 24q-13 2 -23 8t-10 22q0 20 17.5 28t57.5 8q-1 2 -1.5 4t-1.5 4h-39q-17 0 -35 1t-37.5 2t-44.5 3
q-19 1 -39 2t-36 4.5t-26.5 11t-10.5 21.5q0 16 20 24.5t63.5 12t113.5 3.5h171q29 0 58.5 -0.5t58 -5t55.5 -15.5t51 -33q12 -3 23 -4t20 -1h11v29h68v-214h-69zM758 365q-2 0 -5.5 -0.5t-7.5 -0.5q-7 0 -14.5 0.5t-12.5 2.5q1 -4 2 -8.5t1 -6.5t-1 -2t-6 5t-13 12.5
t-18.5 16t-21.5 16.5q-12 7 -29.5 12t-37.5 8t-39.5 4.5t-35.5 1.5q-23 0 -44.5 -5t-41.5 -18q-3 -2 -9.5 -10t-13 -17t-11.5 -16t-5 -8q0 -6 9 -6q10 0 20.5 5.5t19 12.5t14.5 12.5t8 5.5q4 0 4 -5q0 -3 -5 -10q5 -2 12.5 -3t14.5 -1q20 0 30.5 8t15.5 8q3 0 3 -4t-5 -9
l-9 -9q6 -8 24.5 -22.5t47.5 -24.5q18 -6 33.5 -8.5t26.5 -3.5t17.5 -2.5t6.5 -5.5q0 -5 -16 -5q-33 0 -59 8.5t-45.5 20t-32 23.5t-17.5 18q-5 -2 -10.5 -2.5t-10.5 -0.5q-28 2 -38 6q-4 -3 -7 -6t-7 -6q61 0 61 -34q0 -16 -12 -26q29 -7 29 -32q0 -8 -5 -13l-9 -9
q29 -9 29 -30q0 -11 -3.5 -16t-8.5 -10q4 -1 14 -1q39 0 70 5.5t55.5 14.5t43 19t32.5 19q4 2 5 2q2 0 2 -2t-2 -8h18v140zM446 425q-45 -1 -103.5 -1.5t-121.5 -2.5q-45 -2 -69 -5t-24 -17t21 -17.5t72 -6.5q56 -4 94.5 -6t75.5 -2q2 4 7 12.5t12 17.5t16 17t20 11z
M812 394h-40v-185h40v185zM502 252q0 14 -8 20t-30 6h-40q-38 0 -57.5 -1.5t-19.5 -21.5q0 -11 12 -16t45 -5h70q8 0 17.5 4t10.5 14zM517 204q-1 8 -9.5 12t-21 5t-26.5 0.5t-25 -0.5h-24q-11 0 -20.5 -1.5t-15.5 -5.5t-6 -12q0 -10 8 -15.5t20 -8t26 -3t27 -0.5
q28 0 47.5 3t19.5 21v5zM481 315q0 8 -10.5 11.5t-24.5 5t-29 1.5h-46q-12 0 -22.5 -2t-17.5 -6t-7 -13q0 -14 9.5 -17t27.5 -3h45q13 0 26 -0.5t24 1t18 6.5t7 16z" />
    <glyph glyph-name="uni261E" unicode="&#x261e;" 
d="M826 399q0 -14 -10.5 -21.5t-26.5 -11t-36 -4.5t-39 -2q-26 -2 -45.5 -3t-37 -2t-35.5 -1h-38q-1 -2 -1.5 -4t-1.5 -4q40 0 57.5 -8t17.5 -28q0 -16 -10 -22t-23 -8q10 -10 10 -24q0 -16 -10.5 -24.5t-23.5 -8.5q14 -9 14 -21q0 -16 -11.5 -25t-32 -13t-47.5 -4.5
t-58 -0.5q-48 0 -84.5 5.5t-64 13.5t-47.5 17.5t-34 18.5h-26v-19h-69v214h68v-29h10q10 0 21 1t23 4q21 19 44 30t48 16t51 6.5t52 1.5h183q76 0 123.5 -3t68.5 -11.5t21 -25.5zM544 356q-11 6 -18 22q-17 30 -47 39t-59 9q-16 0 -35.5 -1.5t-39.5 -4.5t-37.5 -8t-29.5 -12
q-23 -15 -40 -32.5t-19 -17.5q-1 0 -1 2q0 7 3 15q-11 -3 -27 -3q-4 0 -7.5 0.5t-5.5 0.5v-140h18q-2 6 -2 8t2 2q1 0 5 -2q14 -9 32.5 -19t43 -19t55.5 -14.5t69 -5.5q10 0 15 1q-5 5 -7 8l1 -3q-2 2 -5 7t-3 11q0 23 31 33q-6 5 -10 9.5t-4 12.5q0 25 29 32q-12 10 -12 26
q0 34 61 34q-4 3 -7 6t-7 6q-10 -4 -38 -6q-5 0 -10.5 0.5t-10.5 2.5l-18 -18q-12 -12 -31.5 -23.5t-45.5 -20t-59 -8.5q-16 0 -16 5q0 4 6.5 5.5t17.5 2.5t26.5 3.5t33.5 8.5q29 10 47.5 24.5t24.5 22.5q-14 10 -14 18q0 4 3 4q5 0 15.5 -8t30.5 -8q7 0 14.5 1t12.5 3
q-5 7 -5 10q0 5 4 5q2 0 8 -5.5t14.5 -12.5t18.5 -12.5t21 -5.5q9 0 9 6q0 3 -1 4zM811 399q0 14 -24 17t-69 5q-63 2 -121.5 3t-103.5 1q10 -3 19.5 -11t16.5 -17t12 -17.5t7 -12.5q37 1 75.5 3t94.5 5q51 3 72 6.5t21 17.5zM167 394h-40v-185h40v185zM592 255
q0 20 -20 21.5t-57 1.5h-40q-38 0 -38 -23q0 -11 9 -16t19 -5h69q34 0 46 5t12 16zM569 197q0 2 0.5 2.5t0.5 2.5q0 8 -6 12t-15.5 5.5t-21.5 1.5h-23q-12 0 -26.5 0.5t-27 -1t-20.5 -6.5t-8 -15q0 -18 19.5 -21t47.5 -3q11 0 24.5 0.5t25.5 2.5t20.5 6.5t9.5 12.5zM615 310
q0 9 -7 14t-17 7t-23 2h-47q-15 0 -29 -1.5t-24 -5t-10 -11.5q0 -11 6.5 -15.5t17 -6.5t24 -1.5t27.5 0.5h23q9 0 19.5 -0.5t19.5 1t14.5 5.5t5.5 12z" />
    <glyph glyph-name="female" unicode="&#x2640;" 
d="M606 554q0 28 -10.5 53t-29 44t-43.5 30t-53 11q-29 0 -53.5 -11t-43 -30t-29 -44t-10.5 -53t10.5 -53t29 -44t43 -30t53.5 -11q28 0 53 11t43.5 30t29 44t10.5 53zM488 226v-344h-36v344h-272v26h272v132q-32 3 -60 17.5t-48.5 37.5t-32.5 52.5t-12 62.5q0 35 13.5 66.5
t36.5 55t54.5 37t66.5 13.5t66 -13.5t54.5 -37t37 -55t13.5 -66.5q0 -33 -12 -62.5t-32.5 -52.5t-48.5 -37.5t-60 -17.5v-132h272v-26h-272z" />
    <glyph glyph-name="male" unicode="&#x2642;" 
d="M605 52q0 28 -10.5 53t-29 44t-43.5 30t-53 11q-29 0 -53.5 -11t-43 -30t-29 -44t-10.5 -53t10.5 -53t29 -44t43 -30t53.5 -11q28 0 53 11t43.5 30t29 44t10.5 53zM485 666v-443q32 -3 60 -18t49 -38t33.5 -52.5t12.5 -62.5q0 -35 -13.5 -66.5t-37 -54.5t-54.5 -36.5
t-66 -13.5t-66.5 13.5t-54.5 36.5t-36.5 54.5t-13.5 66.5q0 33 12.5 62.5t33.5 52.5t49 38t60 18v443l-200 -259l-23 18l239 303l239 -303l-23 -18z" />
    <glyph glyph-name="spade" unicode="&#x2660;" 
d="M793 201q0 -31 -10 -58t-28 -46.5t-44 -31t-57 -11.5q-29 0 -55 12.5t-64 34.5q1 -19 5.5 -43.5t11.5 -50t16 -49t19 -41.5q9 -19 -14 -22q-20 -2 -48.5 -3.5t-54.5 -1.5q-29 0 -55.5 1.5t-47.5 3.5q-23 3 -14 22q10 19 18.5 43t15.5 48.5t11.5 48.5t6.5 44
q-38 -22 -64 -34.5t-55 -12.5q-32 0 -57.5 11.5t-43.5 31t-28 46.5t-10 58q0 44 29.5 103.5t76.5 127t104 139.5t113 142q55 -70 112.5 -142t104.5 -139.5t76.5 -127t29.5 -103.5z" />
    <glyph glyph-name="uni2661" unicode="&#x2661;" 
d="M795 477q0 37 -10.5 69t-31 55t-51 36.5t-71.5 13.5q-24 0 -44.5 -13t-37 -33t-28 -44t-17.5 -45q-5 -17 -12 -34.5t-20 -17.5q-14 0 -20 13.5t-10 30.5q-1 2 -1 4t-1 4q-6 21 -18.5 45t-29 44t-36.5 33t-43 13q-42 0 -72.5 -13.5t-51 -36.5t-30.5 -55t-10 -69
q0 -62 30.5 -134.5t77.5 -144.5t104 -138.5t111 -115.5q59 57 117 124t103.5 137.5t74 140t28.5 131.5zM821 477q0 -47 -16 -98t-42.5 -103t-62 -103t-74 -98t-78.5 -89.5t-76 -77.5q-36 35 -76 77.5t-78.5 89.5t-74 98t-62 103t-42.5 102.5t-16 98.5q0 42 14 77.5t38 61.5
t56 40.5t68 14.5q62 0 105 -42t65 -138h6q22 96 65 138t106 42q36 0 68 -14.5t55.5 -40.5t37.5 -61.5t14 -77.5z" />
    <glyph glyph-name="club" unicode="&#x2663;" 
d="M861 211q0 -35 -11.5 -67.5t-33 -58t-52 -41t-69.5 -15.5q-26 0 -49.5 8t-43.5 20.5t-36 27t-27 26.5q7 -17 14 -40.5t12.5 -50t9 -54.5t3.5 -54q0 -7 -5.5 -11t-12.5 -5q-12 -1 -20 -1l-16 -1q-8 -1 -21 -1h-33q-23 0 -44 0.5t-46 2.5q-7 1 -12.5 5t-5.5 11q0 26 3 54
t8.5 54.5t12.5 50t15 40.5q-11 -12 -27 -26.5t-36 -27t-43.5 -20.5t-49.5 -8q-39 0 -69.5 15.5t-52 41t-33 58t-11.5 67.5t11.5 67.5t33 57t51 39.5t65.5 15q33 0 62.5 -11.5t55.5 -25.5q8 -4 17 -3t12 6q5 8 1 16t-9 13q-23 19 -39 37t-26.5 37t-15.5 40.5t-5 48.5
q0 37 14.5 66.5t38.5 49.5t56 31t68 11t68 -11t56 -31t38.5 -49.5t14.5 -66.5q0 -27 -5 -48.5t-15.5 -40.5t-27 -37t-38.5 -37q-5 -5 -9 -13t1 -16q3 -5 12 -6t17 3q26 14 55.5 25.5t62.5 11.5q36 0 65.5 -15t51 -39.5t33 -57t11.5 -67.5z" />
    <glyph glyph-name="uni2664" unicode="&#x2664;" 
d="M771 200q0 27 -13.5 62.5t-37 76t-53.5 85t-63.5 89t-68 87t-65.5 79.5q-47 -56 -99.5 -122.5t-97.5 -132.5t-74.5 -125t-29.5 -99q0 -23 7 -44.5t21.5 -38t35 -26.5t47.5 -10q24 0 45 8t38 17t29.5 17t18.5 8q21 0 26 -9t1 -36q-5 -35 -15.5 -70.5t-24.5 -83.5
q-3 -10 2.5 -15t26.5 -5q19 -2 43 -2t43 2q35 1 29 20q-14 47 -23.5 80.5t-15.5 68.5q-5 27 0 38.5t26 11.5q5 0 17.5 -8.5t29.5 -18.5t38.5 -18.5t45.5 -8.5q27 0 47.5 10.5t35 28t21.5 39.5t7 45zM796 201q0 -32 -10 -59.5t-28 -47.5t-44 -31.5t-57 -11.5q-29 0 -61.5 16
t-70.5 41q1 -19 5.5 -45t11.5 -53.5t16 -53.5t19 -45q9 -19 -14 -22q-19 -3 -43.5 -4t-50 -1t-50 1t-42.5 4q-23 3 -14 22q10 21 18.5 46.5t15.5 52.5t11.5 52.5t6.5 45.5q-40 -26 -71.5 -41.5t-60.5 -15.5q-32 0 -57.5 11.5t-43.5 31.5t-28 47.5t-10 59.5q0 44 29.5 104
t76.5 128t105 141.5t115 144.5q57 -71 115 -144.5t105 -141.5t76.5 -128t29.5 -104z" />
    <glyph glyph-name="heart" unicode="&#x2665;" 
d="M816 473q0 -47 -16 -97t-42.5 -101t-62 -101t-74 -96.5t-77.5 -88t-74 -75.5q-35 34 -74 75.5t-77.5 88t-74 96.5t-62 101t-42.5 101t-16 97q0 42 14 77t38 60.5t56 40t69 14.5q61 0 104 -40t65 -136q22 96 65 136t104 40q37 0 69 -14.5t56 -40t38 -60.5t14 -77z" />
    <glyph glyph-name="uni2667" unicode="&#x2667;" 
d="M869 210q0 -36 -12 -69t-33.5 -58.5t-52.5 -41t-69 -15.5q-26 0 -50 8.5t-44.5 21t-37 27t-27.5 26.5l-4 -3q7 -17 14 -40.5t12.5 -51t9 -56.5t3.5 -56q0 -5 -5 -8.5t-10 -4.5q-11 -1 -19 -1.5t-17 -1t-22 -0.5h-33q-23 0 -45 0.5t-46 2.5q-5 1 -10 4.5t-5 8.5q0 27 3 56
t8.5 56.5t12.5 51t15 40.5l-4 3q-11 -12 -27.5 -26.5t-37 -27t-44.5 -21t-50 -8.5q-38 0 -69 15.5t-53 41t-33.5 58.5t-11.5 69q0 34 12 66t33.5 57t51 39.5t65.5 14.5q16 0 34 -4t36 -10.5t35 -14.5t31 -15q9 -5 19 -3.5t14 8.5v-1q7 10 2 18.5t-11 14.5q-47 41 -75 80
t-28 93q0 37 14.5 66.5t39 50t57 31.5t67.5 11t67.5 -11t57 -31.5t39.5 -50t15 -66.5q0 -54 -27.5 -93.5t-73.5 -80.5q-6 -6 -10.5 -14.5t1.5 -18.5v1q4 -7 14 -8.5t19 3.5q14 7 30.5 15t34 14.5t35 11t33.5 4.5q36 0 65.5 -14.5t51 -39.5t33.5 -57t12 -66zM840 210
q0 25 -9.5 51.5t-26.5 48t-41 35t-53 13.5q-32 0 -57.5 -11t-45.5 -23h1q-15 -8 -27.5 -14.5t-23.5 -6.5q-25 0 -38 15t-13 38q0 18 12.5 31.5t29.5 28.5q12 10 25 23t23.5 29.5t17.5 38t7 50.5q0 30 -13 54t-34.5 41t-48 26.5t-53.5 9.5q-26 0 -52.5 -9.5t-48 -26.5
t-35 -41t-13.5 -54q0 -29 7 -50.5t17.5 -38t23.5 -29.5t25 -23q17 -15 29.5 -28.5t12.5 -31.5q0 -23 -13 -38t-38 -15q-11 0 -23.5 6.5t-27.5 14.5h1q-20 12 -45.5 23t-57.5 11q-29 0 -53 -13.5t-41 -35t-26.5 -48t-9.5 -51.5q0 -28 9.5 -56t27 -50t42.5 -36t56 -14
q24 0 42.5 5.5t33.5 14.5t27 20t22 21q13 12 24.5 21.5t25.5 9.5q9 0 11.5 -5t2.5 -16q0 -17 -3.5 -33t-8.5 -33q-8 -24 -14 -54.5t-6 -76.5q0 -14 17 -16q11 -2 29 -2.5t30 -0.5t30 0.5t30 2.5q16 2 16 16q0 46 -6 76.5t-13 54.5q-5 17 -9 33t-4 33q0 11 2.5 16t12.5 5
q12 0 23.5 -9t24.5 -21q10 -10 22 -21t27 -20t34 -15t43 -6q31 0 56 14t42.5 36t27 50t9.5 56z" />
    <glyph glyph-name="uni2668" unicode="&#x2668;" 
d="M868 101q0 -46 -32 -84.5t-86 -66t-125 -43t-150 -15.5t-152 13.5t-129 37.5t-89.5 57.5t-33.5 73.5t25 70.5t58.5 52t68.5 34.5t56 19q6 2 9 0t4 -5.5t-2 -7t-9 -5.5q-4 -2 -26 -12.5t-46.5 -28.5t-44.5 -42.5t-20 -54.5q0 -26 29.5 -45t76.5 -31.5t106.5 -19
t119.5 -6.5t119 8.5t106 24.5t76.5 38.5t29.5 51.5q0 21 -13 39t-31 32.5t-38 24.5t-33 14q-12 4 -9 11t13 5q15 -2 43.5 -11.5t57 -27t50 -43t21.5 -58.5zM398 261q3 -30 -13.5 -73.5t-41.5 -91.5q-13 -24 -18 -38.5t-6 -23.5q-1 -8 -6.5 -8.5t-10.5 8.5q-6 13 -9 39t8 58
q5 14 11 39t9 55t0.5 61.5t-13.5 58.5q-14 34 -18 67t0 64.5t14.5 61t25.5 57.5q8 14 14 30t9 30q2 8 7 7.5t7 -6.5q5 -15 6 -52.5t-16 -97.5q-6 -22 -2 -49t12.5 -58t17.5 -66t13 -72zM540 286q4 -22 -2.5 -49t-17 -53.5t-23 -49.5t-19.5 -37q-15 -28 -22 -45.5t-8 -27.5
q-1 -9 -7.5 -8.5t-9.5 7.5q-7 16 -8 48.5t16 74.5q15 35 18 70t0 65t-9 51.5t-10 30.5q-20 46 -23 82t3.5 65t18.5 52.5t22 44.5q14 29 18.5 53t4.5 40q0 11 5.5 10.5t9.5 -8.5q5 -11 9.5 -28.5t6 -39.5t-1 -46.5t-11.5 -49.5q-13 -37 -11 -66t10.5 -57.5t20.5 -59t20 -69.5
zM672 298q3 -38 -5 -67t-20 -52.5t-25.5 -42.5t-21.5 -35q-13 -25 -19.5 -44.5t-8.5 -28.5q-2 -5 -6.5 -7t-7.5 7q-3 7 -4.5 19t-1.5 26t2.5 28t7.5 26q9 22 18.5 50t14.5 57t4.5 58.5t-11.5 55.5q-17 38 -23 69.5t-4.5 59t9 53t18.5 51.5q7 17 10 36.5t3 32.5q0 9 4.5 11
t9.5 -9q8 -16 14 -51t-2 -92q-5 -35 0 -58t13.5 -44.5t18 -46.5t13.5 -62z" />
    <glyph glyph-name="uni2669" unicode="&#x2669;" horiz-adv-x="388" 
d="M288 115q0 -43 -6.5 -71t-28.5 -54q-14 -16 -32.5 -29.5t-37.5 -20t-37 -4.5t-32 17q-20 27 -11.5 56.5t32 53.5t55.5 39t61 15v545h37v-547z" />
    <glyph glyph-name="musicalnote" unicode="&#x266a;" horiz-adv-x="539" 
d="M479 339q0 -30 -9 -61.5t-30 -63.5q-20 -30 -50 -58.5t-57 -44.5q-11 -7 -14.5 -1.5t4.5 13.5q13 13 30 32t32.5 43.5t26 54t10.5 63.5q0 33 -19 56.5t-46 39.5t-57 26t-52 17v-340q0 -43 -6.5 -71t-28.5 -54q-14 -16 -32.5 -29.5t-37.5 -20t-37 -4.5t-32 17t-14.5 34
t8 38t24 35.5t33.5 27.5q19 11 40 18t45 11v500q0 13 1 26.5t8 13.5t13 -5t18 -19q13 -15 28 -31.5t42 -39.5q43 -37 73.5 -68t49.5 -58t27.5 -50.5t8.5 -46.5z" />
    <glyph glyph-name="uni266C" unicode="&#x266c;" horiz-adv-x="693" 
d="M598 544l-347 -74v-58l347 74v58zM638 191q0 -35 -19 -65t-48 -54q-13 -11 -29.5 -20t-33 -12t-32 0.5t-26.5 18.5q-9 11 -8 26.5t8 31.5t18.5 30.5t24.5 24.5q29 21 53.5 27.5t51.5 10.5v182l-347 -75v-223q0 -35 -19 -65t-48 -54q-13 -11 -29.5 -20t-33 -12t-32 0.5
t-26.5 18.5q-9 11 -8 26.5t8 31.5t18.5 30.5t24.5 24.5q29 21 53.5 27.5t51.5 10.5v446l427 86v-454z" />
    <glyph glyph-name="uni266D" unicode="&#x266d;" horiz-adv-x="517" 
d="M343 229q0 27 -5 50t-14.5 40t-23 27t-29.5 10q-28 0 -48.5 -12t-34 -29.5t-20 -38t-6.5 -38.5v-214q29 2 61 13.5t58.5 36t43.5 62.5t17 93h1zM418 266q0 -85 -31 -140t-78.5 -87.5t-103.5 -46.5t-106 -17v665h63v-328q6 16 16 32.5t26 30.5t40 23t58 9q24 0 45 -10
t37 -28.5t25 -44.5t9 -58z" />
    <glyph glyph-name="uni3000" unicode="&#x3000;" 
 />
    <glyph glyph-name="uni3000" unicode="&#x3164;" 
 />
    <glyph glyph-name="uni3001" unicode="&#x3001;" 
d="M62 6l192 -80v-81l-192 140v21z" />
    <glyph glyph-name="uni3002" unicode="&#x3002;" 
d="M154 -170q-22 0 -41.5 8.5t-34 23t-23 34t-8.5 41.5t8.5 41.5t23 34t34 23t41.5 8.5t41.5 -8.5t34 -23t23 -34t8.5 -41.5t-8.5 -41.5t-23 -34t-34 -23t-41.5 -8.5zM235 -63q0 35 -23 58.5t-58 23.5t-58 -23.5t-23 -58.5t23 -58.5t58 -23.5t58 23.5t23 58.5z" />
    <glyph glyph-name="uni3003" unicode="&#x3003;" 
d="M266 137h-15l125 309h83zM446 137h-15l125 309h83z" />
    <glyph glyph-name="uni3008" unicode="&#x3008;" horiz-adv-x="467" 
d="M389 -132l-339 432l338 432l29 -21l-324 -411l324 -411z" />
    <glyph glyph-name="uni3009" unicode="&#x3009;" horiz-adv-x="477" 
d="M84 -132l-29 21l324 411l-324 411l28 21l339 -432z" />
    <glyph glyph-name="uni300A" unicode="&#x300a;" horiz-adv-x="464" 
d="M300 -151l-261 451l261 451l28 -16l-251 -435l251 -435zM397 -151l-261 451l261 451l28 -16l-251 -435l251 -435z" />
    <glyph glyph-name="uni300B" unicode="&#x300b;" horiz-adv-x="464" 
d="M67 -151l-28 16l251 435l-251 435l28 16l261 -451zM164 -151l-28 16l251 435l-251 435l28 16l261 -451z" />
    </font>
</defs>
</svg>
